M48
; DRILL file KiCad 10.0.0 date 2026-05-04T01:20:25
; FORMAT={-:-/ absolute / metric / decimal}
; #@! TF.CreationDate,2026-05-04T01:20:25+02:00
; #@! TF.GenerationSoftware,Kicad,Pcbnew,10.0.0
; #@! TF.FileFunction,Plated,1,2,PTH
FMAT,2
METRIC
; #@! TA.AperFunction,Plated,PTH,ComponentDrill
T1C0.500
; #@! TA.AperFunction,Plated,PTH,ComponentDrill
T2C0.800
; #@! TA.AperFunction,Plated,PTH,ComponentDrill
T3C0.900
; #@! TA.AperFunction,Plated,PTH,ComponentDrill
T4C0.914
; #@! TA.AperFunction,Plated,PTH,ComponentDrill
T5C1.000
; #@! TA.AperFunction,Plated,PTH,ComponentDrill
T6C1.016
; #@! TA.AperFunction,Plated,PTH,ComponentDrill
T7C3.200
%
G90
G05
T1
X2.6Y-5.0
X2.6Y-45.0
X3.303Y-3.303
X3.303Y-6.697
X3.303Y-43.303
X3.303Y-46.697
X5.0Y-2.6
X5.0Y-7.4
X5.0Y-42.6
X5.0Y-47.4
X6.697Y-3.303
X6.697Y-6.697
X6.697Y-43.303
X6.697Y-46.697
X7.4Y-5.0
X7.4Y-45.0
X67.6Y-5.0
X67.6Y-45.0
X68.303Y-3.303
X68.303Y-6.697
X68.303Y-43.303
X68.303Y-46.697
X70.0Y-2.6
X70.0Y-7.4
X70.0Y-42.6
X70.0Y-47.4
X71.697Y-3.303
X71.697Y-6.697
X71.697Y-43.303
X71.697Y-46.697
X72.4Y-5.0
X72.4Y-45.0
T2
X2.54Y-12.0
X12.7Y-12.0
X44.45Y-3.88
X44.45Y-7.93
X44.45Y-11.98
X44.45Y-16.03
X44.45Y-20.08
X44.45Y-24.13
X44.45Y-28.18
X44.45Y-32.23
X44.45Y-36.28
X44.45Y-40.33
X54.61Y-3.88
X54.61Y-7.93
X54.61Y-11.98
X54.61Y-16.03
X54.61Y-20.08
X54.61Y-24.13
X54.61Y-28.18
X54.61Y-32.23
X54.61Y-36.28
X54.61Y-40.33
T3
X5.73Y-17.0
X8.27Y-17.0
T4
X62.23Y-11.992
X62.23Y-14.532
X62.23Y-17.072
X62.23Y-19.613
X62.23Y-22.152
X62.23Y-24.692
X62.23Y-27.232
X62.23Y-29.772
X62.23Y-32.312
X62.23Y-34.852
X69.85Y-11.992
X69.85Y-14.532
X69.85Y-17.072
X69.85Y-19.613
X69.85Y-22.152
X69.85Y-24.692
X69.85Y-27.232
X69.85Y-29.772
X69.85Y-32.312
X69.85Y-34.852
T5
X6.35Y-23.0
X8.89Y-23.0
X8.89Y-27.072
X8.89Y-29.612
X11.43Y-23.0
X32.4Y-46.0
X40.0Y-46.0
T6
X19.05Y-6.752
X19.05Y-9.293
X19.05Y-11.832
X19.05Y-14.372
X19.05Y-16.912
X19.05Y-19.453
X19.05Y-21.992
X19.05Y-24.532
X19.05Y-27.072
X19.05Y-29.612
X19.05Y-32.152
X19.05Y-34.692
X20.32Y-37.233
X21.976Y-12.968
X21.976Y-15.508
X21.976Y-23.382
X21.976Y-25.922
X22.86Y-37.233
X25.4Y-37.233
X27.94Y-37.233
X30.48Y-37.233
X33.02Y-37.233
X34.29Y-6.752
X34.29Y-9.293
X34.29Y-11.832
X34.29Y-14.372
X34.29Y-16.912
X34.29Y-19.453
X34.29Y-21.992
X34.29Y-24.532
X34.29Y-27.072
X34.29Y-29.612
X34.29Y-32.152
X34.29Y-34.692
T7
X5.0Y-5.0
X5.0Y-45.0
X70.0Y-5.0
X70.0Y-45.0
M30
