%TF.GenerationSoftware,KiCad,Pcbnew,10.0.0*%
%TF.CreationDate,2026-05-04T01:19:31+02:00*%
%TF.ProjectId,Geiger_Simulator,47656967-6572-45f5-9369-6d756c61746f,rev?*%
%TF.SameCoordinates,Original*%
%TF.FileFunction,Legend,Bot*%
%TF.FilePolarity,Positive*%
%FSLAX46Y46*%
G04 Gerber Fmt 4.6, Leading zero omitted, Abs format (unit mm)*
G04 Created by KiCad (PCBNEW 10.0.0) date 2026-05-04 01:19:31*
%MOMM*%
%LPD*%
G01*
G04 APERTURE LIST*
%ADD10C,0.150000*%
%ADD11C,0.120000*%
G04 APERTURE END LIST*
D10*
X49696666Y-39104819D02*
X50029999Y-38628628D01*
X50268094Y-39104819D02*
X50268094Y-38104819D01*
X50268094Y-38104819D02*
X49887142Y-38104819D01*
X49887142Y-38104819D02*
X49791904Y-38152438D01*
X49791904Y-38152438D02*
X49744285Y-38200057D01*
X49744285Y-38200057D02*
X49696666Y-38295295D01*
X49696666Y-38295295D02*
X49696666Y-38438152D01*
X49696666Y-38438152D02*
X49744285Y-38533390D01*
X49744285Y-38533390D02*
X49791904Y-38581009D01*
X49791904Y-38581009D02*
X49887142Y-38628628D01*
X49887142Y-38628628D02*
X50268094Y-38628628D01*
X49315713Y-38200057D02*
X49268094Y-38152438D01*
X49268094Y-38152438D02*
X49172856Y-38104819D01*
X49172856Y-38104819D02*
X48934761Y-38104819D01*
X48934761Y-38104819D02*
X48839523Y-38152438D01*
X48839523Y-38152438D02*
X48791904Y-38200057D01*
X48791904Y-38200057D02*
X48744285Y-38295295D01*
X48744285Y-38295295D02*
X48744285Y-38390533D01*
X48744285Y-38390533D02*
X48791904Y-38533390D01*
X48791904Y-38533390D02*
X49363332Y-39104819D01*
X49363332Y-39104819D02*
X48744285Y-39104819D01*
X49696666Y-22904819D02*
X50029999Y-22428628D01*
X50268094Y-22904819D02*
X50268094Y-21904819D01*
X50268094Y-21904819D02*
X49887142Y-21904819D01*
X49887142Y-21904819D02*
X49791904Y-21952438D01*
X49791904Y-21952438D02*
X49744285Y-22000057D01*
X49744285Y-22000057D02*
X49696666Y-22095295D01*
X49696666Y-22095295D02*
X49696666Y-22238152D01*
X49696666Y-22238152D02*
X49744285Y-22333390D01*
X49744285Y-22333390D02*
X49791904Y-22381009D01*
X49791904Y-22381009D02*
X49887142Y-22428628D01*
X49887142Y-22428628D02*
X50268094Y-22428628D01*
X48839523Y-21904819D02*
X49029999Y-21904819D01*
X49029999Y-21904819D02*
X49125237Y-21952438D01*
X49125237Y-21952438D02*
X49172856Y-22000057D01*
X49172856Y-22000057D02*
X49268094Y-22142914D01*
X49268094Y-22142914D02*
X49315713Y-22333390D01*
X49315713Y-22333390D02*
X49315713Y-22714342D01*
X49315713Y-22714342D02*
X49268094Y-22809580D01*
X49268094Y-22809580D02*
X49220475Y-22857200D01*
X49220475Y-22857200D02*
X49125237Y-22904819D01*
X49125237Y-22904819D02*
X48934761Y-22904819D01*
X48934761Y-22904819D02*
X48839523Y-22857200D01*
X48839523Y-22857200D02*
X48791904Y-22809580D01*
X48791904Y-22809580D02*
X48744285Y-22714342D01*
X48744285Y-22714342D02*
X48744285Y-22476247D01*
X48744285Y-22476247D02*
X48791904Y-22381009D01*
X48791904Y-22381009D02*
X48839523Y-22333390D01*
X48839523Y-22333390D02*
X48934761Y-22285771D01*
X48934761Y-22285771D02*
X49125237Y-22285771D01*
X49125237Y-22285771D02*
X49220475Y-22333390D01*
X49220475Y-22333390D02*
X49268094Y-22381009D01*
X49268094Y-22381009D02*
X49315713Y-22476247D01*
X49696666Y-14804819D02*
X50029999Y-14328628D01*
X50268094Y-14804819D02*
X50268094Y-13804819D01*
X50268094Y-13804819D02*
X49887142Y-13804819D01*
X49887142Y-13804819D02*
X49791904Y-13852438D01*
X49791904Y-13852438D02*
X49744285Y-13900057D01*
X49744285Y-13900057D02*
X49696666Y-13995295D01*
X49696666Y-13995295D02*
X49696666Y-14138152D01*
X49696666Y-14138152D02*
X49744285Y-14233390D01*
X49744285Y-14233390D02*
X49791904Y-14281009D01*
X49791904Y-14281009D02*
X49887142Y-14328628D01*
X49887142Y-14328628D02*
X50268094Y-14328628D01*
X49125237Y-14233390D02*
X49220475Y-14185771D01*
X49220475Y-14185771D02*
X49268094Y-14138152D01*
X49268094Y-14138152D02*
X49315713Y-14042914D01*
X49315713Y-14042914D02*
X49315713Y-13995295D01*
X49315713Y-13995295D02*
X49268094Y-13900057D01*
X49268094Y-13900057D02*
X49220475Y-13852438D01*
X49220475Y-13852438D02*
X49125237Y-13804819D01*
X49125237Y-13804819D02*
X48934761Y-13804819D01*
X48934761Y-13804819D02*
X48839523Y-13852438D01*
X48839523Y-13852438D02*
X48791904Y-13900057D01*
X48791904Y-13900057D02*
X48744285Y-13995295D01*
X48744285Y-13995295D02*
X48744285Y-14042914D01*
X48744285Y-14042914D02*
X48791904Y-14138152D01*
X48791904Y-14138152D02*
X48839523Y-14185771D01*
X48839523Y-14185771D02*
X48934761Y-14233390D01*
X48934761Y-14233390D02*
X49125237Y-14233390D01*
X49125237Y-14233390D02*
X49220475Y-14281009D01*
X49220475Y-14281009D02*
X49268094Y-14328628D01*
X49268094Y-14328628D02*
X49315713Y-14423866D01*
X49315713Y-14423866D02*
X49315713Y-14614342D01*
X49315713Y-14614342D02*
X49268094Y-14709580D01*
X49268094Y-14709580D02*
X49220475Y-14757200D01*
X49220475Y-14757200D02*
X49125237Y-14804819D01*
X49125237Y-14804819D02*
X48934761Y-14804819D01*
X48934761Y-14804819D02*
X48839523Y-14757200D01*
X48839523Y-14757200D02*
X48791904Y-14709580D01*
X48791904Y-14709580D02*
X48744285Y-14614342D01*
X48744285Y-14614342D02*
X48744285Y-14423866D01*
X48744285Y-14423866D02*
X48791904Y-14328628D01*
X48791904Y-14328628D02*
X48839523Y-14281009D01*
X48839523Y-14281009D02*
X48934761Y-14233390D01*
X49696666Y-43154819D02*
X50029999Y-42678628D01*
X50268094Y-43154819D02*
X50268094Y-42154819D01*
X50268094Y-42154819D02*
X49887142Y-42154819D01*
X49887142Y-42154819D02*
X49791904Y-42202438D01*
X49791904Y-42202438D02*
X49744285Y-42250057D01*
X49744285Y-42250057D02*
X49696666Y-42345295D01*
X49696666Y-42345295D02*
X49696666Y-42488152D01*
X49696666Y-42488152D02*
X49744285Y-42583390D01*
X49744285Y-42583390D02*
X49791904Y-42631009D01*
X49791904Y-42631009D02*
X49887142Y-42678628D01*
X49887142Y-42678628D02*
X50268094Y-42678628D01*
X48744285Y-43154819D02*
X49315713Y-43154819D01*
X49029999Y-43154819D02*
X49029999Y-42154819D01*
X49029999Y-42154819D02*
X49125237Y-42297676D01*
X49125237Y-42297676D02*
X49220475Y-42392914D01*
X49220475Y-42392914D02*
X49315713Y-42440533D01*
X49696666Y-35054819D02*
X50029999Y-34578628D01*
X50268094Y-35054819D02*
X50268094Y-34054819D01*
X50268094Y-34054819D02*
X49887142Y-34054819D01*
X49887142Y-34054819D02*
X49791904Y-34102438D01*
X49791904Y-34102438D02*
X49744285Y-34150057D01*
X49744285Y-34150057D02*
X49696666Y-34245295D01*
X49696666Y-34245295D02*
X49696666Y-34388152D01*
X49696666Y-34388152D02*
X49744285Y-34483390D01*
X49744285Y-34483390D02*
X49791904Y-34531009D01*
X49791904Y-34531009D02*
X49887142Y-34578628D01*
X49887142Y-34578628D02*
X50268094Y-34578628D01*
X49363332Y-34054819D02*
X48744285Y-34054819D01*
X48744285Y-34054819D02*
X49077618Y-34435771D01*
X49077618Y-34435771D02*
X48934761Y-34435771D01*
X48934761Y-34435771D02*
X48839523Y-34483390D01*
X48839523Y-34483390D02*
X48791904Y-34531009D01*
X48791904Y-34531009D02*
X48744285Y-34626247D01*
X48744285Y-34626247D02*
X48744285Y-34864342D01*
X48744285Y-34864342D02*
X48791904Y-34959580D01*
X48791904Y-34959580D02*
X48839523Y-35007200D01*
X48839523Y-35007200D02*
X48934761Y-35054819D01*
X48934761Y-35054819D02*
X49220475Y-35054819D01*
X49220475Y-35054819D02*
X49315713Y-35007200D01*
X49315713Y-35007200D02*
X49363332Y-34959580D01*
X49696666Y-31004819D02*
X50029999Y-30528628D01*
X50268094Y-31004819D02*
X50268094Y-30004819D01*
X50268094Y-30004819D02*
X49887142Y-30004819D01*
X49887142Y-30004819D02*
X49791904Y-30052438D01*
X49791904Y-30052438D02*
X49744285Y-30100057D01*
X49744285Y-30100057D02*
X49696666Y-30195295D01*
X49696666Y-30195295D02*
X49696666Y-30338152D01*
X49696666Y-30338152D02*
X49744285Y-30433390D01*
X49744285Y-30433390D02*
X49791904Y-30481009D01*
X49791904Y-30481009D02*
X49887142Y-30528628D01*
X49887142Y-30528628D02*
X50268094Y-30528628D01*
X48839523Y-30338152D02*
X48839523Y-31004819D01*
X49077618Y-29957200D02*
X49315713Y-30671485D01*
X49315713Y-30671485D02*
X48696666Y-30671485D01*
X49696666Y-26954819D02*
X50029999Y-26478628D01*
X50268094Y-26954819D02*
X50268094Y-25954819D01*
X50268094Y-25954819D02*
X49887142Y-25954819D01*
X49887142Y-25954819D02*
X49791904Y-26002438D01*
X49791904Y-26002438D02*
X49744285Y-26050057D01*
X49744285Y-26050057D02*
X49696666Y-26145295D01*
X49696666Y-26145295D02*
X49696666Y-26288152D01*
X49696666Y-26288152D02*
X49744285Y-26383390D01*
X49744285Y-26383390D02*
X49791904Y-26431009D01*
X49791904Y-26431009D02*
X49887142Y-26478628D01*
X49887142Y-26478628D02*
X50268094Y-26478628D01*
X48791904Y-25954819D02*
X49268094Y-25954819D01*
X49268094Y-25954819D02*
X49315713Y-26431009D01*
X49315713Y-26431009D02*
X49268094Y-26383390D01*
X49268094Y-26383390D02*
X49172856Y-26335771D01*
X49172856Y-26335771D02*
X48934761Y-26335771D01*
X48934761Y-26335771D02*
X48839523Y-26383390D01*
X48839523Y-26383390D02*
X48791904Y-26431009D01*
X48791904Y-26431009D02*
X48744285Y-26526247D01*
X48744285Y-26526247D02*
X48744285Y-26764342D01*
X48744285Y-26764342D02*
X48791904Y-26859580D01*
X48791904Y-26859580D02*
X48839523Y-26907200D01*
X48839523Y-26907200D02*
X48934761Y-26954819D01*
X48934761Y-26954819D02*
X49172856Y-26954819D01*
X49172856Y-26954819D02*
X49268094Y-26907200D01*
X49268094Y-26907200D02*
X49315713Y-26859580D01*
X49696666Y-18854819D02*
X50029999Y-18378628D01*
X50268094Y-18854819D02*
X50268094Y-17854819D01*
X50268094Y-17854819D02*
X49887142Y-17854819D01*
X49887142Y-17854819D02*
X49791904Y-17902438D01*
X49791904Y-17902438D02*
X49744285Y-17950057D01*
X49744285Y-17950057D02*
X49696666Y-18045295D01*
X49696666Y-18045295D02*
X49696666Y-18188152D01*
X49696666Y-18188152D02*
X49744285Y-18283390D01*
X49744285Y-18283390D02*
X49791904Y-18331009D01*
X49791904Y-18331009D02*
X49887142Y-18378628D01*
X49887142Y-18378628D02*
X50268094Y-18378628D01*
X49363332Y-17854819D02*
X48696666Y-17854819D01*
X48696666Y-17854819D02*
X49125237Y-18854819D01*
X49696666Y-10754819D02*
X50029999Y-10278628D01*
X50268094Y-10754819D02*
X50268094Y-9754819D01*
X50268094Y-9754819D02*
X49887142Y-9754819D01*
X49887142Y-9754819D02*
X49791904Y-9802438D01*
X49791904Y-9802438D02*
X49744285Y-9850057D01*
X49744285Y-9850057D02*
X49696666Y-9945295D01*
X49696666Y-9945295D02*
X49696666Y-10088152D01*
X49696666Y-10088152D02*
X49744285Y-10183390D01*
X49744285Y-10183390D02*
X49791904Y-10231009D01*
X49791904Y-10231009D02*
X49887142Y-10278628D01*
X49887142Y-10278628D02*
X50268094Y-10278628D01*
X49220475Y-10754819D02*
X49029999Y-10754819D01*
X49029999Y-10754819D02*
X48934761Y-10707200D01*
X48934761Y-10707200D02*
X48887142Y-10659580D01*
X48887142Y-10659580D02*
X48791904Y-10516723D01*
X48791904Y-10516723D02*
X48744285Y-10326247D01*
X48744285Y-10326247D02*
X48744285Y-9945295D01*
X48744285Y-9945295D02*
X48791904Y-9850057D01*
X48791904Y-9850057D02*
X48839523Y-9802438D01*
X48839523Y-9802438D02*
X48934761Y-9754819D01*
X48934761Y-9754819D02*
X49125237Y-9754819D01*
X49125237Y-9754819D02*
X49220475Y-9802438D01*
X49220475Y-9802438D02*
X49268094Y-9850057D01*
X49268094Y-9850057D02*
X49315713Y-9945295D01*
X49315713Y-9945295D02*
X49315713Y-10183390D01*
X49315713Y-10183390D02*
X49268094Y-10278628D01*
X49268094Y-10278628D02*
X49220475Y-10326247D01*
X49220475Y-10326247D02*
X49125237Y-10373866D01*
X49125237Y-10373866D02*
X48934761Y-10373866D01*
X48934761Y-10373866D02*
X48839523Y-10326247D01*
X48839523Y-10326247D02*
X48791904Y-10278628D01*
X48791904Y-10278628D02*
X48744285Y-10183390D01*
X50172857Y-6704819D02*
X50506190Y-6228628D01*
X50744285Y-6704819D02*
X50744285Y-5704819D01*
X50744285Y-5704819D02*
X50363333Y-5704819D01*
X50363333Y-5704819D02*
X50268095Y-5752438D01*
X50268095Y-5752438D02*
X50220476Y-5800057D01*
X50220476Y-5800057D02*
X50172857Y-5895295D01*
X50172857Y-5895295D02*
X50172857Y-6038152D01*
X50172857Y-6038152D02*
X50220476Y-6133390D01*
X50220476Y-6133390D02*
X50268095Y-6181009D01*
X50268095Y-6181009D02*
X50363333Y-6228628D01*
X50363333Y-6228628D02*
X50744285Y-6228628D01*
X49220476Y-6704819D02*
X49791904Y-6704819D01*
X49506190Y-6704819D02*
X49506190Y-5704819D01*
X49506190Y-5704819D02*
X49601428Y-5847676D01*
X49601428Y-5847676D02*
X49696666Y-5942914D01*
X49696666Y-5942914D02*
X49791904Y-5990533D01*
X48601428Y-5704819D02*
X48506190Y-5704819D01*
X48506190Y-5704819D02*
X48410952Y-5752438D01*
X48410952Y-5752438D02*
X48363333Y-5800057D01*
X48363333Y-5800057D02*
X48315714Y-5895295D01*
X48315714Y-5895295D02*
X48268095Y-6085771D01*
X48268095Y-6085771D02*
X48268095Y-6323866D01*
X48268095Y-6323866D02*
X48315714Y-6514342D01*
X48315714Y-6514342D02*
X48363333Y-6609580D01*
X48363333Y-6609580D02*
X48410952Y-6657200D01*
X48410952Y-6657200D02*
X48506190Y-6704819D01*
X48506190Y-6704819D02*
X48601428Y-6704819D01*
X48601428Y-6704819D02*
X48696666Y-6657200D01*
X48696666Y-6657200D02*
X48744285Y-6609580D01*
X48744285Y-6609580D02*
X48791904Y-6514342D01*
X48791904Y-6514342D02*
X48839523Y-6323866D01*
X48839523Y-6323866D02*
X48839523Y-6085771D01*
X48839523Y-6085771D02*
X48791904Y-5895295D01*
X48791904Y-5895295D02*
X48744285Y-5800057D01*
X48744285Y-5800057D02*
X48696666Y-5752438D01*
X48696666Y-5752438D02*
X48601428Y-5704819D01*
X32839819Y-31414405D02*
X31839819Y-31414405D01*
X31839819Y-31414405D02*
X31839819Y-31652500D01*
X31839819Y-31652500D02*
X31887438Y-31795357D01*
X31887438Y-31795357D02*
X31982676Y-31890595D01*
X31982676Y-31890595D02*
X32077914Y-31938214D01*
X32077914Y-31938214D02*
X32268390Y-31985833D01*
X32268390Y-31985833D02*
X32411247Y-31985833D01*
X32411247Y-31985833D02*
X32601723Y-31938214D01*
X32601723Y-31938214D02*
X32696961Y-31890595D01*
X32696961Y-31890595D02*
X32792200Y-31795357D01*
X32792200Y-31795357D02*
X32839819Y-31652500D01*
X32839819Y-31652500D02*
X32839819Y-31414405D01*
X31839819Y-32604881D02*
X31839819Y-32700119D01*
X31839819Y-32700119D02*
X31887438Y-32795357D01*
X31887438Y-32795357D02*
X31935057Y-32842976D01*
X31935057Y-32842976D02*
X32030295Y-32890595D01*
X32030295Y-32890595D02*
X32220771Y-32938214D01*
X32220771Y-32938214D02*
X32458866Y-32938214D01*
X32458866Y-32938214D02*
X32649342Y-32890595D01*
X32649342Y-32890595D02*
X32744580Y-32842976D01*
X32744580Y-32842976D02*
X32792200Y-32795357D01*
X32792200Y-32795357D02*
X32839819Y-32700119D01*
X32839819Y-32700119D02*
X32839819Y-32604881D01*
X32839819Y-32604881D02*
X32792200Y-32509643D01*
X32792200Y-32509643D02*
X32744580Y-32462024D01*
X32744580Y-32462024D02*
X32649342Y-32414405D01*
X32649342Y-32414405D02*
X32458866Y-32366786D01*
X32458866Y-32366786D02*
X32220771Y-32366786D01*
X32220771Y-32366786D02*
X32030295Y-32414405D01*
X32030295Y-32414405D02*
X31935057Y-32462024D01*
X31935057Y-32462024D02*
X31887438Y-32509643D01*
X31887438Y-32509643D02*
X31839819Y-32604881D01*
X64033333Y-37193509D02*
X63890476Y-37241128D01*
X63890476Y-37241128D02*
X63842857Y-37288747D01*
X63842857Y-37288747D02*
X63795238Y-37383985D01*
X63795238Y-37383985D02*
X63795238Y-37526842D01*
X63795238Y-37526842D02*
X63842857Y-37622080D01*
X63842857Y-37622080D02*
X63890476Y-37669700D01*
X63890476Y-37669700D02*
X63985714Y-37717319D01*
X63985714Y-37717319D02*
X64366666Y-37717319D01*
X64366666Y-37717319D02*
X64366666Y-36717319D01*
X64366666Y-36717319D02*
X64033333Y-36717319D01*
X64033333Y-36717319D02*
X63938095Y-36764938D01*
X63938095Y-36764938D02*
X63890476Y-36812557D01*
X63890476Y-36812557D02*
X63842857Y-36907795D01*
X63842857Y-36907795D02*
X63842857Y-37003033D01*
X63842857Y-37003033D02*
X63890476Y-37098271D01*
X63890476Y-37098271D02*
X63938095Y-37145890D01*
X63938095Y-37145890D02*
X64033333Y-37193509D01*
X64033333Y-37193509D02*
X64366666Y-37193509D01*
X63414285Y-37431604D02*
X62938095Y-37431604D01*
X63509523Y-37717319D02*
X63176190Y-36717319D01*
X63176190Y-36717319D02*
X62842857Y-37717319D01*
X61938095Y-37717319D02*
X62271428Y-37241128D01*
X62509523Y-37717319D02*
X62509523Y-36717319D01*
X62509523Y-36717319D02*
X62128571Y-36717319D01*
X62128571Y-36717319D02*
X62033333Y-36764938D01*
X62033333Y-36764938D02*
X61985714Y-36812557D01*
X61985714Y-36812557D02*
X61938095Y-36907795D01*
X61938095Y-36907795D02*
X61938095Y-37050652D01*
X61938095Y-37050652D02*
X61985714Y-37145890D01*
X61985714Y-37145890D02*
X62033333Y-37193509D01*
X62033333Y-37193509D02*
X62128571Y-37241128D01*
X62128571Y-37241128D02*
X62509523Y-37241128D01*
X60985714Y-37717319D02*
X61557142Y-37717319D01*
X61271428Y-37717319D02*
X61271428Y-36717319D01*
X61271428Y-36717319D02*
X61366666Y-36860176D01*
X61366666Y-36860176D02*
X61461904Y-36955414D01*
X61461904Y-36955414D02*
X61557142Y-37003033D01*
%TO.C,R2*%
D11*
X45490000Y-36280000D02*
X46260000Y-36280000D01*
X53570000Y-36280000D02*
X52800000Y-36280000D01*
X46260000Y-34910000D02*
X52800000Y-34910000D01*
X52800000Y-37650000D01*
X46260000Y-37650000D01*
X46260000Y-34910000D01*
%TO.C,R6*%
X45490000Y-20080000D02*
X46260000Y-20080000D01*
X53570000Y-20080000D02*
X52800000Y-20080000D01*
X46260000Y-18710000D02*
X52800000Y-18710000D01*
X52800000Y-21450000D01*
X46260000Y-21450000D01*
X46260000Y-18710000D01*
%TO.C,R8*%
X45490000Y-11980000D02*
X46260000Y-11980000D01*
X53570000Y-11980000D02*
X52800000Y-11980000D01*
X46260000Y-10610000D02*
X52800000Y-10610000D01*
X52800000Y-13350000D01*
X46260000Y-13350000D01*
X46260000Y-10610000D01*
%TO.C,R1*%
X45490000Y-40330000D02*
X46260000Y-40330000D01*
X53570000Y-40330000D02*
X52800000Y-40330000D01*
X46260000Y-38960000D02*
X52800000Y-38960000D01*
X52800000Y-41700000D01*
X46260000Y-41700000D01*
X46260000Y-38960000D01*
%TO.C,R3*%
X45490000Y-32230000D02*
X46260000Y-32230000D01*
X53570000Y-32230000D02*
X52800000Y-32230000D01*
X46260000Y-30860000D02*
X52800000Y-30860000D01*
X52800000Y-33600000D01*
X46260000Y-33600000D01*
X46260000Y-30860000D01*
%TO.C,R4*%
X45490000Y-28180000D02*
X46260000Y-28180000D01*
X53570000Y-28180000D02*
X52800000Y-28180000D01*
X46260000Y-26810000D02*
X52800000Y-26810000D01*
X52800000Y-29550000D01*
X46260000Y-29550000D01*
X46260000Y-26810000D01*
%TO.C,R5*%
X45490000Y-24130000D02*
X46260000Y-24130000D01*
X53570000Y-24130000D02*
X52800000Y-24130000D01*
X46260000Y-22760000D02*
X52800000Y-22760000D01*
X52800000Y-25500000D01*
X46260000Y-25500000D01*
X46260000Y-22760000D01*
%TO.C,R7*%
X45490000Y-16030000D02*
X46260000Y-16030000D01*
X53570000Y-16030000D02*
X52800000Y-16030000D01*
X46260000Y-14660000D02*
X52800000Y-14660000D01*
X52800000Y-17400000D01*
X46260000Y-17400000D01*
X46260000Y-14660000D01*
%TO.C,R9*%
X45490000Y-7930000D02*
X46260000Y-7930000D01*
X53570000Y-7930000D02*
X52800000Y-7930000D01*
X46260000Y-6560000D02*
X52800000Y-6560000D01*
X52800000Y-9300000D01*
X46260000Y-9300000D01*
X46260000Y-6560000D01*
%TO.C,R10*%
X45490000Y-3880000D02*
X46260000Y-3880000D01*
X53570000Y-3880000D02*
X52800000Y-3880000D01*
X46260000Y-2510000D02*
X52800000Y-2510000D01*
X52800000Y-5250000D01*
X46260000Y-5250000D01*
X46260000Y-2510000D01*
%TO.C,BAR1*%
X71260000Y-10582500D02*
X60820000Y-10582500D01*
X71260000Y-36262500D02*
X71260000Y-10582500D01*
X62230000Y-36552500D02*
X60530000Y-36552500D01*
X60820000Y-10582500D02*
X60820000Y-36262500D01*
X60820000Y-36262500D02*
X71260000Y-36262500D01*
X60530000Y-36552500D02*
X60530000Y-34852500D01*
%TD*%
M02*
