%TF.GenerationSoftware,KiCad,Pcbnew,10.0.0*%
%TF.CreationDate,2026-05-04T01:19:31+02:00*%
%TF.ProjectId,Geiger_Simulator,47656967-6572-45f5-9369-6d756c61746f,rev?*%
%TF.SameCoordinates,Original*%
%TF.FileFunction,Legend,Top*%
%TF.FilePolarity,Positive*%
%FSLAX46Y46*%
G04 Gerber Fmt 4.6, Leading zero omitted, Abs format (unit mm)*
G04 Created by KiCad (PCBNEW 10.0.0) date 2026-05-04 01:19:31*
%MOMM*%
%LPD*%
G01*
G04 APERTURE LIST*
%ADD10C,0.100000*%
%ADD11C,0.300000*%
%ADD12C,0.150000*%
%ADD13C,0.080000*%
%ADD14C,0.120000*%
G04 APERTURE END LIST*
D10*
X12494360Y-42872419D02*
X12589598Y-42872419D01*
X12589598Y-42872419D02*
X12684836Y-42920038D01*
X12684836Y-42920038D02*
X12732455Y-42967657D01*
X12732455Y-42967657D02*
X12780074Y-43062895D01*
X12780074Y-43062895D02*
X12827693Y-43253371D01*
X12827693Y-43253371D02*
X12827693Y-43491466D01*
X12827693Y-43491466D02*
X12780074Y-43681942D01*
X12780074Y-43681942D02*
X12732455Y-43777180D01*
X12732455Y-43777180D02*
X12684836Y-43824800D01*
X12684836Y-43824800D02*
X12589598Y-43872419D01*
X12589598Y-43872419D02*
X12494360Y-43872419D01*
X12494360Y-43872419D02*
X12399122Y-43824800D01*
X12399122Y-43824800D02*
X12351503Y-43777180D01*
X12351503Y-43777180D02*
X12303884Y-43681942D01*
X12303884Y-43681942D02*
X12256265Y-43491466D01*
X12256265Y-43491466D02*
X12256265Y-43253371D01*
X12256265Y-43253371D02*
X12303884Y-43062895D01*
X12303884Y-43062895D02*
X12351503Y-42967657D01*
X12351503Y-42967657D02*
X12399122Y-42920038D01*
X12399122Y-42920038D02*
X12494360Y-42872419D01*
X13684836Y-43205752D02*
X13684836Y-43872419D01*
X13446741Y-42824800D02*
X13208646Y-43539085D01*
X13208646Y-43539085D02*
X13827693Y-43539085D01*
X14208646Y-43777180D02*
X14256265Y-43824800D01*
X14256265Y-43824800D02*
X14208646Y-43872419D01*
X14208646Y-43872419D02*
X14161027Y-43824800D01*
X14161027Y-43824800D02*
X14208646Y-43777180D01*
X14208646Y-43777180D02*
X14208646Y-43872419D01*
X14875312Y-42872419D02*
X14970550Y-42872419D01*
X14970550Y-42872419D02*
X15065788Y-42920038D01*
X15065788Y-42920038D02*
X15113407Y-42967657D01*
X15113407Y-42967657D02*
X15161026Y-43062895D01*
X15161026Y-43062895D02*
X15208645Y-43253371D01*
X15208645Y-43253371D02*
X15208645Y-43491466D01*
X15208645Y-43491466D02*
X15161026Y-43681942D01*
X15161026Y-43681942D02*
X15113407Y-43777180D01*
X15113407Y-43777180D02*
X15065788Y-43824800D01*
X15065788Y-43824800D02*
X14970550Y-43872419D01*
X14970550Y-43872419D02*
X14875312Y-43872419D01*
X14875312Y-43872419D02*
X14780074Y-43824800D01*
X14780074Y-43824800D02*
X14732455Y-43777180D01*
X14732455Y-43777180D02*
X14684836Y-43681942D01*
X14684836Y-43681942D02*
X14637217Y-43491466D01*
X14637217Y-43491466D02*
X14637217Y-43253371D01*
X14637217Y-43253371D02*
X14684836Y-43062895D01*
X14684836Y-43062895D02*
X14732455Y-42967657D01*
X14732455Y-42967657D02*
X14780074Y-42920038D01*
X14780074Y-42920038D02*
X14875312Y-42872419D01*
X16113407Y-42872419D02*
X15637217Y-42872419D01*
X15637217Y-42872419D02*
X15589598Y-43348609D01*
X15589598Y-43348609D02*
X15637217Y-43300990D01*
X15637217Y-43300990D02*
X15732455Y-43253371D01*
X15732455Y-43253371D02*
X15970550Y-43253371D01*
X15970550Y-43253371D02*
X16065788Y-43300990D01*
X16065788Y-43300990D02*
X16113407Y-43348609D01*
X16113407Y-43348609D02*
X16161026Y-43443847D01*
X16161026Y-43443847D02*
X16161026Y-43681942D01*
X16161026Y-43681942D02*
X16113407Y-43777180D01*
X16113407Y-43777180D02*
X16065788Y-43824800D01*
X16065788Y-43824800D02*
X15970550Y-43872419D01*
X15970550Y-43872419D02*
X15732455Y-43872419D01*
X15732455Y-43872419D02*
X15637217Y-43824800D01*
X15637217Y-43824800D02*
X15589598Y-43777180D01*
X16589598Y-43777180D02*
X16637217Y-43824800D01*
X16637217Y-43824800D02*
X16589598Y-43872419D01*
X16589598Y-43872419D02*
X16541979Y-43824800D01*
X16541979Y-43824800D02*
X16589598Y-43777180D01*
X16589598Y-43777180D02*
X16589598Y-43872419D01*
X17018169Y-42967657D02*
X17065788Y-42920038D01*
X17065788Y-42920038D02*
X17161026Y-42872419D01*
X17161026Y-42872419D02*
X17399121Y-42872419D01*
X17399121Y-42872419D02*
X17494359Y-42920038D01*
X17494359Y-42920038D02*
X17541978Y-42967657D01*
X17541978Y-42967657D02*
X17589597Y-43062895D01*
X17589597Y-43062895D02*
X17589597Y-43158133D01*
X17589597Y-43158133D02*
X17541978Y-43300990D01*
X17541978Y-43300990D02*
X16970550Y-43872419D01*
X16970550Y-43872419D02*
X17589597Y-43872419D01*
X18208645Y-42872419D02*
X18303883Y-42872419D01*
X18303883Y-42872419D02*
X18399121Y-42920038D01*
X18399121Y-42920038D02*
X18446740Y-42967657D01*
X18446740Y-42967657D02*
X18494359Y-43062895D01*
X18494359Y-43062895D02*
X18541978Y-43253371D01*
X18541978Y-43253371D02*
X18541978Y-43491466D01*
X18541978Y-43491466D02*
X18494359Y-43681942D01*
X18494359Y-43681942D02*
X18446740Y-43777180D01*
X18446740Y-43777180D02*
X18399121Y-43824800D01*
X18399121Y-43824800D02*
X18303883Y-43872419D01*
X18303883Y-43872419D02*
X18208645Y-43872419D01*
X18208645Y-43872419D02*
X18113407Y-43824800D01*
X18113407Y-43824800D02*
X18065788Y-43777180D01*
X18065788Y-43777180D02*
X18018169Y-43681942D01*
X18018169Y-43681942D02*
X17970550Y-43491466D01*
X17970550Y-43491466D02*
X17970550Y-43253371D01*
X17970550Y-43253371D02*
X18018169Y-43062895D01*
X18018169Y-43062895D02*
X18065788Y-42967657D01*
X18065788Y-42967657D02*
X18113407Y-42920038D01*
X18113407Y-42920038D02*
X18208645Y-42872419D01*
X18922931Y-42967657D02*
X18970550Y-42920038D01*
X18970550Y-42920038D02*
X19065788Y-42872419D01*
X19065788Y-42872419D02*
X19303883Y-42872419D01*
X19303883Y-42872419D02*
X19399121Y-42920038D01*
X19399121Y-42920038D02*
X19446740Y-42967657D01*
X19446740Y-42967657D02*
X19494359Y-43062895D01*
X19494359Y-43062895D02*
X19494359Y-43158133D01*
X19494359Y-43158133D02*
X19446740Y-43300990D01*
X19446740Y-43300990D02*
X18875312Y-43872419D01*
X18875312Y-43872419D02*
X19494359Y-43872419D01*
X20351502Y-42872419D02*
X20161026Y-42872419D01*
X20161026Y-42872419D02*
X20065788Y-42920038D01*
X20065788Y-42920038D02*
X20018169Y-42967657D01*
X20018169Y-42967657D02*
X19922931Y-43110514D01*
X19922931Y-43110514D02*
X19875312Y-43300990D01*
X19875312Y-43300990D02*
X19875312Y-43681942D01*
X19875312Y-43681942D02*
X19922931Y-43777180D01*
X19922931Y-43777180D02*
X19970550Y-43824800D01*
X19970550Y-43824800D02*
X20065788Y-43872419D01*
X20065788Y-43872419D02*
X20256264Y-43872419D01*
X20256264Y-43872419D02*
X20351502Y-43824800D01*
X20351502Y-43824800D02*
X20399121Y-43777180D01*
X20399121Y-43777180D02*
X20446740Y-43681942D01*
X20446740Y-43681942D02*
X20446740Y-43443847D01*
X20446740Y-43443847D02*
X20399121Y-43348609D01*
X20399121Y-43348609D02*
X20351502Y-43300990D01*
X20351502Y-43300990D02*
X20256264Y-43253371D01*
X20256264Y-43253371D02*
X20065788Y-43253371D01*
X20065788Y-43253371D02*
X19970550Y-43300990D01*
X19970550Y-43300990D02*
X19922931Y-43348609D01*
X19922931Y-43348609D02*
X19875312Y-43443847D01*
D11*
X14340225Y-1372257D02*
X14197368Y-1300828D01*
X14197368Y-1300828D02*
X13983082Y-1300828D01*
X13983082Y-1300828D02*
X13768796Y-1372257D01*
X13768796Y-1372257D02*
X13625939Y-1515114D01*
X13625939Y-1515114D02*
X13554510Y-1657971D01*
X13554510Y-1657971D02*
X13483082Y-1943685D01*
X13483082Y-1943685D02*
X13483082Y-2157971D01*
X13483082Y-2157971D02*
X13554510Y-2443685D01*
X13554510Y-2443685D02*
X13625939Y-2586542D01*
X13625939Y-2586542D02*
X13768796Y-2729400D01*
X13768796Y-2729400D02*
X13983082Y-2800828D01*
X13983082Y-2800828D02*
X14125939Y-2800828D01*
X14125939Y-2800828D02*
X14340225Y-2729400D01*
X14340225Y-2729400D02*
X14411653Y-2657971D01*
X14411653Y-2657971D02*
X14411653Y-2157971D01*
X14411653Y-2157971D02*
X14125939Y-2157971D01*
X15625939Y-2729400D02*
X15483082Y-2800828D01*
X15483082Y-2800828D02*
X15197368Y-2800828D01*
X15197368Y-2800828D02*
X15054510Y-2729400D01*
X15054510Y-2729400D02*
X14983082Y-2586542D01*
X14983082Y-2586542D02*
X14983082Y-2015114D01*
X14983082Y-2015114D02*
X15054510Y-1872257D01*
X15054510Y-1872257D02*
X15197368Y-1800828D01*
X15197368Y-1800828D02*
X15483082Y-1800828D01*
X15483082Y-1800828D02*
X15625939Y-1872257D01*
X15625939Y-1872257D02*
X15697368Y-2015114D01*
X15697368Y-2015114D02*
X15697368Y-2157971D01*
X15697368Y-2157971D02*
X14983082Y-2300828D01*
X16340224Y-2800828D02*
X16340224Y-1800828D01*
X16340224Y-1300828D02*
X16268796Y-1372257D01*
X16268796Y-1372257D02*
X16340224Y-1443685D01*
X16340224Y-1443685D02*
X16411653Y-1372257D01*
X16411653Y-1372257D02*
X16340224Y-1300828D01*
X16340224Y-1300828D02*
X16340224Y-1443685D01*
X17697368Y-1800828D02*
X17697368Y-3015114D01*
X17697368Y-3015114D02*
X17625939Y-3157971D01*
X17625939Y-3157971D02*
X17554510Y-3229400D01*
X17554510Y-3229400D02*
X17411653Y-3300828D01*
X17411653Y-3300828D02*
X17197368Y-3300828D01*
X17197368Y-3300828D02*
X17054510Y-3229400D01*
X17697368Y-2729400D02*
X17554510Y-2800828D01*
X17554510Y-2800828D02*
X17268796Y-2800828D01*
X17268796Y-2800828D02*
X17125939Y-2729400D01*
X17125939Y-2729400D02*
X17054510Y-2657971D01*
X17054510Y-2657971D02*
X16983082Y-2515114D01*
X16983082Y-2515114D02*
X16983082Y-2086542D01*
X16983082Y-2086542D02*
X17054510Y-1943685D01*
X17054510Y-1943685D02*
X17125939Y-1872257D01*
X17125939Y-1872257D02*
X17268796Y-1800828D01*
X17268796Y-1800828D02*
X17554510Y-1800828D01*
X17554510Y-1800828D02*
X17697368Y-1872257D01*
X18983082Y-2729400D02*
X18840225Y-2800828D01*
X18840225Y-2800828D02*
X18554511Y-2800828D01*
X18554511Y-2800828D02*
X18411653Y-2729400D01*
X18411653Y-2729400D02*
X18340225Y-2586542D01*
X18340225Y-2586542D02*
X18340225Y-2015114D01*
X18340225Y-2015114D02*
X18411653Y-1872257D01*
X18411653Y-1872257D02*
X18554511Y-1800828D01*
X18554511Y-1800828D02*
X18840225Y-1800828D01*
X18840225Y-1800828D02*
X18983082Y-1872257D01*
X18983082Y-1872257D02*
X19054511Y-2015114D01*
X19054511Y-2015114D02*
X19054511Y-2157971D01*
X19054511Y-2157971D02*
X18340225Y-2300828D01*
X19697367Y-2800828D02*
X19697367Y-1800828D01*
X19697367Y-2086542D02*
X19768796Y-1943685D01*
X19768796Y-1943685D02*
X19840225Y-1872257D01*
X19840225Y-1872257D02*
X19983082Y-1800828D01*
X19983082Y-1800828D02*
X20125939Y-1800828D01*
X20268796Y-2943685D02*
X21411653Y-2943685D01*
X21697367Y-2729400D02*
X21911653Y-2800828D01*
X21911653Y-2800828D02*
X22268795Y-2800828D01*
X22268795Y-2800828D02*
X22411653Y-2729400D01*
X22411653Y-2729400D02*
X22483081Y-2657971D01*
X22483081Y-2657971D02*
X22554510Y-2515114D01*
X22554510Y-2515114D02*
X22554510Y-2372257D01*
X22554510Y-2372257D02*
X22483081Y-2229400D01*
X22483081Y-2229400D02*
X22411653Y-2157971D01*
X22411653Y-2157971D02*
X22268795Y-2086542D01*
X22268795Y-2086542D02*
X21983081Y-2015114D01*
X21983081Y-2015114D02*
X21840224Y-1943685D01*
X21840224Y-1943685D02*
X21768795Y-1872257D01*
X21768795Y-1872257D02*
X21697367Y-1729400D01*
X21697367Y-1729400D02*
X21697367Y-1586542D01*
X21697367Y-1586542D02*
X21768795Y-1443685D01*
X21768795Y-1443685D02*
X21840224Y-1372257D01*
X21840224Y-1372257D02*
X21983081Y-1300828D01*
X21983081Y-1300828D02*
X22340224Y-1300828D01*
X22340224Y-1300828D02*
X22554510Y-1372257D01*
X23197366Y-2800828D02*
X23197366Y-1800828D01*
X23197366Y-1300828D02*
X23125938Y-1372257D01*
X23125938Y-1372257D02*
X23197366Y-1443685D01*
X23197366Y-1443685D02*
X23268795Y-1372257D01*
X23268795Y-1372257D02*
X23197366Y-1300828D01*
X23197366Y-1300828D02*
X23197366Y-1443685D01*
X23911652Y-2800828D02*
X23911652Y-1800828D01*
X23911652Y-1943685D02*
X23983081Y-1872257D01*
X23983081Y-1872257D02*
X24125938Y-1800828D01*
X24125938Y-1800828D02*
X24340224Y-1800828D01*
X24340224Y-1800828D02*
X24483081Y-1872257D01*
X24483081Y-1872257D02*
X24554510Y-2015114D01*
X24554510Y-2015114D02*
X24554510Y-2800828D01*
X24554510Y-2015114D02*
X24625938Y-1872257D01*
X24625938Y-1872257D02*
X24768795Y-1800828D01*
X24768795Y-1800828D02*
X24983081Y-1800828D01*
X24983081Y-1800828D02*
X25125938Y-1872257D01*
X25125938Y-1872257D02*
X25197367Y-2015114D01*
X25197367Y-2015114D02*
X25197367Y-2800828D01*
X26554510Y-1800828D02*
X26554510Y-2800828D01*
X25911652Y-1800828D02*
X25911652Y-2586542D01*
X25911652Y-2586542D02*
X25983081Y-2729400D01*
X25983081Y-2729400D02*
X26125938Y-2800828D01*
X26125938Y-2800828D02*
X26340224Y-2800828D01*
X26340224Y-2800828D02*
X26483081Y-2729400D01*
X26483081Y-2729400D02*
X26554510Y-2657971D01*
X27483081Y-2800828D02*
X27340224Y-2729400D01*
X27340224Y-2729400D02*
X27268795Y-2586542D01*
X27268795Y-2586542D02*
X27268795Y-1300828D01*
X28697367Y-2800828D02*
X28697367Y-2015114D01*
X28697367Y-2015114D02*
X28625938Y-1872257D01*
X28625938Y-1872257D02*
X28483081Y-1800828D01*
X28483081Y-1800828D02*
X28197367Y-1800828D01*
X28197367Y-1800828D02*
X28054509Y-1872257D01*
X28697367Y-2729400D02*
X28554509Y-2800828D01*
X28554509Y-2800828D02*
X28197367Y-2800828D01*
X28197367Y-2800828D02*
X28054509Y-2729400D01*
X28054509Y-2729400D02*
X27983081Y-2586542D01*
X27983081Y-2586542D02*
X27983081Y-2443685D01*
X27983081Y-2443685D02*
X28054509Y-2300828D01*
X28054509Y-2300828D02*
X28197367Y-2229400D01*
X28197367Y-2229400D02*
X28554509Y-2229400D01*
X28554509Y-2229400D02*
X28697367Y-2157971D01*
X29197367Y-1800828D02*
X29768795Y-1800828D01*
X29411652Y-1300828D02*
X29411652Y-2586542D01*
X29411652Y-2586542D02*
X29483081Y-2729400D01*
X29483081Y-2729400D02*
X29625938Y-2800828D01*
X29625938Y-2800828D02*
X29768795Y-2800828D01*
X30483081Y-2800828D02*
X30340224Y-2729400D01*
X30340224Y-2729400D02*
X30268795Y-2657971D01*
X30268795Y-2657971D02*
X30197367Y-2515114D01*
X30197367Y-2515114D02*
X30197367Y-2086542D01*
X30197367Y-2086542D02*
X30268795Y-1943685D01*
X30268795Y-1943685D02*
X30340224Y-1872257D01*
X30340224Y-1872257D02*
X30483081Y-1800828D01*
X30483081Y-1800828D02*
X30697367Y-1800828D01*
X30697367Y-1800828D02*
X30840224Y-1872257D01*
X30840224Y-1872257D02*
X30911653Y-1943685D01*
X30911653Y-1943685D02*
X30983081Y-2086542D01*
X30983081Y-2086542D02*
X30983081Y-2515114D01*
X30983081Y-2515114D02*
X30911653Y-2657971D01*
X30911653Y-2657971D02*
X30840224Y-2729400D01*
X30840224Y-2729400D02*
X30697367Y-2800828D01*
X30697367Y-2800828D02*
X30483081Y-2800828D01*
X31625938Y-2800828D02*
X31625938Y-1800828D01*
X31625938Y-2086542D02*
X31697367Y-1943685D01*
X31697367Y-1943685D02*
X31768796Y-1872257D01*
X31768796Y-1872257D02*
X31911653Y-1800828D01*
X31911653Y-1800828D02*
X32054510Y-1800828D01*
X32197367Y-2943685D02*
X33340224Y-2943685D01*
X33554509Y-1800828D02*
X33911652Y-2800828D01*
X33911652Y-2800828D02*
X34268795Y-1800828D01*
X35125938Y-1300828D02*
X35268795Y-1300828D01*
X35268795Y-1300828D02*
X35411652Y-1372257D01*
X35411652Y-1372257D02*
X35483081Y-1443685D01*
X35483081Y-1443685D02*
X35554509Y-1586542D01*
X35554509Y-1586542D02*
X35625938Y-1872257D01*
X35625938Y-1872257D02*
X35625938Y-2229400D01*
X35625938Y-2229400D02*
X35554509Y-2515114D01*
X35554509Y-2515114D02*
X35483081Y-2657971D01*
X35483081Y-2657971D02*
X35411652Y-2729400D01*
X35411652Y-2729400D02*
X35268795Y-2800828D01*
X35268795Y-2800828D02*
X35125938Y-2800828D01*
X35125938Y-2800828D02*
X34983081Y-2729400D01*
X34983081Y-2729400D02*
X34911652Y-2657971D01*
X34911652Y-2657971D02*
X34840223Y-2515114D01*
X34840223Y-2515114D02*
X34768795Y-2229400D01*
X34768795Y-2229400D02*
X34768795Y-1872257D01*
X34768795Y-1872257D02*
X34840223Y-1586542D01*
X34840223Y-1586542D02*
X34911652Y-1443685D01*
X34911652Y-1443685D02*
X34983081Y-1372257D01*
X34983081Y-1372257D02*
X35125938Y-1300828D01*
X36268794Y-2657971D02*
X36340223Y-2729400D01*
X36340223Y-2729400D02*
X36268794Y-2800828D01*
X36268794Y-2800828D02*
X36197366Y-2729400D01*
X36197366Y-2729400D02*
X36268794Y-2657971D01*
X36268794Y-2657971D02*
X36268794Y-2800828D01*
X37768795Y-2800828D02*
X36911652Y-2800828D01*
X37340223Y-2800828D02*
X37340223Y-1300828D01*
X37340223Y-1300828D02*
X37197366Y-1515114D01*
X37197366Y-1515114D02*
X37054509Y-1657971D01*
X37054509Y-1657971D02*
X36911652Y-1729400D01*
D12*
X3666666Y-1304819D02*
X3333333Y-828628D01*
X3095238Y-1304819D02*
X3095238Y-304819D01*
X3095238Y-304819D02*
X3476190Y-304819D01*
X3476190Y-304819D02*
X3571428Y-352438D01*
X3571428Y-352438D02*
X3619047Y-400057D01*
X3619047Y-400057D02*
X3666666Y-495295D01*
X3666666Y-495295D02*
X3666666Y-638152D01*
X3666666Y-638152D02*
X3619047Y-733390D01*
X3619047Y-733390D02*
X3571428Y-781009D01*
X3571428Y-781009D02*
X3476190Y-828628D01*
X3476190Y-828628D02*
X3095238Y-828628D01*
X4095238Y-781009D02*
X4428571Y-781009D01*
X4571428Y-1304819D02*
X4095238Y-1304819D01*
X4095238Y-1304819D02*
X4095238Y-304819D01*
X4095238Y-304819D02*
X4571428Y-304819D01*
X5333333Y-781009D02*
X5000000Y-781009D01*
X5000000Y-1304819D02*
X5000000Y-304819D01*
X5000000Y-304819D02*
X5476190Y-304819D01*
X6000000Y-304819D02*
X6000000Y-542914D01*
X5761905Y-447676D02*
X6000000Y-542914D01*
X6000000Y-542914D02*
X6238095Y-447676D01*
X5857143Y-733390D02*
X6000000Y-542914D01*
X6000000Y-542914D02*
X6142857Y-733390D01*
X6761905Y-304819D02*
X6761905Y-542914D01*
X6523810Y-447676D02*
X6761905Y-542914D01*
X6761905Y-542914D02*
X7000000Y-447676D01*
X6619048Y-733390D02*
X6761905Y-542914D01*
X6761905Y-542914D02*
X6904762Y-733390D01*
X68666666Y-1304819D02*
X68333333Y-828628D01*
X68095238Y-1304819D02*
X68095238Y-304819D01*
X68095238Y-304819D02*
X68476190Y-304819D01*
X68476190Y-304819D02*
X68571428Y-352438D01*
X68571428Y-352438D02*
X68619047Y-400057D01*
X68619047Y-400057D02*
X68666666Y-495295D01*
X68666666Y-495295D02*
X68666666Y-638152D01*
X68666666Y-638152D02*
X68619047Y-733390D01*
X68619047Y-733390D02*
X68571428Y-781009D01*
X68571428Y-781009D02*
X68476190Y-828628D01*
X68476190Y-828628D02*
X68095238Y-828628D01*
X69095238Y-781009D02*
X69428571Y-781009D01*
X69571428Y-1304819D02*
X69095238Y-1304819D01*
X69095238Y-1304819D02*
X69095238Y-304819D01*
X69095238Y-304819D02*
X69571428Y-304819D01*
X70333333Y-781009D02*
X70000000Y-781009D01*
X70000000Y-1304819D02*
X70000000Y-304819D01*
X70000000Y-304819D02*
X70476190Y-304819D01*
X71000000Y-304819D02*
X71000000Y-542914D01*
X70761905Y-447676D02*
X71000000Y-542914D01*
X71000000Y-542914D02*
X71238095Y-447676D01*
X70857143Y-733390D02*
X71000000Y-542914D01*
X71000000Y-542914D02*
X71142857Y-733390D01*
X71761905Y-304819D02*
X71761905Y-542914D01*
X71523810Y-447676D02*
X71761905Y-542914D01*
X71761905Y-542914D02*
X72000000Y-447676D01*
X71619048Y-733390D02*
X71761905Y-542914D01*
X71761905Y-542914D02*
X71904762Y-733390D01*
X3666666Y-41304819D02*
X3333333Y-40828628D01*
X3095238Y-41304819D02*
X3095238Y-40304819D01*
X3095238Y-40304819D02*
X3476190Y-40304819D01*
X3476190Y-40304819D02*
X3571428Y-40352438D01*
X3571428Y-40352438D02*
X3619047Y-40400057D01*
X3619047Y-40400057D02*
X3666666Y-40495295D01*
X3666666Y-40495295D02*
X3666666Y-40638152D01*
X3666666Y-40638152D02*
X3619047Y-40733390D01*
X3619047Y-40733390D02*
X3571428Y-40781009D01*
X3571428Y-40781009D02*
X3476190Y-40828628D01*
X3476190Y-40828628D02*
X3095238Y-40828628D01*
X4095238Y-40781009D02*
X4428571Y-40781009D01*
X4571428Y-41304819D02*
X4095238Y-41304819D01*
X4095238Y-41304819D02*
X4095238Y-40304819D01*
X4095238Y-40304819D02*
X4571428Y-40304819D01*
X5333333Y-40781009D02*
X5000000Y-40781009D01*
X5000000Y-41304819D02*
X5000000Y-40304819D01*
X5000000Y-40304819D02*
X5476190Y-40304819D01*
X6000000Y-40304819D02*
X6000000Y-40542914D01*
X5761905Y-40447676D02*
X6000000Y-40542914D01*
X6000000Y-40542914D02*
X6238095Y-40447676D01*
X5857143Y-40733390D02*
X6000000Y-40542914D01*
X6000000Y-40542914D02*
X6142857Y-40733390D01*
X6761905Y-40304819D02*
X6761905Y-40542914D01*
X6523810Y-40447676D02*
X6761905Y-40542914D01*
X6761905Y-40542914D02*
X7000000Y-40447676D01*
X6619048Y-40733390D02*
X6761905Y-40542914D01*
X6761905Y-40542914D02*
X6904762Y-40733390D01*
X68666666Y-41304819D02*
X68333333Y-40828628D01*
X68095238Y-41304819D02*
X68095238Y-40304819D01*
X68095238Y-40304819D02*
X68476190Y-40304819D01*
X68476190Y-40304819D02*
X68571428Y-40352438D01*
X68571428Y-40352438D02*
X68619047Y-40400057D01*
X68619047Y-40400057D02*
X68666666Y-40495295D01*
X68666666Y-40495295D02*
X68666666Y-40638152D01*
X68666666Y-40638152D02*
X68619047Y-40733390D01*
X68619047Y-40733390D02*
X68571428Y-40781009D01*
X68571428Y-40781009D02*
X68476190Y-40828628D01*
X68476190Y-40828628D02*
X68095238Y-40828628D01*
X69095238Y-40781009D02*
X69428571Y-40781009D01*
X69571428Y-41304819D02*
X69095238Y-41304819D01*
X69095238Y-41304819D02*
X69095238Y-40304819D01*
X69095238Y-40304819D02*
X69571428Y-40304819D01*
X70333333Y-40781009D02*
X70000000Y-40781009D01*
X70000000Y-41304819D02*
X70000000Y-40304819D01*
X70000000Y-40304819D02*
X70476190Y-40304819D01*
X71000000Y-40304819D02*
X71000000Y-40542914D01*
X70761905Y-40447676D02*
X71000000Y-40542914D01*
X71000000Y-40542914D02*
X71238095Y-40447676D01*
X70857143Y-40733390D02*
X71000000Y-40542914D01*
X71000000Y-40542914D02*
X71142857Y-40733390D01*
X71761905Y-40304819D02*
X71761905Y-40542914D01*
X71523810Y-40447676D02*
X71761905Y-40542914D01*
X71761905Y-40542914D02*
X72000000Y-40447676D01*
X71619048Y-40733390D02*
X71761905Y-40542914D01*
X71761905Y-40542914D02*
X71904762Y-40733390D01*
X6977142Y-10084819D02*
X6643809Y-9608628D01*
X6405714Y-10084819D02*
X6405714Y-9084819D01*
X6405714Y-9084819D02*
X6786666Y-9084819D01*
X6786666Y-9084819D02*
X6881904Y-9132438D01*
X6881904Y-9132438D02*
X6929523Y-9180057D01*
X6929523Y-9180057D02*
X6977142Y-9275295D01*
X6977142Y-9275295D02*
X6977142Y-9418152D01*
X6977142Y-9418152D02*
X6929523Y-9513390D01*
X6929523Y-9513390D02*
X6881904Y-9561009D01*
X6881904Y-9561009D02*
X6786666Y-9608628D01*
X6786666Y-9608628D02*
X6405714Y-9608628D01*
X7929523Y-10084819D02*
X7358095Y-10084819D01*
X7643809Y-10084819D02*
X7643809Y-9084819D01*
X7643809Y-9084819D02*
X7548571Y-9227676D01*
X7548571Y-9227676D02*
X7453333Y-9322914D01*
X7453333Y-9322914D02*
X7358095Y-9370533D01*
X8881904Y-10084819D02*
X8310476Y-10084819D01*
X8596190Y-10084819D02*
X8596190Y-9084819D01*
X8596190Y-9084819D02*
X8500952Y-9227676D01*
X8500952Y-9227676D02*
X8405714Y-9322914D01*
X8405714Y-9322914D02*
X8310476Y-9370533D01*
X14264819Y-23595238D02*
X13788628Y-23928571D01*
X14264819Y-24166666D02*
X13264819Y-24166666D01*
X13264819Y-24166666D02*
X13264819Y-23785714D01*
X13264819Y-23785714D02*
X13312438Y-23690476D01*
X13312438Y-23690476D02*
X13360057Y-23642857D01*
X13360057Y-23642857D02*
X13455295Y-23595238D01*
X13455295Y-23595238D02*
X13598152Y-23595238D01*
X13598152Y-23595238D02*
X13693390Y-23642857D01*
X13693390Y-23642857D02*
X13741009Y-23690476D01*
X13741009Y-23690476D02*
X13788628Y-23785714D01*
X13788628Y-23785714D02*
X13788628Y-24166666D01*
X13264819Y-23309523D02*
X14264819Y-22976190D01*
X14264819Y-22976190D02*
X13264819Y-22642857D01*
X14264819Y-21785714D02*
X14264819Y-22357142D01*
X14264819Y-22071428D02*
X13264819Y-22071428D01*
X13264819Y-22071428D02*
X13407676Y-22166666D01*
X13407676Y-22166666D02*
X13502914Y-22261904D01*
X13502914Y-22261904D02*
X13550533Y-22357142D01*
X8556666Y-31447319D02*
X8556666Y-32161604D01*
X8556666Y-32161604D02*
X8509047Y-32304461D01*
X8509047Y-32304461D02*
X8413809Y-32399700D01*
X8413809Y-32399700D02*
X8270952Y-32447319D01*
X8270952Y-32447319D02*
X8175714Y-32447319D01*
X9556666Y-32447319D02*
X8985238Y-32447319D01*
X9270952Y-32447319D02*
X9270952Y-31447319D01*
X9270952Y-31447319D02*
X9175714Y-31590176D01*
X9175714Y-31590176D02*
X9080476Y-31685414D01*
X9080476Y-31685414D02*
X8985238Y-31733033D01*
X32813714Y-39687604D02*
X33289904Y-39687604D01*
X32718476Y-39973319D02*
X33051809Y-38973319D01*
X33051809Y-38973319D02*
X33385142Y-39973319D01*
X34242285Y-39973319D02*
X33670857Y-39973319D01*
X33956571Y-39973319D02*
X33956571Y-38973319D01*
X33956571Y-38973319D02*
X33861333Y-39116176D01*
X33861333Y-39116176D02*
X33766095Y-39211414D01*
X33766095Y-39211414D02*
X33670857Y-39259033D01*
D13*
X18019030Y-37842023D02*
X17980935Y-37918213D01*
X17980935Y-37918213D02*
X17980935Y-38032499D01*
X17980935Y-38032499D02*
X18019030Y-38146785D01*
X18019030Y-38146785D02*
X18095220Y-38222975D01*
X18095220Y-38222975D02*
X18171411Y-38261070D01*
X18171411Y-38261070D02*
X18323792Y-38299166D01*
X18323792Y-38299166D02*
X18438078Y-38299166D01*
X18438078Y-38299166D02*
X18590459Y-38261070D01*
X18590459Y-38261070D02*
X18666649Y-38222975D01*
X18666649Y-38222975D02*
X18742840Y-38146785D01*
X18742840Y-38146785D02*
X18780935Y-38032499D01*
X18780935Y-38032499D02*
X18780935Y-37956308D01*
X18780935Y-37956308D02*
X18742840Y-37842023D01*
X18742840Y-37842023D02*
X18704744Y-37803927D01*
X18704744Y-37803927D02*
X18438078Y-37803927D01*
X18438078Y-37803927D02*
X18438078Y-37956308D01*
X18780935Y-37003927D02*
X18399982Y-37270594D01*
X18780935Y-37461070D02*
X17980935Y-37461070D01*
X17980935Y-37461070D02*
X17980935Y-37156308D01*
X17980935Y-37156308D02*
X18019030Y-37080118D01*
X18019030Y-37080118D02*
X18057125Y-37042023D01*
X18057125Y-37042023D02*
X18133316Y-37003927D01*
X18133316Y-37003927D02*
X18247601Y-37003927D01*
X18247601Y-37003927D02*
X18323792Y-37042023D01*
X18323792Y-37042023D02*
X18361887Y-37080118D01*
X18361887Y-37080118D02*
X18399982Y-37156308D01*
X18399982Y-37156308D02*
X18399982Y-37461070D01*
X18780935Y-36661070D02*
X17980935Y-36661070D01*
X17980935Y-36661070D02*
X18780935Y-36203927D01*
X18780935Y-36203927D02*
X17980935Y-36203927D01*
D12*
X32839819Y-32890594D02*
X31839819Y-32890594D01*
X31839819Y-32890594D02*
X31839819Y-32652499D01*
X31839819Y-32652499D02*
X31887438Y-32509642D01*
X31887438Y-32509642D02*
X31982676Y-32414404D01*
X31982676Y-32414404D02*
X32077914Y-32366785D01*
X32077914Y-32366785D02*
X32268390Y-32319166D01*
X32268390Y-32319166D02*
X32411247Y-32319166D01*
X32411247Y-32319166D02*
X32601723Y-32366785D01*
X32601723Y-32366785D02*
X32696961Y-32414404D01*
X32696961Y-32414404D02*
X32792200Y-32509642D01*
X32792200Y-32509642D02*
X32839819Y-32652499D01*
X32839819Y-32652499D02*
X32839819Y-32890594D01*
X31839819Y-31700118D02*
X31839819Y-31604880D01*
X31839819Y-31604880D02*
X31887438Y-31509642D01*
X31887438Y-31509642D02*
X31935057Y-31462023D01*
X31935057Y-31462023D02*
X32030295Y-31414404D01*
X32030295Y-31414404D02*
X32220771Y-31366785D01*
X32220771Y-31366785D02*
X32458866Y-31366785D01*
X32458866Y-31366785D02*
X32649342Y-31414404D01*
X32649342Y-31414404D02*
X32744580Y-31462023D01*
X32744580Y-31462023D02*
X32792200Y-31509642D01*
X32792200Y-31509642D02*
X32839819Y-31604880D01*
X32839819Y-31604880D02*
X32839819Y-31700118D01*
X32839819Y-31700118D02*
X32792200Y-31795356D01*
X32792200Y-31795356D02*
X32744580Y-31842975D01*
X32744580Y-31842975D02*
X32649342Y-31890594D01*
X32649342Y-31890594D02*
X32458866Y-31938213D01*
X32458866Y-31938213D02*
X32220771Y-31938213D01*
X32220771Y-31938213D02*
X32030295Y-31890594D01*
X32030295Y-31890594D02*
X31935057Y-31842975D01*
X31935057Y-31842975D02*
X31887438Y-31795356D01*
X31887438Y-31795356D02*
X31839819Y-31700118D01*
D13*
X34871887Y-37899166D02*
X34909982Y-37784880D01*
X34909982Y-37784880D02*
X34948078Y-37746785D01*
X34948078Y-37746785D02*
X35024268Y-37708689D01*
X35024268Y-37708689D02*
X35138554Y-37708689D01*
X35138554Y-37708689D02*
X35214744Y-37746785D01*
X35214744Y-37746785D02*
X35252840Y-37784880D01*
X35252840Y-37784880D02*
X35290935Y-37861070D01*
X35290935Y-37861070D02*
X35290935Y-38165832D01*
X35290935Y-38165832D02*
X34490935Y-38165832D01*
X34490935Y-38165832D02*
X34490935Y-37899166D01*
X34490935Y-37899166D02*
X34529030Y-37822975D01*
X34529030Y-37822975D02*
X34567125Y-37784880D01*
X34567125Y-37784880D02*
X34643316Y-37746785D01*
X34643316Y-37746785D02*
X34719506Y-37746785D01*
X34719506Y-37746785D02*
X34795697Y-37784880D01*
X34795697Y-37784880D02*
X34833792Y-37822975D01*
X34833792Y-37822975D02*
X34871887Y-37899166D01*
X34871887Y-37899166D02*
X34871887Y-38165832D01*
X35290935Y-36984880D02*
X35290935Y-37365832D01*
X35290935Y-37365832D02*
X34490935Y-37365832D01*
X35290935Y-36718213D02*
X34490935Y-36718213D01*
X35290935Y-36261070D02*
X34833792Y-36603928D01*
X34490935Y-36261070D02*
X34948078Y-36718213D01*
D12*
X35319047Y-53131009D02*
X35461904Y-53178628D01*
X35461904Y-53178628D02*
X35509523Y-53226247D01*
X35509523Y-53226247D02*
X35557142Y-53321485D01*
X35557142Y-53321485D02*
X35557142Y-53464342D01*
X35557142Y-53464342D02*
X35509523Y-53559580D01*
X35509523Y-53559580D02*
X35461904Y-53607200D01*
X35461904Y-53607200D02*
X35366666Y-53654819D01*
X35366666Y-53654819D02*
X34985714Y-53654819D01*
X34985714Y-53654819D02*
X34985714Y-52654819D01*
X34985714Y-52654819D02*
X35319047Y-52654819D01*
X35319047Y-52654819D02*
X35414285Y-52702438D01*
X35414285Y-52702438D02*
X35461904Y-52750057D01*
X35461904Y-52750057D02*
X35509523Y-52845295D01*
X35509523Y-52845295D02*
X35509523Y-52940533D01*
X35509523Y-52940533D02*
X35461904Y-53035771D01*
X35461904Y-53035771D02*
X35414285Y-53083390D01*
X35414285Y-53083390D02*
X35319047Y-53131009D01*
X35319047Y-53131009D02*
X34985714Y-53131009D01*
X35890476Y-52654819D02*
X36557142Y-52654819D01*
X36557142Y-52654819D02*
X35890476Y-53654819D01*
X35890476Y-53654819D02*
X36557142Y-53654819D01*
X37461904Y-53654819D02*
X36890476Y-53654819D01*
X37176190Y-53654819D02*
X37176190Y-52654819D01*
X37176190Y-52654819D02*
X37080952Y-52797676D01*
X37080952Y-52797676D02*
X36985714Y-52892914D01*
X36985714Y-52892914D02*
X36890476Y-52940533D01*
X39629048Y-48613866D02*
X40390953Y-48613866D01*
X40010000Y-48994819D02*
X40010000Y-48232914D01*
X6261905Y-20414819D02*
X6261905Y-19414819D01*
X6261905Y-19414819D02*
X6500000Y-19414819D01*
X6500000Y-19414819D02*
X6642857Y-19462438D01*
X6642857Y-19462438D02*
X6738095Y-19557676D01*
X6738095Y-19557676D02*
X6785714Y-19652914D01*
X6785714Y-19652914D02*
X6833333Y-19843390D01*
X6833333Y-19843390D02*
X6833333Y-19986247D01*
X6833333Y-19986247D02*
X6785714Y-20176723D01*
X6785714Y-20176723D02*
X6738095Y-20271961D01*
X6738095Y-20271961D02*
X6642857Y-20367200D01*
X6642857Y-20367200D02*
X6500000Y-20414819D01*
X6500000Y-20414819D02*
X6261905Y-20414819D01*
X7785714Y-20414819D02*
X7214286Y-20414819D01*
X7500000Y-20414819D02*
X7500000Y-19414819D01*
X7500000Y-19414819D02*
X7404762Y-19557676D01*
X7404762Y-19557676D02*
X7309524Y-19652914D01*
X7309524Y-19652914D02*
X7214286Y-19700533D01*
%TO.C,R11*%
D14*
X4350000Y-10630000D02*
X10890000Y-10630000D01*
X10890000Y-13370000D01*
X4350000Y-13370000D01*
X4350000Y-10630000D01*
X11660000Y-12000000D02*
X10890000Y-12000000D01*
X3580000Y-12000000D02*
X4350000Y-12000000D01*
%TO.C,RV1*%
X12810000Y-21620000D02*
X12810000Y-23000000D01*
X11430000Y-21620000D02*
X12810000Y-21620000D01*
X10160000Y-21620000D02*
X4970000Y-21620000D01*
X10160000Y-21620000D02*
X10160000Y-24380000D01*
X4970000Y-21620000D02*
X4970000Y-24380000D01*
X10160000Y-24380000D02*
X4970000Y-24380000D01*
%TO.C,J1*%
X7510000Y-28342500D02*
X7510000Y-25692500D01*
X10270000Y-25692500D02*
X7510000Y-25692500D01*
X10270000Y-28342500D02*
X7510000Y-28342500D01*
X10270000Y-28342500D02*
X10270000Y-25692500D01*
X10270000Y-29612500D02*
X10270000Y-30992500D01*
X10270000Y-30992500D02*
X8890000Y-30992500D01*
%TO.C,A1*%
D12*
X17780000Y-38502500D02*
X17780000Y-5482500D01*
X17780000Y-5482500D02*
X35560000Y-5482500D01*
X35560000Y-38502500D02*
X35560000Y-5482500D01*
X17780000Y-38502500D02*
X35560000Y-38502500D01*
%TO.C,BZ1*%
D14*
X42300000Y-46000000D02*
G75*
G02*
X30100000Y-46000000I-6100000J0D01*
G01*
X30100000Y-46000000D02*
G75*
G02*
X42300000Y-46000000I6100000J0D01*
G01*
%TO.C,D1*%
X5328563Y-15920000D02*
G75*
G02*
X8560000Y-15764484I1671437J-1080000D01*
G01*
X5959039Y-15920000D02*
G75*
G02*
X8040961Y-15920000I1040961J-1080000D01*
G01*
X8040961Y-18080000D02*
G75*
G02*
X5959039Y-18080000I-1040961J1080000D01*
G01*
X8560000Y-18235516D02*
G75*
G02*
X5328563Y-18080000I-1560000J1235516D01*
G01*
X8560000Y-15920000D02*
X8560000Y-15764000D01*
X8560000Y-18236000D02*
X8560000Y-18080000D01*
%TD*%
M02*
