%TF.GenerationSoftware,KiCad,Pcbnew,10.0.0*%
%TF.CreationDate,2026-05-04T01:20:25+02:00*%
%TF.ProjectId,Geiger_Simulator,47656967-6572-45f5-9369-6d756c61746f,rev?*%
%TF.SameCoordinates,Original*%
%TF.FileFunction,Drillmap*%
%TF.FilePolarity,Positive*%
%FSLAX45Y45*%
G04 Gerber Fmt 4.5, Leading zero omitted, Abs format (unit mm)*
G04 Created by KiCad (PCBNEW 10.0.0) date 2026-05-04 01:20:25*
%MOMM*%
%LPD*%
G01*
G04 APERTURE LIST*
%ADD10C,0.200000*%
%ADD11C,0.100000*%
%ADD12C,0.101600*%
%ADD13C,0.320000*%
G04 APERTURE END LIST*
D10*
X-7375Y20750D02*
X7374333Y20750D01*
X7374333Y-4954002D01*
X-7375Y-4954002D01*
X-7375Y20750D01*
D11*
X235000Y-475000D02*
X285000Y-525000D01*
X285000Y-475000D02*
X235000Y-525000D01*
X235000Y-4475000D02*
X285000Y-4525000D01*
X285000Y-4475000D02*
X235000Y-4525000D01*
X305294Y-305294D02*
X355294Y-355294D01*
X355294Y-305294D02*
X305294Y-355294D01*
X305294Y-644706D02*
X355294Y-694706D01*
X355294Y-644706D02*
X305294Y-694706D01*
X305294Y-4305294D02*
X355294Y-4355294D01*
X355294Y-4305294D02*
X305294Y-4355294D01*
X305294Y-4644706D02*
X355294Y-4694706D01*
X355294Y-4644706D02*
X305294Y-4694706D01*
X475000Y-235000D02*
X525000Y-285000D01*
X525000Y-235000D02*
X475000Y-285000D01*
X475000Y-715000D02*
X525000Y-765000D01*
X525000Y-715000D02*
X475000Y-765000D01*
X475000Y-4235000D02*
X525000Y-4285000D01*
X525000Y-4235000D02*
X475000Y-4285000D01*
X475000Y-4715000D02*
X525000Y-4765000D01*
X525000Y-4715000D02*
X475000Y-4765000D01*
X644706Y-305294D02*
X694706Y-355294D01*
X694706Y-305294D02*
X644706Y-355294D01*
X644706Y-644706D02*
X694706Y-694706D01*
X694706Y-644706D02*
X644706Y-694706D01*
X644706Y-4305294D02*
X694706Y-4355294D01*
X694706Y-4305294D02*
X644706Y-4355294D01*
X644706Y-4644706D02*
X694706Y-4694706D01*
X694706Y-4644706D02*
X644706Y-4694706D01*
X715000Y-475000D02*
X765000Y-525000D01*
X765000Y-475000D02*
X715000Y-525000D01*
X715000Y-4475000D02*
X765000Y-4525000D01*
X765000Y-4475000D02*
X715000Y-4525000D01*
X6735000Y-475000D02*
X6785000Y-525000D01*
X6785000Y-475000D02*
X6735000Y-525000D01*
X6735000Y-4475000D02*
X6785000Y-4525000D01*
X6785000Y-4475000D02*
X6735000Y-4525000D01*
X6805294Y-305294D02*
X6855294Y-355294D01*
X6855294Y-305294D02*
X6805294Y-355294D01*
X6805294Y-644706D02*
X6855294Y-694706D01*
X6855294Y-644706D02*
X6805294Y-694706D01*
X6805294Y-4305294D02*
X6855294Y-4355294D01*
X6855294Y-4305294D02*
X6805294Y-4355294D01*
X6805294Y-4644706D02*
X6855294Y-4694706D01*
X6855294Y-4644706D02*
X6805294Y-4694706D01*
X6975000Y-235000D02*
X7025000Y-285000D01*
X7025000Y-235000D02*
X6975000Y-285000D01*
X6975000Y-715000D02*
X7025000Y-765000D01*
X7025000Y-715000D02*
X6975000Y-765000D01*
X6975000Y-4235000D02*
X7025000Y-4285000D01*
X7025000Y-4235000D02*
X6975000Y-4285000D01*
X6975000Y-4715000D02*
X7025000Y-4765000D01*
X7025000Y-4715000D02*
X6975000Y-4765000D01*
X7144706Y-305294D02*
X7194706Y-355294D01*
X7194706Y-305294D02*
X7144706Y-355294D01*
X7144706Y-644706D02*
X7194706Y-694706D01*
X7194706Y-644706D02*
X7144706Y-694706D01*
X7144706Y-4305294D02*
X7194706Y-4355294D01*
X7194706Y-4305294D02*
X7144706Y-4355294D01*
X7144706Y-4644706D02*
X7194706Y-4694706D01*
X7194706Y-4644706D02*
X7144706Y-4694706D01*
X7215000Y-475000D02*
X7265000Y-525000D01*
X7265000Y-475000D02*
X7215000Y-525000D01*
X7215000Y-4475000D02*
X7265000Y-4525000D01*
X7265000Y-4475000D02*
X7215000Y-4525000D01*
X294000Y-1200000D02*
G75*
G02*
X214000Y-1200000I-40000J0D01*
G01*
X214000Y-1200000D02*
G75*
G02*
X294000Y-1200000I40000J0D01*
G01*
X1310000Y-1200000D02*
G75*
G02*
X1230000Y-1200000I-40000J0D01*
G01*
X1230000Y-1200000D02*
G75*
G02*
X1310000Y-1200000I40000J0D01*
G01*
X4485000Y-388000D02*
G75*
G02*
X4405000Y-388000I-40000J0D01*
G01*
X4405000Y-388000D02*
G75*
G02*
X4485000Y-388000I40000J0D01*
G01*
X4485000Y-793000D02*
G75*
G02*
X4405000Y-793000I-40000J0D01*
G01*
X4405000Y-793000D02*
G75*
G02*
X4485000Y-793000I40000J0D01*
G01*
X4485000Y-1198000D02*
G75*
G02*
X4405000Y-1198000I-40000J0D01*
G01*
X4405000Y-1198000D02*
G75*
G02*
X4485000Y-1198000I40000J0D01*
G01*
X4485000Y-1603000D02*
G75*
G02*
X4405000Y-1603000I-40000J0D01*
G01*
X4405000Y-1603000D02*
G75*
G02*
X4485000Y-1603000I40000J0D01*
G01*
X4485000Y-2008000D02*
G75*
G02*
X4405000Y-2008000I-40000J0D01*
G01*
X4405000Y-2008000D02*
G75*
G02*
X4485000Y-2008000I40000J0D01*
G01*
X4485000Y-2413000D02*
G75*
G02*
X4405000Y-2413000I-40000J0D01*
G01*
X4405000Y-2413000D02*
G75*
G02*
X4485000Y-2413000I40000J0D01*
G01*
X4485000Y-2818000D02*
G75*
G02*
X4405000Y-2818000I-40000J0D01*
G01*
X4405000Y-2818000D02*
G75*
G02*
X4485000Y-2818000I40000J0D01*
G01*
X4485000Y-3223000D02*
G75*
G02*
X4405000Y-3223000I-40000J0D01*
G01*
X4405000Y-3223000D02*
G75*
G02*
X4485000Y-3223000I40000J0D01*
G01*
X4485000Y-3628000D02*
G75*
G02*
X4405000Y-3628000I-40000J0D01*
G01*
X4405000Y-3628000D02*
G75*
G02*
X4485000Y-3628000I40000J0D01*
G01*
X4485000Y-4033000D02*
G75*
G02*
X4405000Y-4033000I-40000J0D01*
G01*
X4405000Y-4033000D02*
G75*
G02*
X4485000Y-4033000I40000J0D01*
G01*
X5501000Y-388000D02*
G75*
G02*
X5421000Y-388000I-40000J0D01*
G01*
X5421000Y-388000D02*
G75*
G02*
X5501000Y-388000I40000J0D01*
G01*
X5501000Y-793000D02*
G75*
G02*
X5421000Y-793000I-40000J0D01*
G01*
X5421000Y-793000D02*
G75*
G02*
X5501000Y-793000I40000J0D01*
G01*
X5501000Y-1198000D02*
G75*
G02*
X5421000Y-1198000I-40000J0D01*
G01*
X5421000Y-1198000D02*
G75*
G02*
X5501000Y-1198000I40000J0D01*
G01*
X5501000Y-1603000D02*
G75*
G02*
X5421000Y-1603000I-40000J0D01*
G01*
X5421000Y-1603000D02*
G75*
G02*
X5501000Y-1603000I40000J0D01*
G01*
X5501000Y-2008000D02*
G75*
G02*
X5421000Y-2008000I-40000J0D01*
G01*
X5421000Y-2008000D02*
G75*
G02*
X5501000Y-2008000I40000J0D01*
G01*
X5501000Y-2413000D02*
G75*
G02*
X5421000Y-2413000I-40000J0D01*
G01*
X5421000Y-2413000D02*
G75*
G02*
X5501000Y-2413000I40000J0D01*
G01*
X5501000Y-2818000D02*
G75*
G02*
X5421000Y-2818000I-40000J0D01*
G01*
X5421000Y-2818000D02*
G75*
G02*
X5501000Y-2818000I40000J0D01*
G01*
X5501000Y-3223000D02*
G75*
G02*
X5421000Y-3223000I-40000J0D01*
G01*
X5421000Y-3223000D02*
G75*
G02*
X5501000Y-3223000I40000J0D01*
G01*
X5501000Y-3628000D02*
G75*
G02*
X5421000Y-3628000I-40000J0D01*
G01*
X5421000Y-3628000D02*
G75*
G02*
X5501000Y-3628000I40000J0D01*
G01*
X5501000Y-4033000D02*
G75*
G02*
X5421000Y-4033000I-40000J0D01*
G01*
X5421000Y-4033000D02*
G75*
G02*
X5501000Y-4033000I40000J0D01*
G01*
X573000Y-1655000D02*
X573000Y-1745000D01*
X528000Y-1700000D02*
X618000Y-1700000D01*
X827000Y-1655000D02*
X827000Y-1745000D01*
X782000Y-1700000D02*
X872000Y-1700000D01*
X6255329Y-1231579D02*
X6255329Y-1166921D01*
X6190671Y-1166921D01*
X6190671Y-1231579D01*
X6255329Y-1231579D01*
X6255329Y-1485579D02*
X6255329Y-1420921D01*
X6190671Y-1420921D01*
X6190671Y-1485579D01*
X6255329Y-1485579D01*
X6255329Y-1739579D02*
X6255329Y-1674921D01*
X6190671Y-1674921D01*
X6190671Y-1739579D01*
X6255329Y-1739579D01*
X6255329Y-1993579D02*
X6255329Y-1928921D01*
X6190671Y-1928921D01*
X6190671Y-1993579D01*
X6255329Y-1993579D01*
X6255329Y-2247579D02*
X6255329Y-2182921D01*
X6190671Y-2182921D01*
X6190671Y-2247579D01*
X6255329Y-2247579D01*
X6255329Y-2501579D02*
X6255329Y-2436921D01*
X6190671Y-2436921D01*
X6190671Y-2501579D01*
X6255329Y-2501579D01*
X6255329Y-2755579D02*
X6255329Y-2690921D01*
X6190671Y-2690921D01*
X6190671Y-2755579D01*
X6255329Y-2755579D01*
X6255329Y-3009579D02*
X6255329Y-2944921D01*
X6190671Y-2944921D01*
X6190671Y-3009579D01*
X6255329Y-3009579D01*
X6255329Y-3263579D02*
X6255329Y-3198921D01*
X6190671Y-3198921D01*
X6190671Y-3263579D01*
X6255329Y-3263579D01*
X6255329Y-3517579D02*
X6255329Y-3452921D01*
X6190671Y-3452921D01*
X6190671Y-3517579D01*
X6255329Y-3517579D01*
X7017329Y-1231579D02*
X7017329Y-1166921D01*
X6952671Y-1166921D01*
X6952671Y-1231579D01*
X7017329Y-1231579D01*
X7017329Y-1485579D02*
X7017329Y-1420921D01*
X6952671Y-1420921D01*
X6952671Y-1485579D01*
X7017329Y-1485579D01*
X7017329Y-1739579D02*
X7017329Y-1674921D01*
X6952671Y-1674921D01*
X6952671Y-1739579D01*
X7017329Y-1739579D01*
X7017329Y-1993579D02*
X7017329Y-1928921D01*
X6952671Y-1928921D01*
X6952671Y-1993579D01*
X7017329Y-1993579D01*
X7017329Y-2247579D02*
X7017329Y-2182921D01*
X6952671Y-2182921D01*
X6952671Y-2247579D01*
X7017329Y-2247579D01*
X7017329Y-2501579D02*
X7017329Y-2436921D01*
X6952671Y-2436921D01*
X6952671Y-2501579D01*
X7017329Y-2501579D01*
X7017329Y-2755579D02*
X7017329Y-2690921D01*
X6952671Y-2690921D01*
X6952671Y-2755579D01*
X7017329Y-2755579D01*
X7017329Y-3009579D02*
X7017329Y-2944921D01*
X6952671Y-2944921D01*
X6952671Y-3009579D01*
X7017329Y-3009579D01*
X7017329Y-3263579D02*
X7017329Y-3198921D01*
X6952671Y-3198921D01*
X6952671Y-3263579D01*
X7017329Y-3263579D01*
X7017329Y-3517579D02*
X7017329Y-3452921D01*
X6952671Y-3452921D01*
X6952671Y-3517579D01*
X7017329Y-3517579D01*
X635000Y-2350000D02*
X685000Y-2300000D01*
X635000Y-2250000D01*
X585000Y-2300000D01*
X635000Y-2350000D01*
X889000Y-2350000D02*
X939000Y-2300000D01*
X889000Y-2250000D01*
X839000Y-2300000D01*
X889000Y-2350000D01*
X889000Y-2757250D02*
X939000Y-2707250D01*
X889000Y-2657250D01*
X839000Y-2707250D01*
X889000Y-2757250D01*
X889000Y-3011250D02*
X939000Y-2961250D01*
X889000Y-2911250D01*
X839000Y-2961250D01*
X889000Y-3011250D01*
X1143000Y-2350000D02*
X1193000Y-2300000D01*
X1143000Y-2250000D01*
X1093000Y-2300000D01*
X1143000Y-2350000D01*
X3240000Y-4650000D02*
X3290000Y-4600000D01*
X3240000Y-4550000D01*
X3190000Y-4600000D01*
X3240000Y-4650000D01*
X4000000Y-4650000D02*
X4050000Y-4600000D01*
X4000000Y-4550000D01*
X3950000Y-4600000D01*
X4000000Y-4650000D01*
D12*
X1854200Y-624450D02*
X1955800Y-726050D01*
X1955800Y-624450D02*
X1854200Y-726050D01*
X1955800Y-675250D02*
G75*
G02*
X1854200Y-675250I-50800J0D01*
G01*
X1854200Y-675250D02*
G75*
G02*
X1955800Y-675250I50800J0D01*
G01*
X1854200Y-878450D02*
X1955800Y-980050D01*
X1955800Y-878450D02*
X1854200Y-980050D01*
X1955800Y-929250D02*
G75*
G02*
X1854200Y-929250I-50800J0D01*
G01*
X1854200Y-929250D02*
G75*
G02*
X1955800Y-929250I50800J0D01*
G01*
X1854200Y-1132450D02*
X1955800Y-1234050D01*
X1955800Y-1132450D02*
X1854200Y-1234050D01*
X1955800Y-1183250D02*
G75*
G02*
X1854200Y-1183250I-50800J0D01*
G01*
X1854200Y-1183250D02*
G75*
G02*
X1955800Y-1183250I50800J0D01*
G01*
X1854200Y-1386450D02*
X1955800Y-1488050D01*
X1955800Y-1386450D02*
X1854200Y-1488050D01*
X1955800Y-1437250D02*
G75*
G02*
X1854200Y-1437250I-50800J0D01*
G01*
X1854200Y-1437250D02*
G75*
G02*
X1955800Y-1437250I50800J0D01*
G01*
X1854200Y-1640450D02*
X1955800Y-1742050D01*
X1955800Y-1640450D02*
X1854200Y-1742050D01*
X1955800Y-1691250D02*
G75*
G02*
X1854200Y-1691250I-50800J0D01*
G01*
X1854200Y-1691250D02*
G75*
G02*
X1955800Y-1691250I50800J0D01*
G01*
X1854200Y-1894450D02*
X1955800Y-1996050D01*
X1955800Y-1894450D02*
X1854200Y-1996050D01*
X1955800Y-1945250D02*
G75*
G02*
X1854200Y-1945250I-50800J0D01*
G01*
X1854200Y-1945250D02*
G75*
G02*
X1955800Y-1945250I50800J0D01*
G01*
X1854200Y-2148450D02*
X1955800Y-2250050D01*
X1955800Y-2148450D02*
X1854200Y-2250050D01*
X1955800Y-2199250D02*
G75*
G02*
X1854200Y-2199250I-50800J0D01*
G01*
X1854200Y-2199250D02*
G75*
G02*
X1955800Y-2199250I50800J0D01*
G01*
X1854200Y-2402450D02*
X1955800Y-2504050D01*
X1955800Y-2402450D02*
X1854200Y-2504050D01*
X1955800Y-2453250D02*
G75*
G02*
X1854200Y-2453250I-50800J0D01*
G01*
X1854200Y-2453250D02*
G75*
G02*
X1955800Y-2453250I50800J0D01*
G01*
X1854200Y-2656450D02*
X1955800Y-2758050D01*
X1955800Y-2656450D02*
X1854200Y-2758050D01*
X1955800Y-2707250D02*
G75*
G02*
X1854200Y-2707250I-50800J0D01*
G01*
X1854200Y-2707250D02*
G75*
G02*
X1955800Y-2707250I50800J0D01*
G01*
X1854200Y-2910450D02*
X1955800Y-3012050D01*
X1955800Y-2910450D02*
X1854200Y-3012050D01*
X1955800Y-2961250D02*
G75*
G02*
X1854200Y-2961250I-50800J0D01*
G01*
X1854200Y-2961250D02*
G75*
G02*
X1955800Y-2961250I50800J0D01*
G01*
X1854200Y-3164450D02*
X1955800Y-3266050D01*
X1955800Y-3164450D02*
X1854200Y-3266050D01*
X1955800Y-3215250D02*
G75*
G02*
X1854200Y-3215250I-50800J0D01*
G01*
X1854200Y-3215250D02*
G75*
G02*
X1955800Y-3215250I50800J0D01*
G01*
X1854200Y-3418450D02*
X1955800Y-3520050D01*
X1955800Y-3418450D02*
X1854200Y-3520050D01*
X1955800Y-3469250D02*
G75*
G02*
X1854200Y-3469250I-50800J0D01*
G01*
X1854200Y-3469250D02*
G75*
G02*
X1955800Y-3469250I50800J0D01*
G01*
X1981200Y-3672450D02*
X2082800Y-3774050D01*
X2082800Y-3672450D02*
X1981200Y-3774050D01*
X2082800Y-3723250D02*
G75*
G02*
X1981200Y-3723250I-50800J0D01*
G01*
X1981200Y-3723250D02*
G75*
G02*
X2082800Y-3723250I50800J0D01*
G01*
X2146790Y-1245990D02*
X2248390Y-1347590D01*
X2248390Y-1245990D02*
X2146790Y-1347590D01*
X2248390Y-1296790D02*
G75*
G02*
X2146790Y-1296790I-50800J0D01*
G01*
X2146790Y-1296790D02*
G75*
G02*
X2248390Y-1296790I50800J0D01*
G01*
X2146790Y-1500050D02*
X2248390Y-1601650D01*
X2248390Y-1500050D02*
X2146790Y-1601650D01*
X2248390Y-1550850D02*
G75*
G02*
X2146790Y-1550850I-50800J0D01*
G01*
X2146790Y-1550850D02*
G75*
G02*
X2248390Y-1550850I50800J0D01*
G01*
X2146790Y-2287390D02*
X2248390Y-2388990D01*
X2248390Y-2287390D02*
X2146790Y-2388990D01*
X2248390Y-2338190D02*
G75*
G02*
X2146790Y-2338190I-50800J0D01*
G01*
X2146790Y-2338190D02*
G75*
G02*
X2248390Y-2338190I50800J0D01*
G01*
X2146790Y-2541390D02*
X2248390Y-2642990D01*
X2248390Y-2541390D02*
X2146790Y-2642990D01*
X2248390Y-2592190D02*
G75*
G02*
X2146790Y-2592190I-50800J0D01*
G01*
X2146790Y-2592190D02*
G75*
G02*
X2248390Y-2592190I50800J0D01*
G01*
X2235200Y-3672450D02*
X2336800Y-3774050D01*
X2336800Y-3672450D02*
X2235200Y-3774050D01*
X2336800Y-3723250D02*
G75*
G02*
X2235200Y-3723250I-50800J0D01*
G01*
X2235200Y-3723250D02*
G75*
G02*
X2336800Y-3723250I50800J0D01*
G01*
X2489200Y-3672450D02*
X2590800Y-3774050D01*
X2590800Y-3672450D02*
X2489200Y-3774050D01*
X2590800Y-3723250D02*
G75*
G02*
X2489200Y-3723250I-50800J0D01*
G01*
X2489200Y-3723250D02*
G75*
G02*
X2590800Y-3723250I50800J0D01*
G01*
X2743200Y-3672450D02*
X2844800Y-3774050D01*
X2844800Y-3672450D02*
X2743200Y-3774050D01*
X2844800Y-3723250D02*
G75*
G02*
X2743200Y-3723250I-50800J0D01*
G01*
X2743200Y-3723250D02*
G75*
G02*
X2844800Y-3723250I50800J0D01*
G01*
X2997200Y-3672450D02*
X3098800Y-3774050D01*
X3098800Y-3672450D02*
X2997200Y-3774050D01*
X3098800Y-3723250D02*
G75*
G02*
X2997200Y-3723250I-50800J0D01*
G01*
X2997200Y-3723250D02*
G75*
G02*
X3098800Y-3723250I50800J0D01*
G01*
X3251200Y-3672450D02*
X3352800Y-3774050D01*
X3352800Y-3672450D02*
X3251200Y-3774050D01*
X3352800Y-3723250D02*
G75*
G02*
X3251200Y-3723250I-50800J0D01*
G01*
X3251200Y-3723250D02*
G75*
G02*
X3352800Y-3723250I50800J0D01*
G01*
X3378200Y-624450D02*
X3479800Y-726050D01*
X3479800Y-624450D02*
X3378200Y-726050D01*
X3479800Y-675250D02*
G75*
G02*
X3378200Y-675250I-50800J0D01*
G01*
X3378200Y-675250D02*
G75*
G02*
X3479800Y-675250I50800J0D01*
G01*
X3378200Y-878450D02*
X3479800Y-980050D01*
X3479800Y-878450D02*
X3378200Y-980050D01*
X3479800Y-929250D02*
G75*
G02*
X3378200Y-929250I-50800J0D01*
G01*
X3378200Y-929250D02*
G75*
G02*
X3479800Y-929250I50800J0D01*
G01*
X3378200Y-1132450D02*
X3479800Y-1234050D01*
X3479800Y-1132450D02*
X3378200Y-1234050D01*
X3479800Y-1183250D02*
G75*
G02*
X3378200Y-1183250I-50800J0D01*
G01*
X3378200Y-1183250D02*
G75*
G02*
X3479800Y-1183250I50800J0D01*
G01*
X3378200Y-1386450D02*
X3479800Y-1488050D01*
X3479800Y-1386450D02*
X3378200Y-1488050D01*
X3479800Y-1437250D02*
G75*
G02*
X3378200Y-1437250I-50800J0D01*
G01*
X3378200Y-1437250D02*
G75*
G02*
X3479800Y-1437250I50800J0D01*
G01*
X3378200Y-1640450D02*
X3479800Y-1742050D01*
X3479800Y-1640450D02*
X3378200Y-1742050D01*
X3479800Y-1691250D02*
G75*
G02*
X3378200Y-1691250I-50800J0D01*
G01*
X3378200Y-1691250D02*
G75*
G02*
X3479800Y-1691250I50800J0D01*
G01*
X3378200Y-1894450D02*
X3479800Y-1996050D01*
X3479800Y-1894450D02*
X3378200Y-1996050D01*
X3479800Y-1945250D02*
G75*
G02*
X3378200Y-1945250I-50800J0D01*
G01*
X3378200Y-1945250D02*
G75*
G02*
X3479800Y-1945250I50800J0D01*
G01*
X3378200Y-2148450D02*
X3479800Y-2250050D01*
X3479800Y-2148450D02*
X3378200Y-2250050D01*
X3479800Y-2199250D02*
G75*
G02*
X3378200Y-2199250I-50800J0D01*
G01*
X3378200Y-2199250D02*
G75*
G02*
X3479800Y-2199250I50800J0D01*
G01*
X3378200Y-2402450D02*
X3479800Y-2504050D01*
X3479800Y-2402450D02*
X3378200Y-2504050D01*
X3479800Y-2453250D02*
G75*
G02*
X3378200Y-2453250I-50800J0D01*
G01*
X3378200Y-2453250D02*
G75*
G02*
X3479800Y-2453250I50800J0D01*
G01*
X3378200Y-2656450D02*
X3479800Y-2758050D01*
X3479800Y-2656450D02*
X3378200Y-2758050D01*
X3479800Y-2707250D02*
G75*
G02*
X3378200Y-2707250I-50800J0D01*
G01*
X3378200Y-2707250D02*
G75*
G02*
X3479800Y-2707250I50800J0D01*
G01*
X3378200Y-2910450D02*
X3479800Y-3012050D01*
X3479800Y-2910450D02*
X3378200Y-3012050D01*
X3479800Y-2961250D02*
G75*
G02*
X3378200Y-2961250I-50800J0D01*
G01*
X3378200Y-2961250D02*
G75*
G02*
X3479800Y-2961250I50800J0D01*
G01*
X3378200Y-3164450D02*
X3479800Y-3266050D01*
X3479800Y-3164450D02*
X3378200Y-3266050D01*
X3479800Y-3215250D02*
G75*
G02*
X3378200Y-3215250I-50800J0D01*
G01*
X3378200Y-3215250D02*
G75*
G02*
X3479800Y-3215250I50800J0D01*
G01*
X3378200Y-3418450D02*
X3479800Y-3520050D01*
X3479800Y-3418450D02*
X3378200Y-3520050D01*
X3479800Y-3469250D02*
G75*
G02*
X3378200Y-3469250I-50800J0D01*
G01*
X3378200Y-3469250D02*
G75*
G02*
X3479800Y-3469250I50800J0D01*
G01*
D13*
X340000Y-340000D02*
X660000Y-660000D01*
X660000Y-340000D02*
X340000Y-660000D01*
X500000Y-340000D02*
X500000Y-660000D01*
X340000Y-500000D02*
X660000Y-500000D01*
X340000Y-4340000D02*
X660000Y-4660000D01*
X660000Y-4340000D02*
X340000Y-4660000D01*
X500000Y-4340000D02*
X500000Y-4660000D01*
X340000Y-4500000D02*
X660000Y-4500000D01*
X6840000Y-340000D02*
X7160000Y-660000D01*
X7160000Y-340000D02*
X6840000Y-660000D01*
X7000000Y-340000D02*
X7000000Y-660000D01*
X6840000Y-500000D02*
X7160000Y-500000D01*
X6840000Y-4340000D02*
X7160000Y-4660000D01*
X7160000Y-4340000D02*
X6840000Y-4660000D01*
X7000000Y-4340000D02*
X7000000Y-4660000D01*
X6840000Y-4500000D02*
X7160000Y-4500000D01*
D10*
X243402Y-5275486D02*
X243402Y-5075486D01*
X243402Y-5075486D02*
X291021Y-5075486D01*
X291021Y-5075486D02*
X319592Y-5085010D01*
X319592Y-5085010D02*
X338640Y-5104058D01*
X338640Y-5104058D02*
X348164Y-5123105D01*
X348164Y-5123105D02*
X357687Y-5161200D01*
X357687Y-5161200D02*
X357687Y-5189772D01*
X357687Y-5189772D02*
X348164Y-5227867D01*
X348164Y-5227867D02*
X338640Y-5246915D01*
X338640Y-5246915D02*
X319592Y-5265962D01*
X319592Y-5265962D02*
X291021Y-5275486D01*
X291021Y-5275486D02*
X243402Y-5275486D01*
X443402Y-5275486D02*
X443402Y-5142153D01*
X443402Y-5180248D02*
X452926Y-5161200D01*
X452926Y-5161200D02*
X462449Y-5151677D01*
X462449Y-5151677D02*
X481497Y-5142153D01*
X481497Y-5142153D02*
X500545Y-5142153D01*
X567211Y-5275486D02*
X567211Y-5142153D01*
X567211Y-5075486D02*
X557688Y-5085010D01*
X557688Y-5085010D02*
X567211Y-5094534D01*
X567211Y-5094534D02*
X576735Y-5085010D01*
X576735Y-5085010D02*
X567211Y-5075486D01*
X567211Y-5075486D02*
X567211Y-5094534D01*
X691021Y-5275486D02*
X671973Y-5265962D01*
X671973Y-5265962D02*
X662449Y-5246915D01*
X662449Y-5246915D02*
X662449Y-5075486D01*
X795783Y-5275486D02*
X776735Y-5265962D01*
X776735Y-5265962D02*
X767211Y-5246915D01*
X767211Y-5246915D02*
X767211Y-5075486D01*
X1024354Y-5275486D02*
X1024354Y-5075486D01*
X1024354Y-5075486D02*
X1091021Y-5218343D01*
X1091021Y-5218343D02*
X1157688Y-5075486D01*
X1157688Y-5075486D02*
X1157688Y-5275486D01*
X1338640Y-5275486D02*
X1338640Y-5170724D01*
X1338640Y-5170724D02*
X1329116Y-5151677D01*
X1329116Y-5151677D02*
X1310069Y-5142153D01*
X1310069Y-5142153D02*
X1271973Y-5142153D01*
X1271973Y-5142153D02*
X1252926Y-5151677D01*
X1338640Y-5265962D02*
X1319592Y-5275486D01*
X1319592Y-5275486D02*
X1271973Y-5275486D01*
X1271973Y-5275486D02*
X1252926Y-5265962D01*
X1252926Y-5265962D02*
X1243402Y-5246915D01*
X1243402Y-5246915D02*
X1243402Y-5227867D01*
X1243402Y-5227867D02*
X1252926Y-5208820D01*
X1252926Y-5208820D02*
X1271973Y-5199296D01*
X1271973Y-5199296D02*
X1319592Y-5199296D01*
X1319592Y-5199296D02*
X1338640Y-5189772D01*
X1433878Y-5142153D02*
X1433878Y-5342153D01*
X1433878Y-5151677D02*
X1452926Y-5142153D01*
X1452926Y-5142153D02*
X1491021Y-5142153D01*
X1491021Y-5142153D02*
X1510068Y-5151677D01*
X1510068Y-5151677D02*
X1519592Y-5161200D01*
X1519592Y-5161200D02*
X1529116Y-5180248D01*
X1529116Y-5180248D02*
X1529116Y-5237391D01*
X1529116Y-5237391D02*
X1519592Y-5256439D01*
X1519592Y-5256439D02*
X1510068Y-5265962D01*
X1510068Y-5265962D02*
X1491021Y-5275486D01*
X1491021Y-5275486D02*
X1452926Y-5275486D01*
X1452926Y-5275486D02*
X1433878Y-5265962D01*
X1614830Y-5256439D02*
X1624354Y-5265962D01*
X1624354Y-5265962D02*
X1614830Y-5275486D01*
X1614830Y-5275486D02*
X1605307Y-5265962D01*
X1605307Y-5265962D02*
X1614830Y-5256439D01*
X1614830Y-5256439D02*
X1614830Y-5275486D01*
X1614830Y-5151677D02*
X1624354Y-5161200D01*
X1624354Y-5161200D02*
X1614830Y-5170724D01*
X1614830Y-5170724D02*
X1605307Y-5161200D01*
X1605307Y-5161200D02*
X1614830Y-5151677D01*
X1614830Y-5151677D02*
X1614830Y-5170724D01*
D11*
X-67375Y-5579002D02*
X-17375Y-5629002D01*
X-17375Y-5579002D02*
X-67375Y-5629002D01*
D10*
X281497Y-5495486D02*
X300545Y-5495486D01*
X300545Y-5495486D02*
X319592Y-5505010D01*
X319592Y-5505010D02*
X329116Y-5514534D01*
X329116Y-5514534D02*
X338640Y-5533581D01*
X338640Y-5533581D02*
X348164Y-5571677D01*
X348164Y-5571677D02*
X348164Y-5619296D01*
X348164Y-5619296D02*
X338640Y-5657391D01*
X338640Y-5657391D02*
X329116Y-5676438D01*
X329116Y-5676438D02*
X319592Y-5685962D01*
X319592Y-5685962D02*
X300545Y-5695486D01*
X300545Y-5695486D02*
X281497Y-5695486D01*
X281497Y-5695486D02*
X262449Y-5685962D01*
X262449Y-5685962D02*
X252926Y-5676438D01*
X252926Y-5676438D02*
X243402Y-5657391D01*
X243402Y-5657391D02*
X233878Y-5619296D01*
X233878Y-5619296D02*
X233878Y-5571677D01*
X233878Y-5571677D02*
X243402Y-5533581D01*
X243402Y-5533581D02*
X252926Y-5514534D01*
X252926Y-5514534D02*
X262449Y-5505010D01*
X262449Y-5505010D02*
X281497Y-5495486D01*
X443402Y-5685962D02*
X443402Y-5695486D01*
X443402Y-5695486D02*
X433878Y-5714534D01*
X433878Y-5714534D02*
X424354Y-5724058D01*
X624354Y-5495486D02*
X529116Y-5495486D01*
X529116Y-5495486D02*
X519592Y-5590724D01*
X519592Y-5590724D02*
X529116Y-5581200D01*
X529116Y-5581200D02*
X548164Y-5571677D01*
X548164Y-5571677D02*
X595783Y-5571677D01*
X595783Y-5571677D02*
X614830Y-5581200D01*
X614830Y-5581200D02*
X624354Y-5590724D01*
X624354Y-5590724D02*
X633878Y-5609772D01*
X633878Y-5609772D02*
X633878Y-5657391D01*
X633878Y-5657391D02*
X624354Y-5676438D01*
X624354Y-5676438D02*
X614830Y-5685962D01*
X614830Y-5685962D02*
X595783Y-5695486D01*
X595783Y-5695486D02*
X548164Y-5695486D01*
X548164Y-5695486D02*
X529116Y-5685962D01*
X529116Y-5685962D02*
X519592Y-5676438D01*
X757687Y-5495486D02*
X776735Y-5495486D01*
X776735Y-5495486D02*
X795783Y-5505010D01*
X795783Y-5505010D02*
X805307Y-5514534D01*
X805307Y-5514534D02*
X814830Y-5533581D01*
X814830Y-5533581D02*
X824354Y-5571677D01*
X824354Y-5571677D02*
X824354Y-5619296D01*
X824354Y-5619296D02*
X814830Y-5657391D01*
X814830Y-5657391D02*
X805307Y-5676438D01*
X805307Y-5676438D02*
X795783Y-5685962D01*
X795783Y-5685962D02*
X776735Y-5695486D01*
X776735Y-5695486D02*
X757687Y-5695486D01*
X757687Y-5695486D02*
X738640Y-5685962D01*
X738640Y-5685962D02*
X729116Y-5676438D01*
X729116Y-5676438D02*
X719592Y-5657391D01*
X719592Y-5657391D02*
X710068Y-5619296D01*
X710068Y-5619296D02*
X710068Y-5571677D01*
X710068Y-5571677D02*
X719592Y-5533581D01*
X719592Y-5533581D02*
X729116Y-5514534D01*
X729116Y-5514534D02*
X738640Y-5505010D01*
X738640Y-5505010D02*
X757687Y-5495486D01*
X948164Y-5495486D02*
X967211Y-5495486D01*
X967211Y-5495486D02*
X986259Y-5505010D01*
X986259Y-5505010D02*
X995783Y-5514534D01*
X995783Y-5514534D02*
X1005307Y-5533581D01*
X1005307Y-5533581D02*
X1014830Y-5571677D01*
X1014830Y-5571677D02*
X1014830Y-5619296D01*
X1014830Y-5619296D02*
X1005307Y-5657391D01*
X1005307Y-5657391D02*
X995783Y-5676438D01*
X995783Y-5676438D02*
X986259Y-5685962D01*
X986259Y-5685962D02*
X967211Y-5695486D01*
X967211Y-5695486D02*
X948164Y-5695486D01*
X948164Y-5695486D02*
X929116Y-5685962D01*
X929116Y-5685962D02*
X919592Y-5676438D01*
X919592Y-5676438D02*
X910068Y-5657391D01*
X910068Y-5657391D02*
X900545Y-5619296D01*
X900545Y-5619296D02*
X900545Y-5571677D01*
X900545Y-5571677D02*
X910068Y-5533581D01*
X910068Y-5533581D02*
X919592Y-5514534D01*
X919592Y-5514534D02*
X929116Y-5505010D01*
X929116Y-5505010D02*
X948164Y-5495486D01*
X1100545Y-5695486D02*
X1100545Y-5562153D01*
X1100545Y-5581200D02*
X1110069Y-5571677D01*
X1110069Y-5571677D02*
X1129116Y-5562153D01*
X1129116Y-5562153D02*
X1157688Y-5562153D01*
X1157688Y-5562153D02*
X1176735Y-5571677D01*
X1176735Y-5571677D02*
X1186259Y-5590724D01*
X1186259Y-5590724D02*
X1186259Y-5695486D01*
X1186259Y-5590724D02*
X1195783Y-5571677D01*
X1195783Y-5571677D02*
X1214830Y-5562153D01*
X1214830Y-5562153D02*
X1243402Y-5562153D01*
X1243402Y-5562153D02*
X1262450Y-5571677D01*
X1262450Y-5571677D02*
X1271973Y-5590724D01*
X1271973Y-5590724D02*
X1271973Y-5695486D01*
X1367211Y-5695486D02*
X1367211Y-5562153D01*
X1367211Y-5581200D02*
X1376735Y-5571677D01*
X1376735Y-5571677D02*
X1395783Y-5562153D01*
X1395783Y-5562153D02*
X1424354Y-5562153D01*
X1424354Y-5562153D02*
X1443402Y-5571677D01*
X1443402Y-5571677D02*
X1452926Y-5590724D01*
X1452926Y-5590724D02*
X1452926Y-5695486D01*
X1452926Y-5590724D02*
X1462449Y-5571677D01*
X1462449Y-5571677D02*
X1481497Y-5562153D01*
X1481497Y-5562153D02*
X1510068Y-5562153D01*
X1510068Y-5562153D02*
X1529116Y-5571677D01*
X1529116Y-5571677D02*
X1538640Y-5590724D01*
X1538640Y-5590724D02*
X1538640Y-5695486D01*
X1929116Y-5485962D02*
X1757688Y-5743105D01*
X2186259Y-5495486D02*
X2205307Y-5495486D01*
X2205307Y-5495486D02*
X2224354Y-5505010D01*
X2224354Y-5505010D02*
X2233878Y-5514534D01*
X2233878Y-5514534D02*
X2243402Y-5533581D01*
X2243402Y-5533581D02*
X2252926Y-5571677D01*
X2252926Y-5571677D02*
X2252926Y-5619296D01*
X2252926Y-5619296D02*
X2243402Y-5657391D01*
X2243402Y-5657391D02*
X2233878Y-5676438D01*
X2233878Y-5676438D02*
X2224354Y-5685962D01*
X2224354Y-5685962D02*
X2205307Y-5695486D01*
X2205307Y-5695486D02*
X2186259Y-5695486D01*
X2186259Y-5695486D02*
X2167212Y-5685962D01*
X2167212Y-5685962D02*
X2157688Y-5676438D01*
X2157688Y-5676438D02*
X2148164Y-5657391D01*
X2148164Y-5657391D02*
X2138640Y-5619296D01*
X2138640Y-5619296D02*
X2138640Y-5571677D01*
X2138640Y-5571677D02*
X2148164Y-5533581D01*
X2148164Y-5533581D02*
X2157688Y-5514534D01*
X2157688Y-5514534D02*
X2167212Y-5505010D01*
X2167212Y-5505010D02*
X2186259Y-5495486D01*
X2348164Y-5685962D02*
X2348164Y-5695486D01*
X2348164Y-5695486D02*
X2338640Y-5714534D01*
X2338640Y-5714534D02*
X2329116Y-5724058D01*
X2471973Y-5495486D02*
X2491021Y-5495486D01*
X2491021Y-5495486D02*
X2510069Y-5505010D01*
X2510069Y-5505010D02*
X2519593Y-5514534D01*
X2519593Y-5514534D02*
X2529116Y-5533581D01*
X2529116Y-5533581D02*
X2538640Y-5571677D01*
X2538640Y-5571677D02*
X2538640Y-5619296D01*
X2538640Y-5619296D02*
X2529116Y-5657391D01*
X2529116Y-5657391D02*
X2519593Y-5676438D01*
X2519593Y-5676438D02*
X2510069Y-5685962D01*
X2510069Y-5685962D02*
X2491021Y-5695486D01*
X2491021Y-5695486D02*
X2471973Y-5695486D01*
X2471973Y-5695486D02*
X2452926Y-5685962D01*
X2452926Y-5685962D02*
X2443402Y-5676438D01*
X2443402Y-5676438D02*
X2433878Y-5657391D01*
X2433878Y-5657391D02*
X2424354Y-5619296D01*
X2424354Y-5619296D02*
X2424354Y-5571677D01*
X2424354Y-5571677D02*
X2433878Y-5533581D01*
X2433878Y-5533581D02*
X2443402Y-5514534D01*
X2443402Y-5514534D02*
X2452926Y-5505010D01*
X2452926Y-5505010D02*
X2471973Y-5495486D01*
X2729116Y-5695486D02*
X2614831Y-5695486D01*
X2671973Y-5695486D02*
X2671973Y-5495486D01*
X2671973Y-5495486D02*
X2652926Y-5524058D01*
X2652926Y-5524058D02*
X2633878Y-5543105D01*
X2633878Y-5543105D02*
X2614831Y-5552629D01*
X2824354Y-5695486D02*
X2862450Y-5695486D01*
X2862450Y-5695486D02*
X2881497Y-5685962D01*
X2881497Y-5685962D02*
X2891021Y-5676438D01*
X2891021Y-5676438D02*
X2910069Y-5647867D01*
X2910069Y-5647867D02*
X2919592Y-5609772D01*
X2919592Y-5609772D02*
X2919592Y-5533581D01*
X2919592Y-5533581D02*
X2910069Y-5514534D01*
X2910069Y-5514534D02*
X2900545Y-5505010D01*
X2900545Y-5505010D02*
X2881497Y-5495486D01*
X2881497Y-5495486D02*
X2843402Y-5495486D01*
X2843402Y-5495486D02*
X2824354Y-5505010D01*
X2824354Y-5505010D02*
X2814831Y-5514534D01*
X2814831Y-5514534D02*
X2805307Y-5533581D01*
X2805307Y-5533581D02*
X2805307Y-5581200D01*
X2805307Y-5581200D02*
X2814831Y-5600248D01*
X2814831Y-5600248D02*
X2824354Y-5609772D01*
X2824354Y-5609772D02*
X2843402Y-5619296D01*
X2843402Y-5619296D02*
X2881497Y-5619296D01*
X2881497Y-5619296D02*
X2900545Y-5609772D01*
X2900545Y-5609772D02*
X2910069Y-5600248D01*
X2910069Y-5600248D02*
X2919592Y-5581200D01*
X2986259Y-5495486D02*
X3119592Y-5495486D01*
X3119592Y-5495486D02*
X3033878Y-5695486D01*
X3186259Y-5495486D02*
X3186259Y-5533581D01*
X3262450Y-5495486D02*
X3262450Y-5533581D01*
X3557688Y-5771677D02*
X3548164Y-5762153D01*
X3548164Y-5762153D02*
X3529116Y-5733581D01*
X3529116Y-5733581D02*
X3519593Y-5714534D01*
X3519593Y-5714534D02*
X3510069Y-5685962D01*
X3510069Y-5685962D02*
X3500545Y-5638343D01*
X3500545Y-5638343D02*
X3500545Y-5600248D01*
X3500545Y-5600248D02*
X3510069Y-5552629D01*
X3510069Y-5552629D02*
X3519593Y-5524058D01*
X3519593Y-5524058D02*
X3529116Y-5505010D01*
X3529116Y-5505010D02*
X3548164Y-5476439D01*
X3548164Y-5476439D02*
X3557688Y-5466915D01*
X3614831Y-5495486D02*
X3738640Y-5495486D01*
X3738640Y-5495486D02*
X3671973Y-5571677D01*
X3671973Y-5571677D02*
X3700545Y-5571677D01*
X3700545Y-5571677D02*
X3719593Y-5581200D01*
X3719593Y-5581200D02*
X3729116Y-5590724D01*
X3729116Y-5590724D02*
X3738640Y-5609772D01*
X3738640Y-5609772D02*
X3738640Y-5657391D01*
X3738640Y-5657391D02*
X3729116Y-5676438D01*
X3729116Y-5676438D02*
X3719593Y-5685962D01*
X3719593Y-5685962D02*
X3700545Y-5695486D01*
X3700545Y-5695486D02*
X3643402Y-5695486D01*
X3643402Y-5695486D02*
X3624354Y-5685962D01*
X3624354Y-5685962D02*
X3614831Y-5676438D01*
X3814831Y-5514534D02*
X3824354Y-5505010D01*
X3824354Y-5505010D02*
X3843402Y-5495486D01*
X3843402Y-5495486D02*
X3891021Y-5495486D01*
X3891021Y-5495486D02*
X3910069Y-5505010D01*
X3910069Y-5505010D02*
X3919593Y-5514534D01*
X3919593Y-5514534D02*
X3929116Y-5533581D01*
X3929116Y-5533581D02*
X3929116Y-5552629D01*
X3929116Y-5552629D02*
X3919593Y-5581200D01*
X3919593Y-5581200D02*
X3805307Y-5695486D01*
X3805307Y-5695486D02*
X3929116Y-5695486D01*
X4167212Y-5695486D02*
X4167212Y-5495486D01*
X4252926Y-5695486D02*
X4252926Y-5590724D01*
X4252926Y-5590724D02*
X4243402Y-5571677D01*
X4243402Y-5571677D02*
X4224355Y-5562153D01*
X4224355Y-5562153D02*
X4195783Y-5562153D01*
X4195783Y-5562153D02*
X4176735Y-5571677D01*
X4176735Y-5571677D02*
X4167212Y-5581200D01*
X4376736Y-5695486D02*
X4357688Y-5685962D01*
X4357688Y-5685962D02*
X4348164Y-5676438D01*
X4348164Y-5676438D02*
X4338640Y-5657391D01*
X4338640Y-5657391D02*
X4338640Y-5600248D01*
X4338640Y-5600248D02*
X4348164Y-5581200D01*
X4348164Y-5581200D02*
X4357688Y-5571677D01*
X4357688Y-5571677D02*
X4376736Y-5562153D01*
X4376736Y-5562153D02*
X4405307Y-5562153D01*
X4405307Y-5562153D02*
X4424355Y-5571677D01*
X4424355Y-5571677D02*
X4433878Y-5581200D01*
X4433878Y-5581200D02*
X4443402Y-5600248D01*
X4443402Y-5600248D02*
X4443402Y-5657391D01*
X4443402Y-5657391D02*
X4433878Y-5676438D01*
X4433878Y-5676438D02*
X4424355Y-5685962D01*
X4424355Y-5685962D02*
X4405307Y-5695486D01*
X4405307Y-5695486D02*
X4376736Y-5695486D01*
X4557688Y-5695486D02*
X4538640Y-5685962D01*
X4538640Y-5685962D02*
X4529117Y-5666915D01*
X4529117Y-5666915D02*
X4529117Y-5495486D01*
X4710069Y-5685962D02*
X4691021Y-5695486D01*
X4691021Y-5695486D02*
X4652926Y-5695486D01*
X4652926Y-5695486D02*
X4633878Y-5685962D01*
X4633878Y-5685962D02*
X4624355Y-5666915D01*
X4624355Y-5666915D02*
X4624355Y-5590724D01*
X4624355Y-5590724D02*
X4633878Y-5571677D01*
X4633878Y-5571677D02*
X4652926Y-5562153D01*
X4652926Y-5562153D02*
X4691021Y-5562153D01*
X4691021Y-5562153D02*
X4710069Y-5571677D01*
X4710069Y-5571677D02*
X4719593Y-5590724D01*
X4719593Y-5590724D02*
X4719593Y-5609772D01*
X4719593Y-5609772D02*
X4624355Y-5628819D01*
X4795783Y-5685962D02*
X4814831Y-5695486D01*
X4814831Y-5695486D02*
X4852926Y-5695486D01*
X4852926Y-5695486D02*
X4871974Y-5685962D01*
X4871974Y-5685962D02*
X4881498Y-5666915D01*
X4881498Y-5666915D02*
X4881498Y-5657391D01*
X4881498Y-5657391D02*
X4871974Y-5638343D01*
X4871974Y-5638343D02*
X4852926Y-5628819D01*
X4852926Y-5628819D02*
X4824355Y-5628819D01*
X4824355Y-5628819D02*
X4805307Y-5619296D01*
X4805307Y-5619296D02*
X4795783Y-5600248D01*
X4795783Y-5600248D02*
X4795783Y-5590724D01*
X4795783Y-5590724D02*
X4805307Y-5571677D01*
X4805307Y-5571677D02*
X4824355Y-5562153D01*
X4824355Y-5562153D02*
X4852926Y-5562153D01*
X4852926Y-5562153D02*
X4871974Y-5571677D01*
X4948164Y-5771677D02*
X4957688Y-5762153D01*
X4957688Y-5762153D02*
X4976736Y-5733581D01*
X4976736Y-5733581D02*
X4986259Y-5714534D01*
X4986259Y-5714534D02*
X4995783Y-5685962D01*
X4995783Y-5685962D02*
X5005307Y-5638343D01*
X5005307Y-5638343D02*
X5005307Y-5600248D01*
X5005307Y-5600248D02*
X4995783Y-5552629D01*
X4995783Y-5552629D02*
X4986259Y-5524058D01*
X4986259Y-5524058D02*
X4976736Y-5505010D01*
X4976736Y-5505010D02*
X4957688Y-5476439D01*
X4957688Y-5476439D02*
X4948164Y-5466915D01*
D11*
X-17375Y-5868002D02*
G75*
G02*
X-97375Y-5868002I-40000J0D01*
G01*
X-97375Y-5868002D02*
G75*
G02*
X-17375Y-5868002I40000J0D01*
G01*
D10*
X281497Y-5759486D02*
X300545Y-5759486D01*
X300545Y-5759486D02*
X319592Y-5769010D01*
X319592Y-5769010D02*
X329116Y-5778534D01*
X329116Y-5778534D02*
X338640Y-5797581D01*
X338640Y-5797581D02*
X348164Y-5835677D01*
X348164Y-5835677D02*
X348164Y-5883296D01*
X348164Y-5883296D02*
X338640Y-5921391D01*
X338640Y-5921391D02*
X329116Y-5940438D01*
X329116Y-5940438D02*
X319592Y-5949962D01*
X319592Y-5949962D02*
X300545Y-5959486D01*
X300545Y-5959486D02*
X281497Y-5959486D01*
X281497Y-5959486D02*
X262449Y-5949962D01*
X262449Y-5949962D02*
X252926Y-5940438D01*
X252926Y-5940438D02*
X243402Y-5921391D01*
X243402Y-5921391D02*
X233878Y-5883296D01*
X233878Y-5883296D02*
X233878Y-5835677D01*
X233878Y-5835677D02*
X243402Y-5797581D01*
X243402Y-5797581D02*
X252926Y-5778534D01*
X252926Y-5778534D02*
X262449Y-5769010D01*
X262449Y-5769010D02*
X281497Y-5759486D01*
X443402Y-5949962D02*
X443402Y-5959486D01*
X443402Y-5959486D02*
X433878Y-5978534D01*
X433878Y-5978534D02*
X424354Y-5988058D01*
X557688Y-5845200D02*
X538640Y-5835677D01*
X538640Y-5835677D02*
X529116Y-5826153D01*
X529116Y-5826153D02*
X519592Y-5807105D01*
X519592Y-5807105D02*
X519592Y-5797581D01*
X519592Y-5797581D02*
X529116Y-5778534D01*
X529116Y-5778534D02*
X538640Y-5769010D01*
X538640Y-5769010D02*
X557688Y-5759486D01*
X557688Y-5759486D02*
X595783Y-5759486D01*
X595783Y-5759486D02*
X614830Y-5769010D01*
X614830Y-5769010D02*
X624354Y-5778534D01*
X624354Y-5778534D02*
X633878Y-5797581D01*
X633878Y-5797581D02*
X633878Y-5807105D01*
X633878Y-5807105D02*
X624354Y-5826153D01*
X624354Y-5826153D02*
X614830Y-5835677D01*
X614830Y-5835677D02*
X595783Y-5845200D01*
X595783Y-5845200D02*
X557688Y-5845200D01*
X557688Y-5845200D02*
X538640Y-5854724D01*
X538640Y-5854724D02*
X529116Y-5864248D01*
X529116Y-5864248D02*
X519592Y-5883296D01*
X519592Y-5883296D02*
X519592Y-5921391D01*
X519592Y-5921391D02*
X529116Y-5940438D01*
X529116Y-5940438D02*
X538640Y-5949962D01*
X538640Y-5949962D02*
X557688Y-5959486D01*
X557688Y-5959486D02*
X595783Y-5959486D01*
X595783Y-5959486D02*
X614830Y-5949962D01*
X614830Y-5949962D02*
X624354Y-5940438D01*
X624354Y-5940438D02*
X633878Y-5921391D01*
X633878Y-5921391D02*
X633878Y-5883296D01*
X633878Y-5883296D02*
X624354Y-5864248D01*
X624354Y-5864248D02*
X614830Y-5854724D01*
X614830Y-5854724D02*
X595783Y-5845200D01*
X757687Y-5759486D02*
X776735Y-5759486D01*
X776735Y-5759486D02*
X795783Y-5769010D01*
X795783Y-5769010D02*
X805307Y-5778534D01*
X805307Y-5778534D02*
X814830Y-5797581D01*
X814830Y-5797581D02*
X824354Y-5835677D01*
X824354Y-5835677D02*
X824354Y-5883296D01*
X824354Y-5883296D02*
X814830Y-5921391D01*
X814830Y-5921391D02*
X805307Y-5940438D01*
X805307Y-5940438D02*
X795783Y-5949962D01*
X795783Y-5949962D02*
X776735Y-5959486D01*
X776735Y-5959486D02*
X757687Y-5959486D01*
X757687Y-5959486D02*
X738640Y-5949962D01*
X738640Y-5949962D02*
X729116Y-5940438D01*
X729116Y-5940438D02*
X719592Y-5921391D01*
X719592Y-5921391D02*
X710068Y-5883296D01*
X710068Y-5883296D02*
X710068Y-5835677D01*
X710068Y-5835677D02*
X719592Y-5797581D01*
X719592Y-5797581D02*
X729116Y-5778534D01*
X729116Y-5778534D02*
X738640Y-5769010D01*
X738640Y-5769010D02*
X757687Y-5759486D01*
X948164Y-5759486D02*
X967211Y-5759486D01*
X967211Y-5759486D02*
X986259Y-5769010D01*
X986259Y-5769010D02*
X995783Y-5778534D01*
X995783Y-5778534D02*
X1005307Y-5797581D01*
X1005307Y-5797581D02*
X1014830Y-5835677D01*
X1014830Y-5835677D02*
X1014830Y-5883296D01*
X1014830Y-5883296D02*
X1005307Y-5921391D01*
X1005307Y-5921391D02*
X995783Y-5940438D01*
X995783Y-5940438D02*
X986259Y-5949962D01*
X986259Y-5949962D02*
X967211Y-5959486D01*
X967211Y-5959486D02*
X948164Y-5959486D01*
X948164Y-5959486D02*
X929116Y-5949962D01*
X929116Y-5949962D02*
X919592Y-5940438D01*
X919592Y-5940438D02*
X910068Y-5921391D01*
X910068Y-5921391D02*
X900545Y-5883296D01*
X900545Y-5883296D02*
X900545Y-5835677D01*
X900545Y-5835677D02*
X910068Y-5797581D01*
X910068Y-5797581D02*
X919592Y-5778534D01*
X919592Y-5778534D02*
X929116Y-5769010D01*
X929116Y-5769010D02*
X948164Y-5759486D01*
X1100545Y-5959486D02*
X1100545Y-5826153D01*
X1100545Y-5845200D02*
X1110069Y-5835677D01*
X1110069Y-5835677D02*
X1129116Y-5826153D01*
X1129116Y-5826153D02*
X1157688Y-5826153D01*
X1157688Y-5826153D02*
X1176735Y-5835677D01*
X1176735Y-5835677D02*
X1186259Y-5854724D01*
X1186259Y-5854724D02*
X1186259Y-5959486D01*
X1186259Y-5854724D02*
X1195783Y-5835677D01*
X1195783Y-5835677D02*
X1214830Y-5826153D01*
X1214830Y-5826153D02*
X1243402Y-5826153D01*
X1243402Y-5826153D02*
X1262450Y-5835677D01*
X1262450Y-5835677D02*
X1271973Y-5854724D01*
X1271973Y-5854724D02*
X1271973Y-5959486D01*
X1367211Y-5959486D02*
X1367211Y-5826153D01*
X1367211Y-5845200D02*
X1376735Y-5835677D01*
X1376735Y-5835677D02*
X1395783Y-5826153D01*
X1395783Y-5826153D02*
X1424354Y-5826153D01*
X1424354Y-5826153D02*
X1443402Y-5835677D01*
X1443402Y-5835677D02*
X1452926Y-5854724D01*
X1452926Y-5854724D02*
X1452926Y-5959486D01*
X1452926Y-5854724D02*
X1462449Y-5835677D01*
X1462449Y-5835677D02*
X1481497Y-5826153D01*
X1481497Y-5826153D02*
X1510068Y-5826153D01*
X1510068Y-5826153D02*
X1529116Y-5835677D01*
X1529116Y-5835677D02*
X1538640Y-5854724D01*
X1538640Y-5854724D02*
X1538640Y-5959486D01*
X1929116Y-5749962D02*
X1757688Y-6007105D01*
X2186259Y-5759486D02*
X2205307Y-5759486D01*
X2205307Y-5759486D02*
X2224354Y-5769010D01*
X2224354Y-5769010D02*
X2233878Y-5778534D01*
X2233878Y-5778534D02*
X2243402Y-5797581D01*
X2243402Y-5797581D02*
X2252926Y-5835677D01*
X2252926Y-5835677D02*
X2252926Y-5883296D01*
X2252926Y-5883296D02*
X2243402Y-5921391D01*
X2243402Y-5921391D02*
X2233878Y-5940438D01*
X2233878Y-5940438D02*
X2224354Y-5949962D01*
X2224354Y-5949962D02*
X2205307Y-5959486D01*
X2205307Y-5959486D02*
X2186259Y-5959486D01*
X2186259Y-5959486D02*
X2167212Y-5949962D01*
X2167212Y-5949962D02*
X2157688Y-5940438D01*
X2157688Y-5940438D02*
X2148164Y-5921391D01*
X2148164Y-5921391D02*
X2138640Y-5883296D01*
X2138640Y-5883296D02*
X2138640Y-5835677D01*
X2138640Y-5835677D02*
X2148164Y-5797581D01*
X2148164Y-5797581D02*
X2157688Y-5778534D01*
X2157688Y-5778534D02*
X2167212Y-5769010D01*
X2167212Y-5769010D02*
X2186259Y-5759486D01*
X2348164Y-5949962D02*
X2348164Y-5959486D01*
X2348164Y-5959486D02*
X2338640Y-5978534D01*
X2338640Y-5978534D02*
X2329116Y-5988058D01*
X2471973Y-5759486D02*
X2491021Y-5759486D01*
X2491021Y-5759486D02*
X2510069Y-5769010D01*
X2510069Y-5769010D02*
X2519593Y-5778534D01*
X2519593Y-5778534D02*
X2529116Y-5797581D01*
X2529116Y-5797581D02*
X2538640Y-5835677D01*
X2538640Y-5835677D02*
X2538640Y-5883296D01*
X2538640Y-5883296D02*
X2529116Y-5921391D01*
X2529116Y-5921391D02*
X2519593Y-5940438D01*
X2519593Y-5940438D02*
X2510069Y-5949962D01*
X2510069Y-5949962D02*
X2491021Y-5959486D01*
X2491021Y-5959486D02*
X2471973Y-5959486D01*
X2471973Y-5959486D02*
X2452926Y-5949962D01*
X2452926Y-5949962D02*
X2443402Y-5940438D01*
X2443402Y-5940438D02*
X2433878Y-5921391D01*
X2433878Y-5921391D02*
X2424354Y-5883296D01*
X2424354Y-5883296D02*
X2424354Y-5835677D01*
X2424354Y-5835677D02*
X2433878Y-5797581D01*
X2433878Y-5797581D02*
X2443402Y-5778534D01*
X2443402Y-5778534D02*
X2452926Y-5769010D01*
X2452926Y-5769010D02*
X2471973Y-5759486D01*
X2605307Y-5759486D02*
X2729116Y-5759486D01*
X2729116Y-5759486D02*
X2662450Y-5835677D01*
X2662450Y-5835677D02*
X2691021Y-5835677D01*
X2691021Y-5835677D02*
X2710069Y-5845200D01*
X2710069Y-5845200D02*
X2719593Y-5854724D01*
X2719593Y-5854724D02*
X2729116Y-5873772D01*
X2729116Y-5873772D02*
X2729116Y-5921391D01*
X2729116Y-5921391D02*
X2719593Y-5940438D01*
X2719593Y-5940438D02*
X2710069Y-5949962D01*
X2710069Y-5949962D02*
X2691021Y-5959486D01*
X2691021Y-5959486D02*
X2633878Y-5959486D01*
X2633878Y-5959486D02*
X2614831Y-5949962D01*
X2614831Y-5949962D02*
X2605307Y-5940438D01*
X2919592Y-5959486D02*
X2805307Y-5959486D01*
X2862450Y-5959486D02*
X2862450Y-5759486D01*
X2862450Y-5759486D02*
X2843402Y-5788058D01*
X2843402Y-5788058D02*
X2824354Y-5807105D01*
X2824354Y-5807105D02*
X2805307Y-5816629D01*
X3100545Y-5759486D02*
X3005307Y-5759486D01*
X3005307Y-5759486D02*
X2995783Y-5854724D01*
X2995783Y-5854724D02*
X3005307Y-5845200D01*
X3005307Y-5845200D02*
X3024354Y-5835677D01*
X3024354Y-5835677D02*
X3071973Y-5835677D01*
X3071973Y-5835677D02*
X3091021Y-5845200D01*
X3091021Y-5845200D02*
X3100545Y-5854724D01*
X3100545Y-5854724D02*
X3110069Y-5873772D01*
X3110069Y-5873772D02*
X3110069Y-5921391D01*
X3110069Y-5921391D02*
X3100545Y-5940438D01*
X3100545Y-5940438D02*
X3091021Y-5949962D01*
X3091021Y-5949962D02*
X3071973Y-5959486D01*
X3071973Y-5959486D02*
X3024354Y-5959486D01*
X3024354Y-5959486D02*
X3005307Y-5949962D01*
X3005307Y-5949962D02*
X2995783Y-5940438D01*
X3186259Y-5759486D02*
X3186259Y-5797581D01*
X3262450Y-5759486D02*
X3262450Y-5797581D01*
X3557688Y-6035677D02*
X3548164Y-6026153D01*
X3548164Y-6026153D02*
X3529116Y-5997581D01*
X3529116Y-5997581D02*
X3519593Y-5978534D01*
X3519593Y-5978534D02*
X3510069Y-5949962D01*
X3510069Y-5949962D02*
X3500545Y-5902343D01*
X3500545Y-5902343D02*
X3500545Y-5864248D01*
X3500545Y-5864248D02*
X3510069Y-5816629D01*
X3510069Y-5816629D02*
X3519593Y-5788058D01*
X3519593Y-5788058D02*
X3529116Y-5769010D01*
X3529116Y-5769010D02*
X3548164Y-5740438D01*
X3548164Y-5740438D02*
X3557688Y-5730915D01*
X3624354Y-5778534D02*
X3633878Y-5769010D01*
X3633878Y-5769010D02*
X3652926Y-5759486D01*
X3652926Y-5759486D02*
X3700545Y-5759486D01*
X3700545Y-5759486D02*
X3719593Y-5769010D01*
X3719593Y-5769010D02*
X3729116Y-5778534D01*
X3729116Y-5778534D02*
X3738640Y-5797581D01*
X3738640Y-5797581D02*
X3738640Y-5816629D01*
X3738640Y-5816629D02*
X3729116Y-5845200D01*
X3729116Y-5845200D02*
X3614831Y-5959486D01*
X3614831Y-5959486D02*
X3738640Y-5959486D01*
X3814831Y-5778534D02*
X3824354Y-5769010D01*
X3824354Y-5769010D02*
X3843402Y-5759486D01*
X3843402Y-5759486D02*
X3891021Y-5759486D01*
X3891021Y-5759486D02*
X3910069Y-5769010D01*
X3910069Y-5769010D02*
X3919593Y-5778534D01*
X3919593Y-5778534D02*
X3929116Y-5797581D01*
X3929116Y-5797581D02*
X3929116Y-5816629D01*
X3929116Y-5816629D02*
X3919593Y-5845200D01*
X3919593Y-5845200D02*
X3805307Y-5959486D01*
X3805307Y-5959486D02*
X3929116Y-5959486D01*
X4167212Y-5959486D02*
X4167212Y-5759486D01*
X4252926Y-5959486D02*
X4252926Y-5854724D01*
X4252926Y-5854724D02*
X4243402Y-5835677D01*
X4243402Y-5835677D02*
X4224355Y-5826153D01*
X4224355Y-5826153D02*
X4195783Y-5826153D01*
X4195783Y-5826153D02*
X4176735Y-5835677D01*
X4176735Y-5835677D02*
X4167212Y-5845200D01*
X4376736Y-5959486D02*
X4357688Y-5949962D01*
X4357688Y-5949962D02*
X4348164Y-5940438D01*
X4348164Y-5940438D02*
X4338640Y-5921391D01*
X4338640Y-5921391D02*
X4338640Y-5864248D01*
X4338640Y-5864248D02*
X4348164Y-5845200D01*
X4348164Y-5845200D02*
X4357688Y-5835677D01*
X4357688Y-5835677D02*
X4376736Y-5826153D01*
X4376736Y-5826153D02*
X4405307Y-5826153D01*
X4405307Y-5826153D02*
X4424355Y-5835677D01*
X4424355Y-5835677D02*
X4433878Y-5845200D01*
X4433878Y-5845200D02*
X4443402Y-5864248D01*
X4443402Y-5864248D02*
X4443402Y-5921391D01*
X4443402Y-5921391D02*
X4433878Y-5940438D01*
X4433878Y-5940438D02*
X4424355Y-5949962D01*
X4424355Y-5949962D02*
X4405307Y-5959486D01*
X4405307Y-5959486D02*
X4376736Y-5959486D01*
X4557688Y-5959486D02*
X4538640Y-5949962D01*
X4538640Y-5949962D02*
X4529117Y-5930915D01*
X4529117Y-5930915D02*
X4529117Y-5759486D01*
X4710069Y-5949962D02*
X4691021Y-5959486D01*
X4691021Y-5959486D02*
X4652926Y-5959486D01*
X4652926Y-5959486D02*
X4633878Y-5949962D01*
X4633878Y-5949962D02*
X4624355Y-5930915D01*
X4624355Y-5930915D02*
X4624355Y-5854724D01*
X4624355Y-5854724D02*
X4633878Y-5835677D01*
X4633878Y-5835677D02*
X4652926Y-5826153D01*
X4652926Y-5826153D02*
X4691021Y-5826153D01*
X4691021Y-5826153D02*
X4710069Y-5835677D01*
X4710069Y-5835677D02*
X4719593Y-5854724D01*
X4719593Y-5854724D02*
X4719593Y-5873772D01*
X4719593Y-5873772D02*
X4624355Y-5892819D01*
X4795783Y-5949962D02*
X4814831Y-5959486D01*
X4814831Y-5959486D02*
X4852926Y-5959486D01*
X4852926Y-5959486D02*
X4871974Y-5949962D01*
X4871974Y-5949962D02*
X4881498Y-5930915D01*
X4881498Y-5930915D02*
X4881498Y-5921391D01*
X4881498Y-5921391D02*
X4871974Y-5902343D01*
X4871974Y-5902343D02*
X4852926Y-5892819D01*
X4852926Y-5892819D02*
X4824355Y-5892819D01*
X4824355Y-5892819D02*
X4805307Y-5883296D01*
X4805307Y-5883296D02*
X4795783Y-5864248D01*
X4795783Y-5864248D02*
X4795783Y-5854724D01*
X4795783Y-5854724D02*
X4805307Y-5835677D01*
X4805307Y-5835677D02*
X4824355Y-5826153D01*
X4824355Y-5826153D02*
X4852926Y-5826153D01*
X4852926Y-5826153D02*
X4871974Y-5835677D01*
X4948164Y-6035677D02*
X4957688Y-6026153D01*
X4957688Y-6026153D02*
X4976736Y-5997581D01*
X4976736Y-5997581D02*
X4986259Y-5978534D01*
X4986259Y-5978534D02*
X4995783Y-5949962D01*
X4995783Y-5949962D02*
X5005307Y-5902343D01*
X5005307Y-5902343D02*
X5005307Y-5864248D01*
X5005307Y-5864248D02*
X4995783Y-5816629D01*
X4995783Y-5816629D02*
X4986259Y-5788058D01*
X4986259Y-5788058D02*
X4976736Y-5769010D01*
X4976736Y-5769010D02*
X4957688Y-5740438D01*
X4957688Y-5740438D02*
X4948164Y-5730915D01*
D11*
X-62375Y-6087002D02*
X-62375Y-6177002D01*
X-107375Y-6132002D02*
X-17375Y-6132002D01*
D10*
X281497Y-6023486D02*
X300545Y-6023486D01*
X300545Y-6023486D02*
X319592Y-6033010D01*
X319592Y-6033010D02*
X329116Y-6042534D01*
X329116Y-6042534D02*
X338640Y-6061581D01*
X338640Y-6061581D02*
X348164Y-6099677D01*
X348164Y-6099677D02*
X348164Y-6147296D01*
X348164Y-6147296D02*
X338640Y-6185391D01*
X338640Y-6185391D02*
X329116Y-6204438D01*
X329116Y-6204438D02*
X319592Y-6213962D01*
X319592Y-6213962D02*
X300545Y-6223486D01*
X300545Y-6223486D02*
X281497Y-6223486D01*
X281497Y-6223486D02*
X262449Y-6213962D01*
X262449Y-6213962D02*
X252926Y-6204438D01*
X252926Y-6204438D02*
X243402Y-6185391D01*
X243402Y-6185391D02*
X233878Y-6147296D01*
X233878Y-6147296D02*
X233878Y-6099677D01*
X233878Y-6099677D02*
X243402Y-6061581D01*
X243402Y-6061581D02*
X252926Y-6042534D01*
X252926Y-6042534D02*
X262449Y-6033010D01*
X262449Y-6033010D02*
X281497Y-6023486D01*
X443402Y-6213962D02*
X443402Y-6223486D01*
X443402Y-6223486D02*
X433878Y-6242534D01*
X433878Y-6242534D02*
X424354Y-6252058D01*
X538640Y-6223486D02*
X576735Y-6223486D01*
X576735Y-6223486D02*
X595783Y-6213962D01*
X595783Y-6213962D02*
X605307Y-6204438D01*
X605307Y-6204438D02*
X624354Y-6175867D01*
X624354Y-6175867D02*
X633878Y-6137772D01*
X633878Y-6137772D02*
X633878Y-6061581D01*
X633878Y-6061581D02*
X624354Y-6042534D01*
X624354Y-6042534D02*
X614830Y-6033010D01*
X614830Y-6033010D02*
X595783Y-6023486D01*
X595783Y-6023486D02*
X557688Y-6023486D01*
X557688Y-6023486D02*
X538640Y-6033010D01*
X538640Y-6033010D02*
X529116Y-6042534D01*
X529116Y-6042534D02*
X519592Y-6061581D01*
X519592Y-6061581D02*
X519592Y-6109200D01*
X519592Y-6109200D02*
X529116Y-6128248D01*
X529116Y-6128248D02*
X538640Y-6137772D01*
X538640Y-6137772D02*
X557688Y-6147296D01*
X557688Y-6147296D02*
X595783Y-6147296D01*
X595783Y-6147296D02*
X614830Y-6137772D01*
X614830Y-6137772D02*
X624354Y-6128248D01*
X624354Y-6128248D02*
X633878Y-6109200D01*
X757687Y-6023486D02*
X776735Y-6023486D01*
X776735Y-6023486D02*
X795783Y-6033010D01*
X795783Y-6033010D02*
X805307Y-6042534D01*
X805307Y-6042534D02*
X814830Y-6061581D01*
X814830Y-6061581D02*
X824354Y-6099677D01*
X824354Y-6099677D02*
X824354Y-6147296D01*
X824354Y-6147296D02*
X814830Y-6185391D01*
X814830Y-6185391D02*
X805307Y-6204438D01*
X805307Y-6204438D02*
X795783Y-6213962D01*
X795783Y-6213962D02*
X776735Y-6223486D01*
X776735Y-6223486D02*
X757687Y-6223486D01*
X757687Y-6223486D02*
X738640Y-6213962D01*
X738640Y-6213962D02*
X729116Y-6204438D01*
X729116Y-6204438D02*
X719592Y-6185391D01*
X719592Y-6185391D02*
X710068Y-6147296D01*
X710068Y-6147296D02*
X710068Y-6099677D01*
X710068Y-6099677D02*
X719592Y-6061581D01*
X719592Y-6061581D02*
X729116Y-6042534D01*
X729116Y-6042534D02*
X738640Y-6033010D01*
X738640Y-6033010D02*
X757687Y-6023486D01*
X948164Y-6023486D02*
X967211Y-6023486D01*
X967211Y-6023486D02*
X986259Y-6033010D01*
X986259Y-6033010D02*
X995783Y-6042534D01*
X995783Y-6042534D02*
X1005307Y-6061581D01*
X1005307Y-6061581D02*
X1014830Y-6099677D01*
X1014830Y-6099677D02*
X1014830Y-6147296D01*
X1014830Y-6147296D02*
X1005307Y-6185391D01*
X1005307Y-6185391D02*
X995783Y-6204438D01*
X995783Y-6204438D02*
X986259Y-6213962D01*
X986259Y-6213962D02*
X967211Y-6223486D01*
X967211Y-6223486D02*
X948164Y-6223486D01*
X948164Y-6223486D02*
X929116Y-6213962D01*
X929116Y-6213962D02*
X919592Y-6204438D01*
X919592Y-6204438D02*
X910068Y-6185391D01*
X910068Y-6185391D02*
X900545Y-6147296D01*
X900545Y-6147296D02*
X900545Y-6099677D01*
X900545Y-6099677D02*
X910068Y-6061581D01*
X910068Y-6061581D02*
X919592Y-6042534D01*
X919592Y-6042534D02*
X929116Y-6033010D01*
X929116Y-6033010D02*
X948164Y-6023486D01*
X1100545Y-6223486D02*
X1100545Y-6090153D01*
X1100545Y-6109200D02*
X1110069Y-6099677D01*
X1110069Y-6099677D02*
X1129116Y-6090153D01*
X1129116Y-6090153D02*
X1157688Y-6090153D01*
X1157688Y-6090153D02*
X1176735Y-6099677D01*
X1176735Y-6099677D02*
X1186259Y-6118724D01*
X1186259Y-6118724D02*
X1186259Y-6223486D01*
X1186259Y-6118724D02*
X1195783Y-6099677D01*
X1195783Y-6099677D02*
X1214830Y-6090153D01*
X1214830Y-6090153D02*
X1243402Y-6090153D01*
X1243402Y-6090153D02*
X1262450Y-6099677D01*
X1262450Y-6099677D02*
X1271973Y-6118724D01*
X1271973Y-6118724D02*
X1271973Y-6223486D01*
X1367211Y-6223486D02*
X1367211Y-6090153D01*
X1367211Y-6109200D02*
X1376735Y-6099677D01*
X1376735Y-6099677D02*
X1395783Y-6090153D01*
X1395783Y-6090153D02*
X1424354Y-6090153D01*
X1424354Y-6090153D02*
X1443402Y-6099677D01*
X1443402Y-6099677D02*
X1452926Y-6118724D01*
X1452926Y-6118724D02*
X1452926Y-6223486D01*
X1452926Y-6118724D02*
X1462449Y-6099677D01*
X1462449Y-6099677D02*
X1481497Y-6090153D01*
X1481497Y-6090153D02*
X1510068Y-6090153D01*
X1510068Y-6090153D02*
X1529116Y-6099677D01*
X1529116Y-6099677D02*
X1538640Y-6118724D01*
X1538640Y-6118724D02*
X1538640Y-6223486D01*
X1929116Y-6013962D02*
X1757688Y-6271105D01*
X2186259Y-6023486D02*
X2205307Y-6023486D01*
X2205307Y-6023486D02*
X2224354Y-6033010D01*
X2224354Y-6033010D02*
X2233878Y-6042534D01*
X2233878Y-6042534D02*
X2243402Y-6061581D01*
X2243402Y-6061581D02*
X2252926Y-6099677D01*
X2252926Y-6099677D02*
X2252926Y-6147296D01*
X2252926Y-6147296D02*
X2243402Y-6185391D01*
X2243402Y-6185391D02*
X2233878Y-6204438D01*
X2233878Y-6204438D02*
X2224354Y-6213962D01*
X2224354Y-6213962D02*
X2205307Y-6223486D01*
X2205307Y-6223486D02*
X2186259Y-6223486D01*
X2186259Y-6223486D02*
X2167212Y-6213962D01*
X2167212Y-6213962D02*
X2157688Y-6204438D01*
X2157688Y-6204438D02*
X2148164Y-6185391D01*
X2148164Y-6185391D02*
X2138640Y-6147296D01*
X2138640Y-6147296D02*
X2138640Y-6099677D01*
X2138640Y-6099677D02*
X2148164Y-6061581D01*
X2148164Y-6061581D02*
X2157688Y-6042534D01*
X2157688Y-6042534D02*
X2167212Y-6033010D01*
X2167212Y-6033010D02*
X2186259Y-6023486D01*
X2348164Y-6213962D02*
X2348164Y-6223486D01*
X2348164Y-6223486D02*
X2338640Y-6242534D01*
X2338640Y-6242534D02*
X2329116Y-6252058D01*
X2471973Y-6023486D02*
X2491021Y-6023486D01*
X2491021Y-6023486D02*
X2510069Y-6033010D01*
X2510069Y-6033010D02*
X2519593Y-6042534D01*
X2519593Y-6042534D02*
X2529116Y-6061581D01*
X2529116Y-6061581D02*
X2538640Y-6099677D01*
X2538640Y-6099677D02*
X2538640Y-6147296D01*
X2538640Y-6147296D02*
X2529116Y-6185391D01*
X2529116Y-6185391D02*
X2519593Y-6204438D01*
X2519593Y-6204438D02*
X2510069Y-6213962D01*
X2510069Y-6213962D02*
X2491021Y-6223486D01*
X2491021Y-6223486D02*
X2471973Y-6223486D01*
X2471973Y-6223486D02*
X2452926Y-6213962D01*
X2452926Y-6213962D02*
X2443402Y-6204438D01*
X2443402Y-6204438D02*
X2433878Y-6185391D01*
X2433878Y-6185391D02*
X2424354Y-6147296D01*
X2424354Y-6147296D02*
X2424354Y-6099677D01*
X2424354Y-6099677D02*
X2433878Y-6061581D01*
X2433878Y-6061581D02*
X2443402Y-6042534D01*
X2443402Y-6042534D02*
X2452926Y-6033010D01*
X2452926Y-6033010D02*
X2471973Y-6023486D01*
X2605307Y-6023486D02*
X2729116Y-6023486D01*
X2729116Y-6023486D02*
X2662450Y-6099677D01*
X2662450Y-6099677D02*
X2691021Y-6099677D01*
X2691021Y-6099677D02*
X2710069Y-6109200D01*
X2710069Y-6109200D02*
X2719593Y-6118724D01*
X2719593Y-6118724D02*
X2729116Y-6137772D01*
X2729116Y-6137772D02*
X2729116Y-6185391D01*
X2729116Y-6185391D02*
X2719593Y-6204438D01*
X2719593Y-6204438D02*
X2710069Y-6213962D01*
X2710069Y-6213962D02*
X2691021Y-6223486D01*
X2691021Y-6223486D02*
X2633878Y-6223486D01*
X2633878Y-6223486D02*
X2614831Y-6213962D01*
X2614831Y-6213962D02*
X2605307Y-6204438D01*
X2910069Y-6023486D02*
X2814831Y-6023486D01*
X2814831Y-6023486D02*
X2805307Y-6118724D01*
X2805307Y-6118724D02*
X2814831Y-6109200D01*
X2814831Y-6109200D02*
X2833878Y-6099677D01*
X2833878Y-6099677D02*
X2881497Y-6099677D01*
X2881497Y-6099677D02*
X2900545Y-6109200D01*
X2900545Y-6109200D02*
X2910069Y-6118724D01*
X2910069Y-6118724D02*
X2919592Y-6137772D01*
X2919592Y-6137772D02*
X2919592Y-6185391D01*
X2919592Y-6185391D02*
X2910069Y-6204438D01*
X2910069Y-6204438D02*
X2900545Y-6213962D01*
X2900545Y-6213962D02*
X2881497Y-6223486D01*
X2881497Y-6223486D02*
X2833878Y-6223486D01*
X2833878Y-6223486D02*
X2814831Y-6213962D01*
X2814831Y-6213962D02*
X2805307Y-6204438D01*
X3091021Y-6090153D02*
X3091021Y-6223486D01*
X3043402Y-6013962D02*
X2995783Y-6156819D01*
X2995783Y-6156819D02*
X3119592Y-6156819D01*
X3186259Y-6023486D02*
X3186259Y-6061581D01*
X3262450Y-6023486D02*
X3262450Y-6061581D01*
X3557688Y-6299677D02*
X3548164Y-6290153D01*
X3548164Y-6290153D02*
X3529116Y-6261581D01*
X3529116Y-6261581D02*
X3519593Y-6242534D01*
X3519593Y-6242534D02*
X3510069Y-6213962D01*
X3510069Y-6213962D02*
X3500545Y-6166343D01*
X3500545Y-6166343D02*
X3500545Y-6128248D01*
X3500545Y-6128248D02*
X3510069Y-6080629D01*
X3510069Y-6080629D02*
X3519593Y-6052058D01*
X3519593Y-6052058D02*
X3529116Y-6033010D01*
X3529116Y-6033010D02*
X3548164Y-6004438D01*
X3548164Y-6004438D02*
X3557688Y-5994915D01*
X3624354Y-6042534D02*
X3633878Y-6033010D01*
X3633878Y-6033010D02*
X3652926Y-6023486D01*
X3652926Y-6023486D02*
X3700545Y-6023486D01*
X3700545Y-6023486D02*
X3719593Y-6033010D01*
X3719593Y-6033010D02*
X3729116Y-6042534D01*
X3729116Y-6042534D02*
X3738640Y-6061581D01*
X3738640Y-6061581D02*
X3738640Y-6080629D01*
X3738640Y-6080629D02*
X3729116Y-6109200D01*
X3729116Y-6109200D02*
X3614831Y-6223486D01*
X3614831Y-6223486D02*
X3738640Y-6223486D01*
X3976735Y-6223486D02*
X3976735Y-6023486D01*
X4062450Y-6223486D02*
X4062450Y-6118724D01*
X4062450Y-6118724D02*
X4052926Y-6099677D01*
X4052926Y-6099677D02*
X4033878Y-6090153D01*
X4033878Y-6090153D02*
X4005307Y-6090153D01*
X4005307Y-6090153D02*
X3986259Y-6099677D01*
X3986259Y-6099677D02*
X3976735Y-6109200D01*
X4186259Y-6223486D02*
X4167212Y-6213962D01*
X4167212Y-6213962D02*
X4157688Y-6204438D01*
X4157688Y-6204438D02*
X4148164Y-6185391D01*
X4148164Y-6185391D02*
X4148164Y-6128248D01*
X4148164Y-6128248D02*
X4157688Y-6109200D01*
X4157688Y-6109200D02*
X4167212Y-6099677D01*
X4167212Y-6099677D02*
X4186259Y-6090153D01*
X4186259Y-6090153D02*
X4214831Y-6090153D01*
X4214831Y-6090153D02*
X4233878Y-6099677D01*
X4233878Y-6099677D02*
X4243402Y-6109200D01*
X4243402Y-6109200D02*
X4252926Y-6128248D01*
X4252926Y-6128248D02*
X4252926Y-6185391D01*
X4252926Y-6185391D02*
X4243402Y-6204438D01*
X4243402Y-6204438D02*
X4233878Y-6213962D01*
X4233878Y-6213962D02*
X4214831Y-6223486D01*
X4214831Y-6223486D02*
X4186259Y-6223486D01*
X4367212Y-6223486D02*
X4348164Y-6213962D01*
X4348164Y-6213962D02*
X4338640Y-6194915D01*
X4338640Y-6194915D02*
X4338640Y-6023486D01*
X4519593Y-6213962D02*
X4500545Y-6223486D01*
X4500545Y-6223486D02*
X4462450Y-6223486D01*
X4462450Y-6223486D02*
X4443402Y-6213962D01*
X4443402Y-6213962D02*
X4433878Y-6194915D01*
X4433878Y-6194915D02*
X4433878Y-6118724D01*
X4433878Y-6118724D02*
X4443402Y-6099677D01*
X4443402Y-6099677D02*
X4462450Y-6090153D01*
X4462450Y-6090153D02*
X4500545Y-6090153D01*
X4500545Y-6090153D02*
X4519593Y-6099677D01*
X4519593Y-6099677D02*
X4529117Y-6118724D01*
X4529117Y-6118724D02*
X4529117Y-6137772D01*
X4529117Y-6137772D02*
X4433878Y-6156819D01*
X4605307Y-6213962D02*
X4624355Y-6223486D01*
X4624355Y-6223486D02*
X4662450Y-6223486D01*
X4662450Y-6223486D02*
X4681498Y-6213962D01*
X4681498Y-6213962D02*
X4691021Y-6194915D01*
X4691021Y-6194915D02*
X4691021Y-6185391D01*
X4691021Y-6185391D02*
X4681498Y-6166343D01*
X4681498Y-6166343D02*
X4662450Y-6156819D01*
X4662450Y-6156819D02*
X4633878Y-6156819D01*
X4633878Y-6156819D02*
X4614831Y-6147296D01*
X4614831Y-6147296D02*
X4605307Y-6128248D01*
X4605307Y-6128248D02*
X4605307Y-6118724D01*
X4605307Y-6118724D02*
X4614831Y-6099677D01*
X4614831Y-6099677D02*
X4633878Y-6090153D01*
X4633878Y-6090153D02*
X4662450Y-6090153D01*
X4662450Y-6090153D02*
X4681498Y-6099677D01*
X4757688Y-6299677D02*
X4767212Y-6290153D01*
X4767212Y-6290153D02*
X4786259Y-6261581D01*
X4786259Y-6261581D02*
X4795783Y-6242534D01*
X4795783Y-6242534D02*
X4805307Y-6213962D01*
X4805307Y-6213962D02*
X4814831Y-6166343D01*
X4814831Y-6166343D02*
X4814831Y-6128248D01*
X4814831Y-6128248D02*
X4805307Y-6080629D01*
X4805307Y-6080629D02*
X4795783Y-6052058D01*
X4795783Y-6052058D02*
X4786259Y-6033010D01*
X4786259Y-6033010D02*
X4767212Y-6004438D01*
X4767212Y-6004438D02*
X4757688Y-5994915D01*
D11*
X-30766Y-6428332D02*
X-30766Y-6363673D01*
X-95424Y-6363673D01*
X-95424Y-6428332D01*
X-30766Y-6428332D01*
D10*
X281497Y-6287486D02*
X300545Y-6287486D01*
X300545Y-6287486D02*
X319592Y-6297010D01*
X319592Y-6297010D02*
X329116Y-6306534D01*
X329116Y-6306534D02*
X338640Y-6325581D01*
X338640Y-6325581D02*
X348164Y-6363677D01*
X348164Y-6363677D02*
X348164Y-6411296D01*
X348164Y-6411296D02*
X338640Y-6449391D01*
X338640Y-6449391D02*
X329116Y-6468438D01*
X329116Y-6468438D02*
X319592Y-6477962D01*
X319592Y-6477962D02*
X300545Y-6487486D01*
X300545Y-6487486D02*
X281497Y-6487486D01*
X281497Y-6487486D02*
X262449Y-6477962D01*
X262449Y-6477962D02*
X252926Y-6468438D01*
X252926Y-6468438D02*
X243402Y-6449391D01*
X243402Y-6449391D02*
X233878Y-6411296D01*
X233878Y-6411296D02*
X233878Y-6363677D01*
X233878Y-6363677D02*
X243402Y-6325581D01*
X243402Y-6325581D02*
X252926Y-6306534D01*
X252926Y-6306534D02*
X262449Y-6297010D01*
X262449Y-6297010D02*
X281497Y-6287486D01*
X443402Y-6477962D02*
X443402Y-6487486D01*
X443402Y-6487486D02*
X433878Y-6506534D01*
X433878Y-6506534D02*
X424354Y-6516058D01*
X538640Y-6487486D02*
X576735Y-6487486D01*
X576735Y-6487486D02*
X595783Y-6477962D01*
X595783Y-6477962D02*
X605307Y-6468438D01*
X605307Y-6468438D02*
X624354Y-6439867D01*
X624354Y-6439867D02*
X633878Y-6401772D01*
X633878Y-6401772D02*
X633878Y-6325581D01*
X633878Y-6325581D02*
X624354Y-6306534D01*
X624354Y-6306534D02*
X614830Y-6297010D01*
X614830Y-6297010D02*
X595783Y-6287486D01*
X595783Y-6287486D02*
X557688Y-6287486D01*
X557688Y-6287486D02*
X538640Y-6297010D01*
X538640Y-6297010D02*
X529116Y-6306534D01*
X529116Y-6306534D02*
X519592Y-6325581D01*
X519592Y-6325581D02*
X519592Y-6373200D01*
X519592Y-6373200D02*
X529116Y-6392248D01*
X529116Y-6392248D02*
X538640Y-6401772D01*
X538640Y-6401772D02*
X557688Y-6411296D01*
X557688Y-6411296D02*
X595783Y-6411296D01*
X595783Y-6411296D02*
X614830Y-6401772D01*
X614830Y-6401772D02*
X624354Y-6392248D01*
X624354Y-6392248D02*
X633878Y-6373200D01*
X824354Y-6487486D02*
X710068Y-6487486D01*
X767211Y-6487486D02*
X767211Y-6287486D01*
X767211Y-6287486D02*
X748164Y-6316058D01*
X748164Y-6316058D02*
X729116Y-6335105D01*
X729116Y-6335105D02*
X710068Y-6344629D01*
X995783Y-6354153D02*
X995783Y-6487486D01*
X948164Y-6277962D02*
X900545Y-6420819D01*
X900545Y-6420819D02*
X1024354Y-6420819D01*
X1100545Y-6487486D02*
X1100545Y-6354153D01*
X1100545Y-6373200D02*
X1110069Y-6363677D01*
X1110069Y-6363677D02*
X1129116Y-6354153D01*
X1129116Y-6354153D02*
X1157688Y-6354153D01*
X1157688Y-6354153D02*
X1176735Y-6363677D01*
X1176735Y-6363677D02*
X1186259Y-6382724D01*
X1186259Y-6382724D02*
X1186259Y-6487486D01*
X1186259Y-6382724D02*
X1195783Y-6363677D01*
X1195783Y-6363677D02*
X1214830Y-6354153D01*
X1214830Y-6354153D02*
X1243402Y-6354153D01*
X1243402Y-6354153D02*
X1262450Y-6363677D01*
X1262450Y-6363677D02*
X1271973Y-6382724D01*
X1271973Y-6382724D02*
X1271973Y-6487486D01*
X1367211Y-6487486D02*
X1367211Y-6354153D01*
X1367211Y-6373200D02*
X1376735Y-6363677D01*
X1376735Y-6363677D02*
X1395783Y-6354153D01*
X1395783Y-6354153D02*
X1424354Y-6354153D01*
X1424354Y-6354153D02*
X1443402Y-6363677D01*
X1443402Y-6363677D02*
X1452926Y-6382724D01*
X1452926Y-6382724D02*
X1452926Y-6487486D01*
X1452926Y-6382724D02*
X1462449Y-6363677D01*
X1462449Y-6363677D02*
X1481497Y-6354153D01*
X1481497Y-6354153D02*
X1510068Y-6354153D01*
X1510068Y-6354153D02*
X1529116Y-6363677D01*
X1529116Y-6363677D02*
X1538640Y-6382724D01*
X1538640Y-6382724D02*
X1538640Y-6487486D01*
X1929116Y-6277962D02*
X1757688Y-6535105D01*
X2186259Y-6287486D02*
X2205307Y-6287486D01*
X2205307Y-6287486D02*
X2224354Y-6297010D01*
X2224354Y-6297010D02*
X2233878Y-6306534D01*
X2233878Y-6306534D02*
X2243402Y-6325581D01*
X2243402Y-6325581D02*
X2252926Y-6363677D01*
X2252926Y-6363677D02*
X2252926Y-6411296D01*
X2252926Y-6411296D02*
X2243402Y-6449391D01*
X2243402Y-6449391D02*
X2233878Y-6468438D01*
X2233878Y-6468438D02*
X2224354Y-6477962D01*
X2224354Y-6477962D02*
X2205307Y-6487486D01*
X2205307Y-6487486D02*
X2186259Y-6487486D01*
X2186259Y-6487486D02*
X2167212Y-6477962D01*
X2167212Y-6477962D02*
X2157688Y-6468438D01*
X2157688Y-6468438D02*
X2148164Y-6449391D01*
X2148164Y-6449391D02*
X2138640Y-6411296D01*
X2138640Y-6411296D02*
X2138640Y-6363677D01*
X2138640Y-6363677D02*
X2148164Y-6325581D01*
X2148164Y-6325581D02*
X2157688Y-6306534D01*
X2157688Y-6306534D02*
X2167212Y-6297010D01*
X2167212Y-6297010D02*
X2186259Y-6287486D01*
X2348164Y-6477962D02*
X2348164Y-6487486D01*
X2348164Y-6487486D02*
X2338640Y-6506534D01*
X2338640Y-6506534D02*
X2329116Y-6516058D01*
X2471973Y-6287486D02*
X2491021Y-6287486D01*
X2491021Y-6287486D02*
X2510069Y-6297010D01*
X2510069Y-6297010D02*
X2519593Y-6306534D01*
X2519593Y-6306534D02*
X2529116Y-6325581D01*
X2529116Y-6325581D02*
X2538640Y-6363677D01*
X2538640Y-6363677D02*
X2538640Y-6411296D01*
X2538640Y-6411296D02*
X2529116Y-6449391D01*
X2529116Y-6449391D02*
X2519593Y-6468438D01*
X2519593Y-6468438D02*
X2510069Y-6477962D01*
X2510069Y-6477962D02*
X2491021Y-6487486D01*
X2491021Y-6487486D02*
X2471973Y-6487486D01*
X2471973Y-6487486D02*
X2452926Y-6477962D01*
X2452926Y-6477962D02*
X2443402Y-6468438D01*
X2443402Y-6468438D02*
X2433878Y-6449391D01*
X2433878Y-6449391D02*
X2424354Y-6411296D01*
X2424354Y-6411296D02*
X2424354Y-6363677D01*
X2424354Y-6363677D02*
X2433878Y-6325581D01*
X2433878Y-6325581D02*
X2443402Y-6306534D01*
X2443402Y-6306534D02*
X2452926Y-6297010D01*
X2452926Y-6297010D02*
X2471973Y-6287486D01*
X2605307Y-6287486D02*
X2729116Y-6287486D01*
X2729116Y-6287486D02*
X2662450Y-6363677D01*
X2662450Y-6363677D02*
X2691021Y-6363677D01*
X2691021Y-6363677D02*
X2710069Y-6373200D01*
X2710069Y-6373200D02*
X2719593Y-6382724D01*
X2719593Y-6382724D02*
X2729116Y-6401772D01*
X2729116Y-6401772D02*
X2729116Y-6449391D01*
X2729116Y-6449391D02*
X2719593Y-6468438D01*
X2719593Y-6468438D02*
X2710069Y-6477962D01*
X2710069Y-6477962D02*
X2691021Y-6487486D01*
X2691021Y-6487486D02*
X2633878Y-6487486D01*
X2633878Y-6487486D02*
X2614831Y-6477962D01*
X2614831Y-6477962D02*
X2605307Y-6468438D01*
X2900545Y-6287486D02*
X2862450Y-6287486D01*
X2862450Y-6287486D02*
X2843402Y-6297010D01*
X2843402Y-6297010D02*
X2833878Y-6306534D01*
X2833878Y-6306534D02*
X2814831Y-6335105D01*
X2814831Y-6335105D02*
X2805307Y-6373200D01*
X2805307Y-6373200D02*
X2805307Y-6449391D01*
X2805307Y-6449391D02*
X2814831Y-6468438D01*
X2814831Y-6468438D02*
X2824354Y-6477962D01*
X2824354Y-6477962D02*
X2843402Y-6487486D01*
X2843402Y-6487486D02*
X2881497Y-6487486D01*
X2881497Y-6487486D02*
X2900545Y-6477962D01*
X2900545Y-6477962D02*
X2910069Y-6468438D01*
X2910069Y-6468438D02*
X2919592Y-6449391D01*
X2919592Y-6449391D02*
X2919592Y-6401772D01*
X2919592Y-6401772D02*
X2910069Y-6382724D01*
X2910069Y-6382724D02*
X2900545Y-6373200D01*
X2900545Y-6373200D02*
X2881497Y-6363677D01*
X2881497Y-6363677D02*
X2843402Y-6363677D01*
X2843402Y-6363677D02*
X2824354Y-6373200D01*
X2824354Y-6373200D02*
X2814831Y-6382724D01*
X2814831Y-6382724D02*
X2805307Y-6401772D01*
X3043402Y-6287486D02*
X3062450Y-6287486D01*
X3062450Y-6287486D02*
X3081497Y-6297010D01*
X3081497Y-6297010D02*
X3091021Y-6306534D01*
X3091021Y-6306534D02*
X3100545Y-6325581D01*
X3100545Y-6325581D02*
X3110069Y-6363677D01*
X3110069Y-6363677D02*
X3110069Y-6411296D01*
X3110069Y-6411296D02*
X3100545Y-6449391D01*
X3100545Y-6449391D02*
X3091021Y-6468438D01*
X3091021Y-6468438D02*
X3081497Y-6477962D01*
X3081497Y-6477962D02*
X3062450Y-6487486D01*
X3062450Y-6487486D02*
X3043402Y-6487486D01*
X3043402Y-6487486D02*
X3024354Y-6477962D01*
X3024354Y-6477962D02*
X3014831Y-6468438D01*
X3014831Y-6468438D02*
X3005307Y-6449391D01*
X3005307Y-6449391D02*
X2995783Y-6411296D01*
X2995783Y-6411296D02*
X2995783Y-6363677D01*
X2995783Y-6363677D02*
X3005307Y-6325581D01*
X3005307Y-6325581D02*
X3014831Y-6306534D01*
X3014831Y-6306534D02*
X3024354Y-6297010D01*
X3024354Y-6297010D02*
X3043402Y-6287486D01*
X3186259Y-6287486D02*
X3186259Y-6325581D01*
X3262450Y-6287486D02*
X3262450Y-6325581D01*
X3557688Y-6563677D02*
X3548164Y-6554153D01*
X3548164Y-6554153D02*
X3529116Y-6525581D01*
X3529116Y-6525581D02*
X3519593Y-6506534D01*
X3519593Y-6506534D02*
X3510069Y-6477962D01*
X3510069Y-6477962D02*
X3500545Y-6430343D01*
X3500545Y-6430343D02*
X3500545Y-6392248D01*
X3500545Y-6392248D02*
X3510069Y-6344629D01*
X3510069Y-6344629D02*
X3519593Y-6316058D01*
X3519593Y-6316058D02*
X3529116Y-6297010D01*
X3529116Y-6297010D02*
X3548164Y-6268438D01*
X3548164Y-6268438D02*
X3557688Y-6258915D01*
X3624354Y-6306534D02*
X3633878Y-6297010D01*
X3633878Y-6297010D02*
X3652926Y-6287486D01*
X3652926Y-6287486D02*
X3700545Y-6287486D01*
X3700545Y-6287486D02*
X3719593Y-6297010D01*
X3719593Y-6297010D02*
X3729116Y-6306534D01*
X3729116Y-6306534D02*
X3738640Y-6325581D01*
X3738640Y-6325581D02*
X3738640Y-6344629D01*
X3738640Y-6344629D02*
X3729116Y-6373200D01*
X3729116Y-6373200D02*
X3614831Y-6487486D01*
X3614831Y-6487486D02*
X3738640Y-6487486D01*
X3862450Y-6287486D02*
X3881497Y-6287486D01*
X3881497Y-6287486D02*
X3900545Y-6297010D01*
X3900545Y-6297010D02*
X3910069Y-6306534D01*
X3910069Y-6306534D02*
X3919593Y-6325581D01*
X3919593Y-6325581D02*
X3929116Y-6363677D01*
X3929116Y-6363677D02*
X3929116Y-6411296D01*
X3929116Y-6411296D02*
X3919593Y-6449391D01*
X3919593Y-6449391D02*
X3910069Y-6468438D01*
X3910069Y-6468438D02*
X3900545Y-6477962D01*
X3900545Y-6477962D02*
X3881497Y-6487486D01*
X3881497Y-6487486D02*
X3862450Y-6487486D01*
X3862450Y-6487486D02*
X3843402Y-6477962D01*
X3843402Y-6477962D02*
X3833878Y-6468438D01*
X3833878Y-6468438D02*
X3824354Y-6449391D01*
X3824354Y-6449391D02*
X3814831Y-6411296D01*
X3814831Y-6411296D02*
X3814831Y-6363677D01*
X3814831Y-6363677D02*
X3824354Y-6325581D01*
X3824354Y-6325581D02*
X3833878Y-6306534D01*
X3833878Y-6306534D02*
X3843402Y-6297010D01*
X3843402Y-6297010D02*
X3862450Y-6287486D01*
X4167212Y-6487486D02*
X4167212Y-6287486D01*
X4252926Y-6487486D02*
X4252926Y-6382724D01*
X4252926Y-6382724D02*
X4243402Y-6363677D01*
X4243402Y-6363677D02*
X4224355Y-6354153D01*
X4224355Y-6354153D02*
X4195783Y-6354153D01*
X4195783Y-6354153D02*
X4176735Y-6363677D01*
X4176735Y-6363677D02*
X4167212Y-6373200D01*
X4376736Y-6487486D02*
X4357688Y-6477962D01*
X4357688Y-6477962D02*
X4348164Y-6468438D01*
X4348164Y-6468438D02*
X4338640Y-6449391D01*
X4338640Y-6449391D02*
X4338640Y-6392248D01*
X4338640Y-6392248D02*
X4348164Y-6373200D01*
X4348164Y-6373200D02*
X4357688Y-6363677D01*
X4357688Y-6363677D02*
X4376736Y-6354153D01*
X4376736Y-6354153D02*
X4405307Y-6354153D01*
X4405307Y-6354153D02*
X4424355Y-6363677D01*
X4424355Y-6363677D02*
X4433878Y-6373200D01*
X4433878Y-6373200D02*
X4443402Y-6392248D01*
X4443402Y-6392248D02*
X4443402Y-6449391D01*
X4443402Y-6449391D02*
X4433878Y-6468438D01*
X4433878Y-6468438D02*
X4424355Y-6477962D01*
X4424355Y-6477962D02*
X4405307Y-6487486D01*
X4405307Y-6487486D02*
X4376736Y-6487486D01*
X4557688Y-6487486D02*
X4538640Y-6477962D01*
X4538640Y-6477962D02*
X4529117Y-6458915D01*
X4529117Y-6458915D02*
X4529117Y-6287486D01*
X4710069Y-6477962D02*
X4691021Y-6487486D01*
X4691021Y-6487486D02*
X4652926Y-6487486D01*
X4652926Y-6487486D02*
X4633878Y-6477962D01*
X4633878Y-6477962D02*
X4624355Y-6458915D01*
X4624355Y-6458915D02*
X4624355Y-6382724D01*
X4624355Y-6382724D02*
X4633878Y-6363677D01*
X4633878Y-6363677D02*
X4652926Y-6354153D01*
X4652926Y-6354153D02*
X4691021Y-6354153D01*
X4691021Y-6354153D02*
X4710069Y-6363677D01*
X4710069Y-6363677D02*
X4719593Y-6382724D01*
X4719593Y-6382724D02*
X4719593Y-6401772D01*
X4719593Y-6401772D02*
X4624355Y-6420819D01*
X4795783Y-6477962D02*
X4814831Y-6487486D01*
X4814831Y-6487486D02*
X4852926Y-6487486D01*
X4852926Y-6487486D02*
X4871974Y-6477962D01*
X4871974Y-6477962D02*
X4881498Y-6458915D01*
X4881498Y-6458915D02*
X4881498Y-6449391D01*
X4881498Y-6449391D02*
X4871974Y-6430343D01*
X4871974Y-6430343D02*
X4852926Y-6420819D01*
X4852926Y-6420819D02*
X4824355Y-6420819D01*
X4824355Y-6420819D02*
X4805307Y-6411296D01*
X4805307Y-6411296D02*
X4795783Y-6392248D01*
X4795783Y-6392248D02*
X4795783Y-6382724D01*
X4795783Y-6382724D02*
X4805307Y-6363677D01*
X4805307Y-6363677D02*
X4824355Y-6354153D01*
X4824355Y-6354153D02*
X4852926Y-6354153D01*
X4852926Y-6354153D02*
X4871974Y-6363677D01*
X4948164Y-6563677D02*
X4957688Y-6554153D01*
X4957688Y-6554153D02*
X4976736Y-6525581D01*
X4976736Y-6525581D02*
X4986259Y-6506534D01*
X4986259Y-6506534D02*
X4995783Y-6477962D01*
X4995783Y-6477962D02*
X5005307Y-6430343D01*
X5005307Y-6430343D02*
X5005307Y-6392248D01*
X5005307Y-6392248D02*
X4995783Y-6344629D01*
X4995783Y-6344629D02*
X4986259Y-6316058D01*
X4986259Y-6316058D02*
X4976736Y-6297010D01*
X4976736Y-6297010D02*
X4957688Y-6268438D01*
X4957688Y-6268438D02*
X4948164Y-6258915D01*
D11*
X-67375Y-6710002D02*
X-17375Y-6660002D01*
X-67375Y-6610002D01*
X-117375Y-6660002D01*
X-67375Y-6710002D01*
D10*
X348164Y-6751486D02*
X233878Y-6751486D01*
X291021Y-6751486D02*
X291021Y-6551486D01*
X291021Y-6551486D02*
X271973Y-6580058D01*
X271973Y-6580058D02*
X252926Y-6599105D01*
X252926Y-6599105D02*
X233878Y-6608629D01*
X443402Y-6741962D02*
X443402Y-6751486D01*
X443402Y-6751486D02*
X433878Y-6770534D01*
X433878Y-6770534D02*
X424354Y-6780058D01*
X567211Y-6551486D02*
X586259Y-6551486D01*
X586259Y-6551486D02*
X605307Y-6561010D01*
X605307Y-6561010D02*
X614830Y-6570534D01*
X614830Y-6570534D02*
X624354Y-6589581D01*
X624354Y-6589581D02*
X633878Y-6627677D01*
X633878Y-6627677D02*
X633878Y-6675296D01*
X633878Y-6675296D02*
X624354Y-6713391D01*
X624354Y-6713391D02*
X614830Y-6732438D01*
X614830Y-6732438D02*
X605307Y-6741962D01*
X605307Y-6741962D02*
X586259Y-6751486D01*
X586259Y-6751486D02*
X567211Y-6751486D01*
X567211Y-6751486D02*
X548164Y-6741962D01*
X548164Y-6741962D02*
X538640Y-6732438D01*
X538640Y-6732438D02*
X529116Y-6713391D01*
X529116Y-6713391D02*
X519592Y-6675296D01*
X519592Y-6675296D02*
X519592Y-6627677D01*
X519592Y-6627677D02*
X529116Y-6589581D01*
X529116Y-6589581D02*
X538640Y-6570534D01*
X538640Y-6570534D02*
X548164Y-6561010D01*
X548164Y-6561010D02*
X567211Y-6551486D01*
X757687Y-6551486D02*
X776735Y-6551486D01*
X776735Y-6551486D02*
X795783Y-6561010D01*
X795783Y-6561010D02*
X805307Y-6570534D01*
X805307Y-6570534D02*
X814830Y-6589581D01*
X814830Y-6589581D02*
X824354Y-6627677D01*
X824354Y-6627677D02*
X824354Y-6675296D01*
X824354Y-6675296D02*
X814830Y-6713391D01*
X814830Y-6713391D02*
X805307Y-6732438D01*
X805307Y-6732438D02*
X795783Y-6741962D01*
X795783Y-6741962D02*
X776735Y-6751486D01*
X776735Y-6751486D02*
X757687Y-6751486D01*
X757687Y-6751486D02*
X738640Y-6741962D01*
X738640Y-6741962D02*
X729116Y-6732438D01*
X729116Y-6732438D02*
X719592Y-6713391D01*
X719592Y-6713391D02*
X710068Y-6675296D01*
X710068Y-6675296D02*
X710068Y-6627677D01*
X710068Y-6627677D02*
X719592Y-6589581D01*
X719592Y-6589581D02*
X729116Y-6570534D01*
X729116Y-6570534D02*
X738640Y-6561010D01*
X738640Y-6561010D02*
X757687Y-6551486D01*
X948164Y-6551486D02*
X967211Y-6551486D01*
X967211Y-6551486D02*
X986259Y-6561010D01*
X986259Y-6561010D02*
X995783Y-6570534D01*
X995783Y-6570534D02*
X1005307Y-6589581D01*
X1005307Y-6589581D02*
X1014830Y-6627677D01*
X1014830Y-6627677D02*
X1014830Y-6675296D01*
X1014830Y-6675296D02*
X1005307Y-6713391D01*
X1005307Y-6713391D02*
X995783Y-6732438D01*
X995783Y-6732438D02*
X986259Y-6741962D01*
X986259Y-6741962D02*
X967211Y-6751486D01*
X967211Y-6751486D02*
X948164Y-6751486D01*
X948164Y-6751486D02*
X929116Y-6741962D01*
X929116Y-6741962D02*
X919592Y-6732438D01*
X919592Y-6732438D02*
X910068Y-6713391D01*
X910068Y-6713391D02*
X900545Y-6675296D01*
X900545Y-6675296D02*
X900545Y-6627677D01*
X900545Y-6627677D02*
X910068Y-6589581D01*
X910068Y-6589581D02*
X919592Y-6570534D01*
X919592Y-6570534D02*
X929116Y-6561010D01*
X929116Y-6561010D02*
X948164Y-6551486D01*
X1100545Y-6751486D02*
X1100545Y-6618153D01*
X1100545Y-6637200D02*
X1110069Y-6627677D01*
X1110069Y-6627677D02*
X1129116Y-6618153D01*
X1129116Y-6618153D02*
X1157688Y-6618153D01*
X1157688Y-6618153D02*
X1176735Y-6627677D01*
X1176735Y-6627677D02*
X1186259Y-6646724D01*
X1186259Y-6646724D02*
X1186259Y-6751486D01*
X1186259Y-6646724D02*
X1195783Y-6627677D01*
X1195783Y-6627677D02*
X1214830Y-6618153D01*
X1214830Y-6618153D02*
X1243402Y-6618153D01*
X1243402Y-6618153D02*
X1262450Y-6627677D01*
X1262450Y-6627677D02*
X1271973Y-6646724D01*
X1271973Y-6646724D02*
X1271973Y-6751486D01*
X1367211Y-6751486D02*
X1367211Y-6618153D01*
X1367211Y-6637200D02*
X1376735Y-6627677D01*
X1376735Y-6627677D02*
X1395783Y-6618153D01*
X1395783Y-6618153D02*
X1424354Y-6618153D01*
X1424354Y-6618153D02*
X1443402Y-6627677D01*
X1443402Y-6627677D02*
X1452926Y-6646724D01*
X1452926Y-6646724D02*
X1452926Y-6751486D01*
X1452926Y-6646724D02*
X1462449Y-6627677D01*
X1462449Y-6627677D02*
X1481497Y-6618153D01*
X1481497Y-6618153D02*
X1510068Y-6618153D01*
X1510068Y-6618153D02*
X1529116Y-6627677D01*
X1529116Y-6627677D02*
X1538640Y-6646724D01*
X1538640Y-6646724D02*
X1538640Y-6751486D01*
X1929116Y-6541962D02*
X1757688Y-6799105D01*
X2186259Y-6551486D02*
X2205307Y-6551486D01*
X2205307Y-6551486D02*
X2224354Y-6561010D01*
X2224354Y-6561010D02*
X2233878Y-6570534D01*
X2233878Y-6570534D02*
X2243402Y-6589581D01*
X2243402Y-6589581D02*
X2252926Y-6627677D01*
X2252926Y-6627677D02*
X2252926Y-6675296D01*
X2252926Y-6675296D02*
X2243402Y-6713391D01*
X2243402Y-6713391D02*
X2233878Y-6732438D01*
X2233878Y-6732438D02*
X2224354Y-6741962D01*
X2224354Y-6741962D02*
X2205307Y-6751486D01*
X2205307Y-6751486D02*
X2186259Y-6751486D01*
X2186259Y-6751486D02*
X2167212Y-6741962D01*
X2167212Y-6741962D02*
X2157688Y-6732438D01*
X2157688Y-6732438D02*
X2148164Y-6713391D01*
X2148164Y-6713391D02*
X2138640Y-6675296D01*
X2138640Y-6675296D02*
X2138640Y-6627677D01*
X2138640Y-6627677D02*
X2148164Y-6589581D01*
X2148164Y-6589581D02*
X2157688Y-6570534D01*
X2157688Y-6570534D02*
X2167212Y-6561010D01*
X2167212Y-6561010D02*
X2186259Y-6551486D01*
X2348164Y-6741962D02*
X2348164Y-6751486D01*
X2348164Y-6751486D02*
X2338640Y-6770534D01*
X2338640Y-6770534D02*
X2329116Y-6780058D01*
X2471973Y-6551486D02*
X2491021Y-6551486D01*
X2491021Y-6551486D02*
X2510069Y-6561010D01*
X2510069Y-6561010D02*
X2519593Y-6570534D01*
X2519593Y-6570534D02*
X2529116Y-6589581D01*
X2529116Y-6589581D02*
X2538640Y-6627677D01*
X2538640Y-6627677D02*
X2538640Y-6675296D01*
X2538640Y-6675296D02*
X2529116Y-6713391D01*
X2529116Y-6713391D02*
X2519593Y-6732438D01*
X2519593Y-6732438D02*
X2510069Y-6741962D01*
X2510069Y-6741962D02*
X2491021Y-6751486D01*
X2491021Y-6751486D02*
X2471973Y-6751486D01*
X2471973Y-6751486D02*
X2452926Y-6741962D01*
X2452926Y-6741962D02*
X2443402Y-6732438D01*
X2443402Y-6732438D02*
X2433878Y-6713391D01*
X2433878Y-6713391D02*
X2424354Y-6675296D01*
X2424354Y-6675296D02*
X2424354Y-6627677D01*
X2424354Y-6627677D02*
X2433878Y-6589581D01*
X2433878Y-6589581D02*
X2443402Y-6570534D01*
X2443402Y-6570534D02*
X2452926Y-6561010D01*
X2452926Y-6561010D02*
X2471973Y-6551486D01*
X2605307Y-6551486D02*
X2729116Y-6551486D01*
X2729116Y-6551486D02*
X2662450Y-6627677D01*
X2662450Y-6627677D02*
X2691021Y-6627677D01*
X2691021Y-6627677D02*
X2710069Y-6637200D01*
X2710069Y-6637200D02*
X2719593Y-6646724D01*
X2719593Y-6646724D02*
X2729116Y-6665772D01*
X2729116Y-6665772D02*
X2729116Y-6713391D01*
X2729116Y-6713391D02*
X2719593Y-6732438D01*
X2719593Y-6732438D02*
X2710069Y-6741962D01*
X2710069Y-6741962D02*
X2691021Y-6751486D01*
X2691021Y-6751486D02*
X2633878Y-6751486D01*
X2633878Y-6751486D02*
X2614831Y-6741962D01*
X2614831Y-6741962D02*
X2605307Y-6732438D01*
X2824354Y-6751486D02*
X2862450Y-6751486D01*
X2862450Y-6751486D02*
X2881497Y-6741962D01*
X2881497Y-6741962D02*
X2891021Y-6732438D01*
X2891021Y-6732438D02*
X2910069Y-6703867D01*
X2910069Y-6703867D02*
X2919592Y-6665772D01*
X2919592Y-6665772D02*
X2919592Y-6589581D01*
X2919592Y-6589581D02*
X2910069Y-6570534D01*
X2910069Y-6570534D02*
X2900545Y-6561010D01*
X2900545Y-6561010D02*
X2881497Y-6551486D01*
X2881497Y-6551486D02*
X2843402Y-6551486D01*
X2843402Y-6551486D02*
X2824354Y-6561010D01*
X2824354Y-6561010D02*
X2814831Y-6570534D01*
X2814831Y-6570534D02*
X2805307Y-6589581D01*
X2805307Y-6589581D02*
X2805307Y-6637200D01*
X2805307Y-6637200D02*
X2814831Y-6656248D01*
X2814831Y-6656248D02*
X2824354Y-6665772D01*
X2824354Y-6665772D02*
X2843402Y-6675296D01*
X2843402Y-6675296D02*
X2881497Y-6675296D01*
X2881497Y-6675296D02*
X2900545Y-6665772D01*
X2900545Y-6665772D02*
X2910069Y-6656248D01*
X2910069Y-6656248D02*
X2919592Y-6637200D01*
X3091021Y-6618153D02*
X3091021Y-6751486D01*
X3043402Y-6541962D02*
X2995783Y-6684819D01*
X2995783Y-6684819D02*
X3119592Y-6684819D01*
X3186259Y-6551486D02*
X3186259Y-6589581D01*
X3262450Y-6551486D02*
X3262450Y-6589581D01*
X3557688Y-6827677D02*
X3548164Y-6818153D01*
X3548164Y-6818153D02*
X3529116Y-6789581D01*
X3529116Y-6789581D02*
X3519593Y-6770534D01*
X3519593Y-6770534D02*
X3510069Y-6741962D01*
X3510069Y-6741962D02*
X3500545Y-6694343D01*
X3500545Y-6694343D02*
X3500545Y-6656248D01*
X3500545Y-6656248D02*
X3510069Y-6608629D01*
X3510069Y-6608629D02*
X3519593Y-6580058D01*
X3519593Y-6580058D02*
X3529116Y-6561010D01*
X3529116Y-6561010D02*
X3548164Y-6532438D01*
X3548164Y-6532438D02*
X3557688Y-6522915D01*
X3614831Y-6551486D02*
X3748164Y-6551486D01*
X3748164Y-6551486D02*
X3662450Y-6751486D01*
X3976735Y-6751486D02*
X3976735Y-6551486D01*
X4062450Y-6751486D02*
X4062450Y-6646724D01*
X4062450Y-6646724D02*
X4052926Y-6627677D01*
X4052926Y-6627677D02*
X4033878Y-6618153D01*
X4033878Y-6618153D02*
X4005307Y-6618153D01*
X4005307Y-6618153D02*
X3986259Y-6627677D01*
X3986259Y-6627677D02*
X3976735Y-6637200D01*
X4186259Y-6751486D02*
X4167212Y-6741962D01*
X4167212Y-6741962D02*
X4157688Y-6732438D01*
X4157688Y-6732438D02*
X4148164Y-6713391D01*
X4148164Y-6713391D02*
X4148164Y-6656248D01*
X4148164Y-6656248D02*
X4157688Y-6637200D01*
X4157688Y-6637200D02*
X4167212Y-6627677D01*
X4167212Y-6627677D02*
X4186259Y-6618153D01*
X4186259Y-6618153D02*
X4214831Y-6618153D01*
X4214831Y-6618153D02*
X4233878Y-6627677D01*
X4233878Y-6627677D02*
X4243402Y-6637200D01*
X4243402Y-6637200D02*
X4252926Y-6656248D01*
X4252926Y-6656248D02*
X4252926Y-6713391D01*
X4252926Y-6713391D02*
X4243402Y-6732438D01*
X4243402Y-6732438D02*
X4233878Y-6741962D01*
X4233878Y-6741962D02*
X4214831Y-6751486D01*
X4214831Y-6751486D02*
X4186259Y-6751486D01*
X4367212Y-6751486D02*
X4348164Y-6741962D01*
X4348164Y-6741962D02*
X4338640Y-6722915D01*
X4338640Y-6722915D02*
X4338640Y-6551486D01*
X4519593Y-6741962D02*
X4500545Y-6751486D01*
X4500545Y-6751486D02*
X4462450Y-6751486D01*
X4462450Y-6751486D02*
X4443402Y-6741962D01*
X4443402Y-6741962D02*
X4433878Y-6722915D01*
X4433878Y-6722915D02*
X4433878Y-6646724D01*
X4433878Y-6646724D02*
X4443402Y-6627677D01*
X4443402Y-6627677D02*
X4462450Y-6618153D01*
X4462450Y-6618153D02*
X4500545Y-6618153D01*
X4500545Y-6618153D02*
X4519593Y-6627677D01*
X4519593Y-6627677D02*
X4529117Y-6646724D01*
X4529117Y-6646724D02*
X4529117Y-6665772D01*
X4529117Y-6665772D02*
X4433878Y-6684819D01*
X4605307Y-6741962D02*
X4624355Y-6751486D01*
X4624355Y-6751486D02*
X4662450Y-6751486D01*
X4662450Y-6751486D02*
X4681498Y-6741962D01*
X4681498Y-6741962D02*
X4691021Y-6722915D01*
X4691021Y-6722915D02*
X4691021Y-6713391D01*
X4691021Y-6713391D02*
X4681498Y-6694343D01*
X4681498Y-6694343D02*
X4662450Y-6684819D01*
X4662450Y-6684819D02*
X4633878Y-6684819D01*
X4633878Y-6684819D02*
X4614831Y-6675296D01*
X4614831Y-6675296D02*
X4605307Y-6656248D01*
X4605307Y-6656248D02*
X4605307Y-6646724D01*
X4605307Y-6646724D02*
X4614831Y-6627677D01*
X4614831Y-6627677D02*
X4633878Y-6618153D01*
X4633878Y-6618153D02*
X4662450Y-6618153D01*
X4662450Y-6618153D02*
X4681498Y-6627677D01*
X4757688Y-6827677D02*
X4767212Y-6818153D01*
X4767212Y-6818153D02*
X4786259Y-6789581D01*
X4786259Y-6789581D02*
X4795783Y-6770534D01*
X4795783Y-6770534D02*
X4805307Y-6741962D01*
X4805307Y-6741962D02*
X4814831Y-6694343D01*
X4814831Y-6694343D02*
X4814831Y-6656248D01*
X4814831Y-6656248D02*
X4805307Y-6608629D01*
X4805307Y-6608629D02*
X4795783Y-6580058D01*
X4795783Y-6580058D02*
X4786259Y-6561010D01*
X4786259Y-6561010D02*
X4767212Y-6532438D01*
X4767212Y-6532438D02*
X4757688Y-6522915D01*
D12*
X-118975Y-6873202D02*
X-17375Y-6974802D01*
X-17375Y-6873202D02*
X-118975Y-6974802D01*
X-17375Y-6924002D02*
G75*
G02*
X-118975Y-6924002I-50800J0D01*
G01*
X-118975Y-6924002D02*
G75*
G02*
X-17375Y-6924002I50800J0D01*
G01*
D10*
X348164Y-7015486D02*
X233878Y-7015486D01*
X291021Y-7015486D02*
X291021Y-6815486D01*
X291021Y-6815486D02*
X271973Y-6844058D01*
X271973Y-6844058D02*
X252926Y-6863105D01*
X252926Y-6863105D02*
X233878Y-6872629D01*
X443402Y-7005962D02*
X443402Y-7015486D01*
X443402Y-7015486D02*
X433878Y-7034534D01*
X433878Y-7034534D02*
X424354Y-7044058D01*
X567211Y-6815486D02*
X586259Y-6815486D01*
X586259Y-6815486D02*
X605307Y-6825010D01*
X605307Y-6825010D02*
X614830Y-6834534D01*
X614830Y-6834534D02*
X624354Y-6853581D01*
X624354Y-6853581D02*
X633878Y-6891677D01*
X633878Y-6891677D02*
X633878Y-6939296D01*
X633878Y-6939296D02*
X624354Y-6977391D01*
X624354Y-6977391D02*
X614830Y-6996438D01*
X614830Y-6996438D02*
X605307Y-7005962D01*
X605307Y-7005962D02*
X586259Y-7015486D01*
X586259Y-7015486D02*
X567211Y-7015486D01*
X567211Y-7015486D02*
X548164Y-7005962D01*
X548164Y-7005962D02*
X538640Y-6996438D01*
X538640Y-6996438D02*
X529116Y-6977391D01*
X529116Y-6977391D02*
X519592Y-6939296D01*
X519592Y-6939296D02*
X519592Y-6891677D01*
X519592Y-6891677D02*
X529116Y-6853581D01*
X529116Y-6853581D02*
X538640Y-6834534D01*
X538640Y-6834534D02*
X548164Y-6825010D01*
X548164Y-6825010D02*
X567211Y-6815486D01*
X824354Y-7015486D02*
X710068Y-7015486D01*
X767211Y-7015486D02*
X767211Y-6815486D01*
X767211Y-6815486D02*
X748164Y-6844058D01*
X748164Y-6844058D02*
X729116Y-6863105D01*
X729116Y-6863105D02*
X710068Y-6872629D01*
X995783Y-6815486D02*
X957687Y-6815486D01*
X957687Y-6815486D02*
X938640Y-6825010D01*
X938640Y-6825010D02*
X929116Y-6834534D01*
X929116Y-6834534D02*
X910068Y-6863105D01*
X910068Y-6863105D02*
X900545Y-6901200D01*
X900545Y-6901200D02*
X900545Y-6977391D01*
X900545Y-6977391D02*
X910068Y-6996438D01*
X910068Y-6996438D02*
X919592Y-7005962D01*
X919592Y-7005962D02*
X938640Y-7015486D01*
X938640Y-7015486D02*
X976735Y-7015486D01*
X976735Y-7015486D02*
X995783Y-7005962D01*
X995783Y-7005962D02*
X1005307Y-6996438D01*
X1005307Y-6996438D02*
X1014830Y-6977391D01*
X1014830Y-6977391D02*
X1014830Y-6929772D01*
X1014830Y-6929772D02*
X1005307Y-6910724D01*
X1005307Y-6910724D02*
X995783Y-6901200D01*
X995783Y-6901200D02*
X976735Y-6891677D01*
X976735Y-6891677D02*
X938640Y-6891677D01*
X938640Y-6891677D02*
X919592Y-6901200D01*
X919592Y-6901200D02*
X910068Y-6910724D01*
X910068Y-6910724D02*
X900545Y-6929772D01*
X1100545Y-7015486D02*
X1100545Y-6882153D01*
X1100545Y-6901200D02*
X1110069Y-6891677D01*
X1110069Y-6891677D02*
X1129116Y-6882153D01*
X1129116Y-6882153D02*
X1157688Y-6882153D01*
X1157688Y-6882153D02*
X1176735Y-6891677D01*
X1176735Y-6891677D02*
X1186259Y-6910724D01*
X1186259Y-6910724D02*
X1186259Y-7015486D01*
X1186259Y-6910724D02*
X1195783Y-6891677D01*
X1195783Y-6891677D02*
X1214830Y-6882153D01*
X1214830Y-6882153D02*
X1243402Y-6882153D01*
X1243402Y-6882153D02*
X1262450Y-6891677D01*
X1262450Y-6891677D02*
X1271973Y-6910724D01*
X1271973Y-6910724D02*
X1271973Y-7015486D01*
X1367211Y-7015486D02*
X1367211Y-6882153D01*
X1367211Y-6901200D02*
X1376735Y-6891677D01*
X1376735Y-6891677D02*
X1395783Y-6882153D01*
X1395783Y-6882153D02*
X1424354Y-6882153D01*
X1424354Y-6882153D02*
X1443402Y-6891677D01*
X1443402Y-6891677D02*
X1452926Y-6910724D01*
X1452926Y-6910724D02*
X1452926Y-7015486D01*
X1452926Y-6910724D02*
X1462449Y-6891677D01*
X1462449Y-6891677D02*
X1481497Y-6882153D01*
X1481497Y-6882153D02*
X1510068Y-6882153D01*
X1510068Y-6882153D02*
X1529116Y-6891677D01*
X1529116Y-6891677D02*
X1538640Y-6910724D01*
X1538640Y-6910724D02*
X1538640Y-7015486D01*
X1929116Y-6805962D02*
X1757688Y-7063105D01*
X2186259Y-6815486D02*
X2205307Y-6815486D01*
X2205307Y-6815486D02*
X2224354Y-6825010D01*
X2224354Y-6825010D02*
X2233878Y-6834534D01*
X2233878Y-6834534D02*
X2243402Y-6853581D01*
X2243402Y-6853581D02*
X2252926Y-6891677D01*
X2252926Y-6891677D02*
X2252926Y-6939296D01*
X2252926Y-6939296D02*
X2243402Y-6977391D01*
X2243402Y-6977391D02*
X2233878Y-6996438D01*
X2233878Y-6996438D02*
X2224354Y-7005962D01*
X2224354Y-7005962D02*
X2205307Y-7015486D01*
X2205307Y-7015486D02*
X2186259Y-7015486D01*
X2186259Y-7015486D02*
X2167212Y-7005962D01*
X2167212Y-7005962D02*
X2157688Y-6996438D01*
X2157688Y-6996438D02*
X2148164Y-6977391D01*
X2148164Y-6977391D02*
X2138640Y-6939296D01*
X2138640Y-6939296D02*
X2138640Y-6891677D01*
X2138640Y-6891677D02*
X2148164Y-6853581D01*
X2148164Y-6853581D02*
X2157688Y-6834534D01*
X2157688Y-6834534D02*
X2167212Y-6825010D01*
X2167212Y-6825010D02*
X2186259Y-6815486D01*
X2348164Y-7005962D02*
X2348164Y-7015486D01*
X2348164Y-7015486D02*
X2338640Y-7034534D01*
X2338640Y-7034534D02*
X2329116Y-7044058D01*
X2471973Y-6815486D02*
X2491021Y-6815486D01*
X2491021Y-6815486D02*
X2510069Y-6825010D01*
X2510069Y-6825010D02*
X2519593Y-6834534D01*
X2519593Y-6834534D02*
X2529116Y-6853581D01*
X2529116Y-6853581D02*
X2538640Y-6891677D01*
X2538640Y-6891677D02*
X2538640Y-6939296D01*
X2538640Y-6939296D02*
X2529116Y-6977391D01*
X2529116Y-6977391D02*
X2519593Y-6996438D01*
X2519593Y-6996438D02*
X2510069Y-7005962D01*
X2510069Y-7005962D02*
X2491021Y-7015486D01*
X2491021Y-7015486D02*
X2471973Y-7015486D01*
X2471973Y-7015486D02*
X2452926Y-7005962D01*
X2452926Y-7005962D02*
X2443402Y-6996438D01*
X2443402Y-6996438D02*
X2433878Y-6977391D01*
X2433878Y-6977391D02*
X2424354Y-6939296D01*
X2424354Y-6939296D02*
X2424354Y-6891677D01*
X2424354Y-6891677D02*
X2433878Y-6853581D01*
X2433878Y-6853581D02*
X2443402Y-6834534D01*
X2443402Y-6834534D02*
X2452926Y-6825010D01*
X2452926Y-6825010D02*
X2471973Y-6815486D01*
X2710069Y-6882153D02*
X2710069Y-7015486D01*
X2662450Y-6805962D02*
X2614831Y-6948819D01*
X2614831Y-6948819D02*
X2738640Y-6948819D01*
X2852926Y-6815486D02*
X2871973Y-6815486D01*
X2871973Y-6815486D02*
X2891021Y-6825010D01*
X2891021Y-6825010D02*
X2900545Y-6834534D01*
X2900545Y-6834534D02*
X2910069Y-6853581D01*
X2910069Y-6853581D02*
X2919592Y-6891677D01*
X2919592Y-6891677D02*
X2919592Y-6939296D01*
X2919592Y-6939296D02*
X2910069Y-6977391D01*
X2910069Y-6977391D02*
X2900545Y-6996438D01*
X2900545Y-6996438D02*
X2891021Y-7005962D01*
X2891021Y-7005962D02*
X2871973Y-7015486D01*
X2871973Y-7015486D02*
X2852926Y-7015486D01*
X2852926Y-7015486D02*
X2833878Y-7005962D01*
X2833878Y-7005962D02*
X2824354Y-6996438D01*
X2824354Y-6996438D02*
X2814831Y-6977391D01*
X2814831Y-6977391D02*
X2805307Y-6939296D01*
X2805307Y-6939296D02*
X2805307Y-6891677D01*
X2805307Y-6891677D02*
X2814831Y-6853581D01*
X2814831Y-6853581D02*
X2824354Y-6834534D01*
X2824354Y-6834534D02*
X2833878Y-6825010D01*
X2833878Y-6825010D02*
X2852926Y-6815486D01*
X3043402Y-6815486D02*
X3062450Y-6815486D01*
X3062450Y-6815486D02*
X3081497Y-6825010D01*
X3081497Y-6825010D02*
X3091021Y-6834534D01*
X3091021Y-6834534D02*
X3100545Y-6853581D01*
X3100545Y-6853581D02*
X3110069Y-6891677D01*
X3110069Y-6891677D02*
X3110069Y-6939296D01*
X3110069Y-6939296D02*
X3100545Y-6977391D01*
X3100545Y-6977391D02*
X3091021Y-6996438D01*
X3091021Y-6996438D02*
X3081497Y-7005962D01*
X3081497Y-7005962D02*
X3062450Y-7015486D01*
X3062450Y-7015486D02*
X3043402Y-7015486D01*
X3043402Y-7015486D02*
X3024354Y-7005962D01*
X3024354Y-7005962D02*
X3014831Y-6996438D01*
X3014831Y-6996438D02*
X3005307Y-6977391D01*
X3005307Y-6977391D02*
X2995783Y-6939296D01*
X2995783Y-6939296D02*
X2995783Y-6891677D01*
X2995783Y-6891677D02*
X3005307Y-6853581D01*
X3005307Y-6853581D02*
X3014831Y-6834534D01*
X3014831Y-6834534D02*
X3024354Y-6825010D01*
X3024354Y-6825010D02*
X3043402Y-6815486D01*
X3186259Y-6815486D02*
X3186259Y-6853581D01*
X3262450Y-6815486D02*
X3262450Y-6853581D01*
X3557688Y-7091677D02*
X3548164Y-7082153D01*
X3548164Y-7082153D02*
X3529116Y-7053581D01*
X3529116Y-7053581D02*
X3519593Y-7034534D01*
X3519593Y-7034534D02*
X3510069Y-7005962D01*
X3510069Y-7005962D02*
X3500545Y-6958343D01*
X3500545Y-6958343D02*
X3500545Y-6920248D01*
X3500545Y-6920248D02*
X3510069Y-6872629D01*
X3510069Y-6872629D02*
X3519593Y-6844058D01*
X3519593Y-6844058D02*
X3529116Y-6825010D01*
X3529116Y-6825010D02*
X3548164Y-6796438D01*
X3548164Y-6796438D02*
X3557688Y-6786915D01*
X3614831Y-6815486D02*
X3738640Y-6815486D01*
X3738640Y-6815486D02*
X3671973Y-6891677D01*
X3671973Y-6891677D02*
X3700545Y-6891677D01*
X3700545Y-6891677D02*
X3719593Y-6901200D01*
X3719593Y-6901200D02*
X3729116Y-6910724D01*
X3729116Y-6910724D02*
X3738640Y-6929772D01*
X3738640Y-6929772D02*
X3738640Y-6977391D01*
X3738640Y-6977391D02*
X3729116Y-6996438D01*
X3729116Y-6996438D02*
X3719593Y-7005962D01*
X3719593Y-7005962D02*
X3700545Y-7015486D01*
X3700545Y-7015486D02*
X3643402Y-7015486D01*
X3643402Y-7015486D02*
X3624354Y-7005962D01*
X3624354Y-7005962D02*
X3614831Y-6996438D01*
X3910069Y-6882153D02*
X3910069Y-7015486D01*
X3862450Y-6805962D02*
X3814831Y-6948819D01*
X3814831Y-6948819D02*
X3938640Y-6948819D01*
X4167212Y-7015486D02*
X4167212Y-6815486D01*
X4252926Y-7015486D02*
X4252926Y-6910724D01*
X4252926Y-6910724D02*
X4243402Y-6891677D01*
X4243402Y-6891677D02*
X4224355Y-6882153D01*
X4224355Y-6882153D02*
X4195783Y-6882153D01*
X4195783Y-6882153D02*
X4176735Y-6891677D01*
X4176735Y-6891677D02*
X4167212Y-6901200D01*
X4376736Y-7015486D02*
X4357688Y-7005962D01*
X4357688Y-7005962D02*
X4348164Y-6996438D01*
X4348164Y-6996438D02*
X4338640Y-6977391D01*
X4338640Y-6977391D02*
X4338640Y-6920248D01*
X4338640Y-6920248D02*
X4348164Y-6901200D01*
X4348164Y-6901200D02*
X4357688Y-6891677D01*
X4357688Y-6891677D02*
X4376736Y-6882153D01*
X4376736Y-6882153D02*
X4405307Y-6882153D01*
X4405307Y-6882153D02*
X4424355Y-6891677D01*
X4424355Y-6891677D02*
X4433878Y-6901200D01*
X4433878Y-6901200D02*
X4443402Y-6920248D01*
X4443402Y-6920248D02*
X4443402Y-6977391D01*
X4443402Y-6977391D02*
X4433878Y-6996438D01*
X4433878Y-6996438D02*
X4424355Y-7005962D01*
X4424355Y-7005962D02*
X4405307Y-7015486D01*
X4405307Y-7015486D02*
X4376736Y-7015486D01*
X4557688Y-7015486D02*
X4538640Y-7005962D01*
X4538640Y-7005962D02*
X4529117Y-6986915D01*
X4529117Y-6986915D02*
X4529117Y-6815486D01*
X4710069Y-7005962D02*
X4691021Y-7015486D01*
X4691021Y-7015486D02*
X4652926Y-7015486D01*
X4652926Y-7015486D02*
X4633878Y-7005962D01*
X4633878Y-7005962D02*
X4624355Y-6986915D01*
X4624355Y-6986915D02*
X4624355Y-6910724D01*
X4624355Y-6910724D02*
X4633878Y-6891677D01*
X4633878Y-6891677D02*
X4652926Y-6882153D01*
X4652926Y-6882153D02*
X4691021Y-6882153D01*
X4691021Y-6882153D02*
X4710069Y-6891677D01*
X4710069Y-6891677D02*
X4719593Y-6910724D01*
X4719593Y-6910724D02*
X4719593Y-6929772D01*
X4719593Y-6929772D02*
X4624355Y-6948819D01*
X4795783Y-7005962D02*
X4814831Y-7015486D01*
X4814831Y-7015486D02*
X4852926Y-7015486D01*
X4852926Y-7015486D02*
X4871974Y-7005962D01*
X4871974Y-7005962D02*
X4881498Y-6986915D01*
X4881498Y-6986915D02*
X4881498Y-6977391D01*
X4881498Y-6977391D02*
X4871974Y-6958343D01*
X4871974Y-6958343D02*
X4852926Y-6948819D01*
X4852926Y-6948819D02*
X4824355Y-6948819D01*
X4824355Y-6948819D02*
X4805307Y-6939296D01*
X4805307Y-6939296D02*
X4795783Y-6920248D01*
X4795783Y-6920248D02*
X4795783Y-6910724D01*
X4795783Y-6910724D02*
X4805307Y-6891677D01*
X4805307Y-6891677D02*
X4824355Y-6882153D01*
X4824355Y-6882153D02*
X4852926Y-6882153D01*
X4852926Y-6882153D02*
X4871974Y-6891677D01*
X4948164Y-7091677D02*
X4957688Y-7082153D01*
X4957688Y-7082153D02*
X4976736Y-7053581D01*
X4976736Y-7053581D02*
X4986259Y-7034534D01*
X4986259Y-7034534D02*
X4995783Y-7005962D01*
X4995783Y-7005962D02*
X5005307Y-6958343D01*
X5005307Y-6958343D02*
X5005307Y-6920248D01*
X5005307Y-6920248D02*
X4995783Y-6872629D01*
X4995783Y-6872629D02*
X4986259Y-6844058D01*
X4986259Y-6844058D02*
X4976736Y-6825010D01*
X4976736Y-6825010D02*
X4957688Y-6796438D01*
X4957688Y-6796438D02*
X4948164Y-6786915D01*
X-217375Y-7088002D02*
X-17375Y-7288002D01*
X-17375Y-7088002D02*
X-217375Y-7288002D01*
X-117375Y-7088002D02*
X-117375Y-7288002D01*
X-217375Y-7188002D02*
X-17375Y-7188002D01*
X224354Y-7079486D02*
X348164Y-7079486D01*
X348164Y-7079486D02*
X281497Y-7155677D01*
X281497Y-7155677D02*
X310069Y-7155677D01*
X310069Y-7155677D02*
X329116Y-7165200D01*
X329116Y-7165200D02*
X338640Y-7174724D01*
X338640Y-7174724D02*
X348164Y-7193772D01*
X348164Y-7193772D02*
X348164Y-7241391D01*
X348164Y-7241391D02*
X338640Y-7260438D01*
X338640Y-7260438D02*
X329116Y-7269962D01*
X329116Y-7269962D02*
X310069Y-7279486D01*
X310069Y-7279486D02*
X252926Y-7279486D01*
X252926Y-7279486D02*
X233878Y-7269962D01*
X233878Y-7269962D02*
X224354Y-7260438D01*
X443402Y-7269962D02*
X443402Y-7279486D01*
X443402Y-7279486D02*
X433878Y-7298534D01*
X433878Y-7298534D02*
X424354Y-7308058D01*
X519592Y-7098534D02*
X529116Y-7089010D01*
X529116Y-7089010D02*
X548164Y-7079486D01*
X548164Y-7079486D02*
X595783Y-7079486D01*
X595783Y-7079486D02*
X614830Y-7089010D01*
X614830Y-7089010D02*
X624354Y-7098534D01*
X624354Y-7098534D02*
X633878Y-7117581D01*
X633878Y-7117581D02*
X633878Y-7136629D01*
X633878Y-7136629D02*
X624354Y-7165200D01*
X624354Y-7165200D02*
X510068Y-7279486D01*
X510068Y-7279486D02*
X633878Y-7279486D01*
X757687Y-7079486D02*
X776735Y-7079486D01*
X776735Y-7079486D02*
X795783Y-7089010D01*
X795783Y-7089010D02*
X805307Y-7098534D01*
X805307Y-7098534D02*
X814830Y-7117581D01*
X814830Y-7117581D02*
X824354Y-7155677D01*
X824354Y-7155677D02*
X824354Y-7203296D01*
X824354Y-7203296D02*
X814830Y-7241391D01*
X814830Y-7241391D02*
X805307Y-7260438D01*
X805307Y-7260438D02*
X795783Y-7269962D01*
X795783Y-7269962D02*
X776735Y-7279486D01*
X776735Y-7279486D02*
X757687Y-7279486D01*
X757687Y-7279486D02*
X738640Y-7269962D01*
X738640Y-7269962D02*
X729116Y-7260438D01*
X729116Y-7260438D02*
X719592Y-7241391D01*
X719592Y-7241391D02*
X710068Y-7203296D01*
X710068Y-7203296D02*
X710068Y-7155677D01*
X710068Y-7155677D02*
X719592Y-7117581D01*
X719592Y-7117581D02*
X729116Y-7098534D01*
X729116Y-7098534D02*
X738640Y-7089010D01*
X738640Y-7089010D02*
X757687Y-7079486D01*
X948164Y-7079486D02*
X967211Y-7079486D01*
X967211Y-7079486D02*
X986259Y-7089010D01*
X986259Y-7089010D02*
X995783Y-7098534D01*
X995783Y-7098534D02*
X1005307Y-7117581D01*
X1005307Y-7117581D02*
X1014830Y-7155677D01*
X1014830Y-7155677D02*
X1014830Y-7203296D01*
X1014830Y-7203296D02*
X1005307Y-7241391D01*
X1005307Y-7241391D02*
X995783Y-7260438D01*
X995783Y-7260438D02*
X986259Y-7269962D01*
X986259Y-7269962D02*
X967211Y-7279486D01*
X967211Y-7279486D02*
X948164Y-7279486D01*
X948164Y-7279486D02*
X929116Y-7269962D01*
X929116Y-7269962D02*
X919592Y-7260438D01*
X919592Y-7260438D02*
X910068Y-7241391D01*
X910068Y-7241391D02*
X900545Y-7203296D01*
X900545Y-7203296D02*
X900545Y-7155677D01*
X900545Y-7155677D02*
X910068Y-7117581D01*
X910068Y-7117581D02*
X919592Y-7098534D01*
X919592Y-7098534D02*
X929116Y-7089010D01*
X929116Y-7089010D02*
X948164Y-7079486D01*
X1100545Y-7279486D02*
X1100545Y-7146153D01*
X1100545Y-7165200D02*
X1110069Y-7155677D01*
X1110069Y-7155677D02*
X1129116Y-7146153D01*
X1129116Y-7146153D02*
X1157688Y-7146153D01*
X1157688Y-7146153D02*
X1176735Y-7155677D01*
X1176735Y-7155677D02*
X1186259Y-7174724D01*
X1186259Y-7174724D02*
X1186259Y-7279486D01*
X1186259Y-7174724D02*
X1195783Y-7155677D01*
X1195783Y-7155677D02*
X1214830Y-7146153D01*
X1214830Y-7146153D02*
X1243402Y-7146153D01*
X1243402Y-7146153D02*
X1262450Y-7155677D01*
X1262450Y-7155677D02*
X1271973Y-7174724D01*
X1271973Y-7174724D02*
X1271973Y-7279486D01*
X1367211Y-7279486D02*
X1367211Y-7146153D01*
X1367211Y-7165200D02*
X1376735Y-7155677D01*
X1376735Y-7155677D02*
X1395783Y-7146153D01*
X1395783Y-7146153D02*
X1424354Y-7146153D01*
X1424354Y-7146153D02*
X1443402Y-7155677D01*
X1443402Y-7155677D02*
X1452926Y-7174724D01*
X1452926Y-7174724D02*
X1452926Y-7279486D01*
X1452926Y-7174724D02*
X1462449Y-7155677D01*
X1462449Y-7155677D02*
X1481497Y-7146153D01*
X1481497Y-7146153D02*
X1510068Y-7146153D01*
X1510068Y-7146153D02*
X1529116Y-7155677D01*
X1529116Y-7155677D02*
X1538640Y-7174724D01*
X1538640Y-7174724D02*
X1538640Y-7279486D01*
X1929116Y-7069962D02*
X1757688Y-7327105D01*
X2186259Y-7079486D02*
X2205307Y-7079486D01*
X2205307Y-7079486D02*
X2224354Y-7089010D01*
X2224354Y-7089010D02*
X2233878Y-7098534D01*
X2233878Y-7098534D02*
X2243402Y-7117581D01*
X2243402Y-7117581D02*
X2252926Y-7155677D01*
X2252926Y-7155677D02*
X2252926Y-7203296D01*
X2252926Y-7203296D02*
X2243402Y-7241391D01*
X2243402Y-7241391D02*
X2233878Y-7260438D01*
X2233878Y-7260438D02*
X2224354Y-7269962D01*
X2224354Y-7269962D02*
X2205307Y-7279486D01*
X2205307Y-7279486D02*
X2186259Y-7279486D01*
X2186259Y-7279486D02*
X2167212Y-7269962D01*
X2167212Y-7269962D02*
X2157688Y-7260438D01*
X2157688Y-7260438D02*
X2148164Y-7241391D01*
X2148164Y-7241391D02*
X2138640Y-7203296D01*
X2138640Y-7203296D02*
X2138640Y-7155677D01*
X2138640Y-7155677D02*
X2148164Y-7117581D01*
X2148164Y-7117581D02*
X2157688Y-7098534D01*
X2157688Y-7098534D02*
X2167212Y-7089010D01*
X2167212Y-7089010D02*
X2186259Y-7079486D01*
X2348164Y-7269962D02*
X2348164Y-7279486D01*
X2348164Y-7279486D02*
X2338640Y-7298534D01*
X2338640Y-7298534D02*
X2329116Y-7308058D01*
X2538640Y-7279486D02*
X2424354Y-7279486D01*
X2481497Y-7279486D02*
X2481497Y-7079486D01*
X2481497Y-7079486D02*
X2462450Y-7108058D01*
X2462450Y-7108058D02*
X2443402Y-7127105D01*
X2443402Y-7127105D02*
X2424354Y-7136629D01*
X2614831Y-7098534D02*
X2624354Y-7089010D01*
X2624354Y-7089010D02*
X2643402Y-7079486D01*
X2643402Y-7079486D02*
X2691021Y-7079486D01*
X2691021Y-7079486D02*
X2710069Y-7089010D01*
X2710069Y-7089010D02*
X2719593Y-7098534D01*
X2719593Y-7098534D02*
X2729116Y-7117581D01*
X2729116Y-7117581D02*
X2729116Y-7136629D01*
X2729116Y-7136629D02*
X2719593Y-7165200D01*
X2719593Y-7165200D02*
X2605307Y-7279486D01*
X2605307Y-7279486D02*
X2729116Y-7279486D01*
X2900545Y-7079486D02*
X2862450Y-7079486D01*
X2862450Y-7079486D02*
X2843402Y-7089010D01*
X2843402Y-7089010D02*
X2833878Y-7098534D01*
X2833878Y-7098534D02*
X2814831Y-7127105D01*
X2814831Y-7127105D02*
X2805307Y-7165200D01*
X2805307Y-7165200D02*
X2805307Y-7241391D01*
X2805307Y-7241391D02*
X2814831Y-7260438D01*
X2814831Y-7260438D02*
X2824354Y-7269962D01*
X2824354Y-7269962D02*
X2843402Y-7279486D01*
X2843402Y-7279486D02*
X2881497Y-7279486D01*
X2881497Y-7279486D02*
X2900545Y-7269962D01*
X2900545Y-7269962D02*
X2910069Y-7260438D01*
X2910069Y-7260438D02*
X2919592Y-7241391D01*
X2919592Y-7241391D02*
X2919592Y-7193772D01*
X2919592Y-7193772D02*
X2910069Y-7174724D01*
X2910069Y-7174724D02*
X2900545Y-7165200D01*
X2900545Y-7165200D02*
X2881497Y-7155677D01*
X2881497Y-7155677D02*
X2843402Y-7155677D01*
X2843402Y-7155677D02*
X2824354Y-7165200D01*
X2824354Y-7165200D02*
X2814831Y-7174724D01*
X2814831Y-7174724D02*
X2805307Y-7193772D01*
X3043402Y-7079486D02*
X3062450Y-7079486D01*
X3062450Y-7079486D02*
X3081497Y-7089010D01*
X3081497Y-7089010D02*
X3091021Y-7098534D01*
X3091021Y-7098534D02*
X3100545Y-7117581D01*
X3100545Y-7117581D02*
X3110069Y-7155677D01*
X3110069Y-7155677D02*
X3110069Y-7203296D01*
X3110069Y-7203296D02*
X3100545Y-7241391D01*
X3100545Y-7241391D02*
X3091021Y-7260438D01*
X3091021Y-7260438D02*
X3081497Y-7269962D01*
X3081497Y-7269962D02*
X3062450Y-7279486D01*
X3062450Y-7279486D02*
X3043402Y-7279486D01*
X3043402Y-7279486D02*
X3024354Y-7269962D01*
X3024354Y-7269962D02*
X3014831Y-7260438D01*
X3014831Y-7260438D02*
X3005307Y-7241391D01*
X3005307Y-7241391D02*
X2995783Y-7203296D01*
X2995783Y-7203296D02*
X2995783Y-7155677D01*
X2995783Y-7155677D02*
X3005307Y-7117581D01*
X3005307Y-7117581D02*
X3014831Y-7098534D01*
X3014831Y-7098534D02*
X3024354Y-7089010D01*
X3024354Y-7089010D02*
X3043402Y-7079486D01*
X3186259Y-7079486D02*
X3186259Y-7117581D01*
X3262450Y-7079486D02*
X3262450Y-7117581D01*
X3557688Y-7355677D02*
X3548164Y-7346153D01*
X3548164Y-7346153D02*
X3529116Y-7317581D01*
X3529116Y-7317581D02*
X3519593Y-7298534D01*
X3519593Y-7298534D02*
X3510069Y-7269962D01*
X3510069Y-7269962D02*
X3500545Y-7222343D01*
X3500545Y-7222343D02*
X3500545Y-7184248D01*
X3500545Y-7184248D02*
X3510069Y-7136629D01*
X3510069Y-7136629D02*
X3519593Y-7108058D01*
X3519593Y-7108058D02*
X3529116Y-7089010D01*
X3529116Y-7089010D02*
X3548164Y-7060438D01*
X3548164Y-7060438D02*
X3557688Y-7050915D01*
X3719593Y-7146153D02*
X3719593Y-7279486D01*
X3671973Y-7069962D02*
X3624354Y-7212819D01*
X3624354Y-7212819D02*
X3748164Y-7212819D01*
X3976735Y-7279486D02*
X3976735Y-7079486D01*
X4062450Y-7279486D02*
X4062450Y-7174724D01*
X4062450Y-7174724D02*
X4052926Y-7155677D01*
X4052926Y-7155677D02*
X4033878Y-7146153D01*
X4033878Y-7146153D02*
X4005307Y-7146153D01*
X4005307Y-7146153D02*
X3986259Y-7155677D01*
X3986259Y-7155677D02*
X3976735Y-7165200D01*
X4186259Y-7279486D02*
X4167212Y-7269962D01*
X4167212Y-7269962D02*
X4157688Y-7260438D01*
X4157688Y-7260438D02*
X4148164Y-7241391D01*
X4148164Y-7241391D02*
X4148164Y-7184248D01*
X4148164Y-7184248D02*
X4157688Y-7165200D01*
X4157688Y-7165200D02*
X4167212Y-7155677D01*
X4167212Y-7155677D02*
X4186259Y-7146153D01*
X4186259Y-7146153D02*
X4214831Y-7146153D01*
X4214831Y-7146153D02*
X4233878Y-7155677D01*
X4233878Y-7155677D02*
X4243402Y-7165200D01*
X4243402Y-7165200D02*
X4252926Y-7184248D01*
X4252926Y-7184248D02*
X4252926Y-7241391D01*
X4252926Y-7241391D02*
X4243402Y-7260438D01*
X4243402Y-7260438D02*
X4233878Y-7269962D01*
X4233878Y-7269962D02*
X4214831Y-7279486D01*
X4214831Y-7279486D02*
X4186259Y-7279486D01*
X4367212Y-7279486D02*
X4348164Y-7269962D01*
X4348164Y-7269962D02*
X4338640Y-7250915D01*
X4338640Y-7250915D02*
X4338640Y-7079486D01*
X4519593Y-7269962D02*
X4500545Y-7279486D01*
X4500545Y-7279486D02*
X4462450Y-7279486D01*
X4462450Y-7279486D02*
X4443402Y-7269962D01*
X4443402Y-7269962D02*
X4433878Y-7250915D01*
X4433878Y-7250915D02*
X4433878Y-7174724D01*
X4433878Y-7174724D02*
X4443402Y-7155677D01*
X4443402Y-7155677D02*
X4462450Y-7146153D01*
X4462450Y-7146153D02*
X4500545Y-7146153D01*
X4500545Y-7146153D02*
X4519593Y-7155677D01*
X4519593Y-7155677D02*
X4529117Y-7174724D01*
X4529117Y-7174724D02*
X4529117Y-7193772D01*
X4529117Y-7193772D02*
X4433878Y-7212819D01*
X4605307Y-7269962D02*
X4624355Y-7279486D01*
X4624355Y-7279486D02*
X4662450Y-7279486D01*
X4662450Y-7279486D02*
X4681498Y-7269962D01*
X4681498Y-7269962D02*
X4691021Y-7250915D01*
X4691021Y-7250915D02*
X4691021Y-7241391D01*
X4691021Y-7241391D02*
X4681498Y-7222343D01*
X4681498Y-7222343D02*
X4662450Y-7212819D01*
X4662450Y-7212819D02*
X4633878Y-7212819D01*
X4633878Y-7212819D02*
X4614831Y-7203296D01*
X4614831Y-7203296D02*
X4605307Y-7184248D01*
X4605307Y-7184248D02*
X4605307Y-7174724D01*
X4605307Y-7174724D02*
X4614831Y-7155677D01*
X4614831Y-7155677D02*
X4633878Y-7146153D01*
X4633878Y-7146153D02*
X4662450Y-7146153D01*
X4662450Y-7146153D02*
X4681498Y-7155677D01*
X4757688Y-7355677D02*
X4767212Y-7346153D01*
X4767212Y-7346153D02*
X4786259Y-7317581D01*
X4786259Y-7317581D02*
X4795783Y-7298534D01*
X4795783Y-7298534D02*
X4805307Y-7269962D01*
X4805307Y-7269962D02*
X4814831Y-7222343D01*
X4814831Y-7222343D02*
X4814831Y-7184248D01*
X4814831Y-7184248D02*
X4805307Y-7136629D01*
X4805307Y-7136629D02*
X4795783Y-7108058D01*
X4795783Y-7108058D02*
X4786259Y-7089010D01*
X4786259Y-7089010D02*
X4767212Y-7060438D01*
X4767212Y-7060438D02*
X4757688Y-7050915D01*
M02*
