%TF.GenerationSoftware,KiCad,Pcbnew,10.0.0*%
%TF.CreationDate,2026-05-04T01:20:25+02:00*%
%TF.ProjectId,Geiger_Simulator,47656967-6572-45f5-9369-6d756c61746f,rev?*%
%TF.SameCoordinates,Original*%
%TF.FileFunction,Drillmap*%
%TF.FilePolarity,Positive*%
%FSLAX45Y45*%
G04 Gerber Fmt 4.5, Leading zero omitted, Abs format (unit mm)*
G04 Created by KiCad (PCBNEW 10.0.0) date 2026-05-04 01:20:25*
%MOMM*%
%LPD*%
G01*
G04 APERTURE LIST*
%ADD10C,0.200000*%
G04 APERTURE END LIST*
D10*
X-7375Y20750D02*
X7374333Y20750D01*
X7374333Y-4954002D01*
X-7375Y-4954002D01*
X-7375Y20750D01*
X243402Y-5275486D02*
X243402Y-5075486D01*
X243402Y-5075486D02*
X291021Y-5075486D01*
X291021Y-5075486D02*
X319592Y-5085010D01*
X319592Y-5085010D02*
X338640Y-5104058D01*
X338640Y-5104058D02*
X348164Y-5123105D01*
X348164Y-5123105D02*
X357687Y-5161200D01*
X357687Y-5161200D02*
X357687Y-5189772D01*
X357687Y-5189772D02*
X348164Y-5227867D01*
X348164Y-5227867D02*
X338640Y-5246915D01*
X338640Y-5246915D02*
X319592Y-5265962D01*
X319592Y-5265962D02*
X291021Y-5275486D01*
X291021Y-5275486D02*
X243402Y-5275486D01*
X443402Y-5275486D02*
X443402Y-5142153D01*
X443402Y-5180248D02*
X452926Y-5161200D01*
X452926Y-5161200D02*
X462449Y-5151677D01*
X462449Y-5151677D02*
X481497Y-5142153D01*
X481497Y-5142153D02*
X500545Y-5142153D01*
X567211Y-5275486D02*
X567211Y-5142153D01*
X567211Y-5075486D02*
X557688Y-5085010D01*
X557688Y-5085010D02*
X567211Y-5094534D01*
X567211Y-5094534D02*
X576735Y-5085010D01*
X576735Y-5085010D02*
X567211Y-5075486D01*
X567211Y-5075486D02*
X567211Y-5094534D01*
X691021Y-5275486D02*
X671973Y-5265962D01*
X671973Y-5265962D02*
X662449Y-5246915D01*
X662449Y-5246915D02*
X662449Y-5075486D01*
X795783Y-5275486D02*
X776735Y-5265962D01*
X776735Y-5265962D02*
X767211Y-5246915D01*
X767211Y-5246915D02*
X767211Y-5075486D01*
X1024354Y-5275486D02*
X1024354Y-5075486D01*
X1024354Y-5075486D02*
X1091021Y-5218343D01*
X1091021Y-5218343D02*
X1157688Y-5075486D01*
X1157688Y-5075486D02*
X1157688Y-5275486D01*
X1338640Y-5275486D02*
X1338640Y-5170724D01*
X1338640Y-5170724D02*
X1329116Y-5151677D01*
X1329116Y-5151677D02*
X1310069Y-5142153D01*
X1310069Y-5142153D02*
X1271973Y-5142153D01*
X1271973Y-5142153D02*
X1252926Y-5151677D01*
X1338640Y-5265962D02*
X1319592Y-5275486D01*
X1319592Y-5275486D02*
X1271973Y-5275486D01*
X1271973Y-5275486D02*
X1252926Y-5265962D01*
X1252926Y-5265962D02*
X1243402Y-5246915D01*
X1243402Y-5246915D02*
X1243402Y-5227867D01*
X1243402Y-5227867D02*
X1252926Y-5208820D01*
X1252926Y-5208820D02*
X1271973Y-5199296D01*
X1271973Y-5199296D02*
X1319592Y-5199296D01*
X1319592Y-5199296D02*
X1338640Y-5189772D01*
X1433878Y-5142153D02*
X1433878Y-5342153D01*
X1433878Y-5151677D02*
X1452926Y-5142153D01*
X1452926Y-5142153D02*
X1491021Y-5142153D01*
X1491021Y-5142153D02*
X1510068Y-5151677D01*
X1510068Y-5151677D02*
X1519592Y-5161200D01*
X1519592Y-5161200D02*
X1529116Y-5180248D01*
X1529116Y-5180248D02*
X1529116Y-5237391D01*
X1529116Y-5237391D02*
X1519592Y-5256439D01*
X1519592Y-5256439D02*
X1510068Y-5265962D01*
X1510068Y-5265962D02*
X1491021Y-5275486D01*
X1491021Y-5275486D02*
X1452926Y-5275486D01*
X1452926Y-5275486D02*
X1433878Y-5265962D01*
X1614830Y-5256439D02*
X1624354Y-5265962D01*
X1624354Y-5265962D02*
X1614830Y-5275486D01*
X1614830Y-5275486D02*
X1605307Y-5265962D01*
X1605307Y-5265962D02*
X1614830Y-5256439D01*
X1614830Y-5256439D02*
X1614830Y-5275486D01*
X1614830Y-5151677D02*
X1624354Y-5161200D01*
X1624354Y-5161200D02*
X1614830Y-5170724D01*
X1614830Y-5170724D02*
X1605307Y-5161200D01*
X1605307Y-5161200D02*
X1614830Y-5151677D01*
X1614830Y-5151677D02*
X1614830Y-5170724D01*
M02*
